Barlow-Bold.ufo
<glyph name="exclam" format="1">
  <advance width="362"/>
  <unicode hex="0021"/>
  <outline>
    <contour>
      <point x="255" y="248" type="line"/>
      <point x="275" y="700" type="line"/>
      <point x="87" y="700" type="line"/>
      <point x="106" y="248" type="line"/>
    </contour>
    <contour>
      <point x="244" y="0"/>
      <point x="291" y="47"/>
      <point x="291" y="105" type="curve" smooth="yes"/>
      <point x="291" y="163"/>
      <point x="236" y="209"/>
      <point x="179" y="209" type="curve" smooth="yes"/>
      <point x="123" y="209"/>
      <point x="68" y="163"/>
      <point x="68" y="105" type="curve" smooth="yes"/>
      <point x="68" y="47"/>
      <point x="114" y="0"/>
      <point x="179" y="0" type="curve" smooth="yes"/>
    </contour>
  </outline>
</glyph>
<glyph name="quotedbl" format="1">
  <advance width="423"/>
  <unicode hex="0022"/>
  <outline>
    <contour>
      <point x="264" y="460" type="line"/>
      <point x="403" y="460" type="line"/>
      <point x="423" y="700" type="line"/>
      <point x="244" y="700" type="line"/>
    </contour>
    <contour>
      <point x="24" y="460" type="line"/>
      <point x="163" y="460" type="line"/>
      <point x="183" y="700" type="line"/>
      <point x="4" y="700" type="line"/>
    </contour>
  </outline>
</glyph>
<glyph name="numbersign" format="1">
  <advance width="690"/>
  <unicode hex="0023"/>
  <outline>
    <contour>
      <point x="367" y="669" type="line"/>
      <point x="179" y="669" type="line"/>
      <point x="81" y="31" type="line"/>
      <point x="269" y="31" type="line"/>
    </contour>
    <contour>
      <point x="626" y="669" type="line"/>
      <point x="438" y="669" type="line"/>
      <point x="340" y="31" type="line"/>
      <point x="528" y="31" type="line"/>
    </contour>
    <contour>
      <point x="67" y="545" type="line"/>
      <point x="67" y="384" type="line"/>
      <point x="660" y="384" type="line"/>
      <point x="660" y="545" type="line"/>
    </contour>
    <contour>
      <point x="30" y="315" type="line"/>
      <point x="30" y="155" type="line"/>
      <point x="623" y="155" type="line"/>
      <point x="623" y="315" type="line"/>
    </contour>
  </outline>
</glyph>
<glyph name="dollar" format="1">
  <advance width="557"/>
  <unicode hex="0024"/>
  <outline>
    <contour>
      <point x="334" y="657" type="line"/>
      <point x="337" y="778" type="line"/>
      <point x="219" y="778" type="line"/>
      <point x="222" y="657" type="line"/>
    </contour>
    <contour>
      <point x="338" y="-68" type="line"/>
      <point x="335" y="53" type="line"/>
      <point x="221" y="53" type="line"/>
      <point x="218" y="-68" type="line"/>
    </contour>
    <contour>
      <point x="437" y="-8"/>
      <point x="530" y="79"/>
      <point x="530" y="213" type="curve" smooth="yes"/>
      <point x="530" y="297"/>
      <point x="493" y="365"/>
      <point x="401" y="405" type="curve" smooth="yes"/>
      <point x="317" y="441"/>
      <point x="212" y="445"/>
      <point x="212" y="499" type="curve" smooth="yes"/>
      <point x="212" y="526"/>
      <point x="238" y="547"/>
      <point x="274" y="547" type="curve" smooth="yes"/>
      <point x="325" y="547"/>
      <point x="342" y="505"/>
      <point x="342" y="468" type="curve" smooth="yes"/>
      <point x="342" y="452" type="line"/>
      <point x="527" y="452" type="line"/>
      <point x="527" y="509" type="line" smooth="yes"/>
      <point x="527" y="629"/>
      <point x="436" y="708"/>
      <point x="282" y="708" type="curve" smooth="yes"/>
      <point x="120" y="708"/>
      <point x="27" y="620"/>
      <point x="27" y="493" type="curve" smooth="yes"/>
      <point x="27" y="415"/>
      <point x="62" y="358"/>
      <point x="102" y="328" type="curve" smooth="yes"/>
      <point x="182" y="268"/>
      <point x="342" y="270"/>
      <point x="342" y="204" type="curve" smooth="yes"/>
      <point x="342" y="185"/>
      <point x="329" y="153"/>
      <point x="285" y="153" type="curve" smooth="yes"/>
      <point x="237" y="153"/>
      <point x="218" y="190"/>
      <point x="218" y="224" type="curve" smooth="yes"/>
      <point x="218" y="245" type="line"/>
      <point x="33" y="245" type="line"/>
      <point x="33" y="180" type="line" smooth="yes"/>
      <point x="33" y="67"/>
      <point x="123" y="-8"/>
      <point x="274" y="-8" type="curve" smooth="yes"/>
    </contour>
    <contour>
      <point x="277" y="708" type="move" name="top"/>
    </contour>
    <contour>
      <point x="279" y="-8" type="move" name="bottom"/>
    </contour>
  </outline>
</glyph>
<glyph name="percent" format="1">
  <advance width="809"/>
  <unicode hex="0025"/>
  <outline>
    <contour>
      <point x="664" y="700" type="line"/>
      <point x="532" y="700" type="line"/>
      <point x="142" y="0" type="line"/>
      <point x="275" y="0" type="line"/>
    </contour>
    <contour>
      <point x="704" y="-8"/>
      <point x="779" y="67"/>
      <point x="779" y="161" type="curve" smooth="yes"/>
      <point x="779" y="254"/>
      <point x="703" y="329"/>
      <point x="610" y="329" type="curve" smooth="yes"/>
      <point x="516" y="329"/>
      <point x="440" y="254"/>
      <point x="440" y="161" type="curve" smooth="yes"/>
      <point x="440" y="67"/>
      <point x="516" y="-8"/>
      <point x="610" y="-8" type="curve" smooth="yes"/>
    </contour>
    <contour>
      <point x="569" y="86"/>
      <point x="536" y="119"/>
      <point x="536" y="161" type="curve" smooth="yes"/>
      <point x="536" y="202"/>
      <point x="569" y="235"/>
      <point x="610" y="235" type="curve" smooth="yes"/>
      <point x="650" y="235"/>
      <point x="683" y="202"/>
      <point x="683" y="161" type="curve" smooth="yes"/>
      <point x="683" y="119"/>
      <point x="651" y="86"/>
      <point x="610" y="86" type="curve" smooth="yes"/>
    </contour>
    <contour>
      <point x="303" y="371"/>
      <point x="378" y="446"/>
      <point x="378" y="540" type="curve" smooth="yes"/>
      <point x="378" y="633"/>
      <point x="302" y="708"/>
      <point x="209" y="708" type="curve" smooth="yes"/>
      <point x="115" y="708"/>
      <point x="39" y="633"/>
      <point x="39" y="540" type="curve" smooth="yes"/>
      <point x="39" y="446"/>
      <point x="115" y="371"/>
      <point x="209" y="371" type="curve" smooth="yes"/>
    </contour>
    <contour>
      <point x="168" y="465"/>
      <point x="135" y="498"/>
      <point x="135" y="540" type="curve" smooth="yes"/>
      <point x="135" y="581"/>
      <point x="168" y="614"/>
      <point x="209" y="614" type="curve" smooth="yes"/>
      <point x="249" y="614"/>
      <point x="282" y="581"/>
      <point x="282" y="540" type="curve" smooth="yes"/>
      <point x="282" y="498"/>
      <point x="250" y="465"/>
      <point x="209" y="465" type="curve" smooth="yes"/>
    </contour>
  </outline>
</glyph>
<glyph name="ampersand" format="1">
  <advance width="681"/>
  <unicode hex="0026"/>
  <outline>
    <contour>
      <point x="401" y="-10"/>
      <point x="543" y="81"/>
      <point x="636" y="270" type="curve"/>
      <point x="493" y="351" type="line"/>
      <point x="463" y="284"/>
      <point x="356" y="161"/>
      <point x="274" y="150" type="curve" smooth="yes"/>
      <point x="228" y="144"/>
      <point x="212" y="176"/>
      <point x="212" y="195" type="curve" smooth="yes"/>
      <point x="212" y="274"/>
      <point x="501" y="297"/>
      <point x="501" y="506" type="curve" smooth="yes"/>
      <point x="501" y="626"/>
      <point x="405" y="708"/>
      <point x="273" y="708" type="curve" smooth="yes"/>
      <point x="143" y="708"/>
      <point x="57" y="628"/>
      <point x="57" y="503" type="curve" smooth="yes"/>
      <point x="57" y="416"/>
      <point x="98" y="371"/>
      <point x="210" y="296" type="curve"/>
      <point x="448" y="0" type="line"/>
      <point x="654" y="0" type="line"/>
      <point x="376" y="347" type="line"/>
      <point x="257" y="461"/>
      <point x="245" y="478"/>
      <point x="245" y="501" type="curve" smooth="yes"/>
      <point x="245" y="526"/>
      <point x="259" y="538"/>
      <point x="278" y="538" type="curve" smooth="yes"/>
      <point x="298" y="538"/>
      <point x="313" y="525"/>
      <point x="313" y="502" type="curve" smooth="yes"/>
      <point x="313" y="402"/>
      <point x="26" y="405"/>
      <point x="24" y="185" type="curve" smooth="yes"/>
      <point x="23" y="57"/>
      <point x="120" y="-10"/>
      <point x="250" y="-10" type="curve" smooth="yes"/>
    </contour>
  </outline>
</glyph>
<glyph name="parenleft" format="1">
  <advance width="405"/>
  <unicode hex="0028"/>
  <outline>
    <contour>
      <point x="337" y="-83" type="line"/>
      <point x="280" y="10"/>
      <point x="211" y="137"/>
      <point x="211" y="337" type="curve" smooth="yes"/>
      <point x="211" y="536"/>
      <point x="280" y="664"/>
      <point x="337" y="756" type="curve"/>
      <point x="151" y="756" type="line"/>
      <point x="70" y="665"/>
      <point x="1" y="536"/>
      <point x="1" y="337" type="curve" smooth="yes"/>
      <point x="1" y="137"/>
      <point x="70" y="9"/>
      <point x="151" y="-83" type="curve"/>
    </contour>
  </outline>
</glyph>
<glyph name="asterisk" format="1">
  <advance width="400"/>
  <unicode hex="002A"/>
  <outline>
    <contour>
      <point x="336" y="708" type="line"/>
      <point x="251" y="660" type="line"/>
      <point x="252" y="747" type="line"/>
      <point x="148" y="747" type="line"/>
      <point x="149" y="660" type="line"/>
      <point x="64" y="708" type="line"/>
      <point x="12" y="612" type="line"/>
      <point x="99" y="571" type="line"/>
      <point x="12" y="528" type="line"/>
      <point x="64" y="432" type="line"/>
      <point x="149" y="482" type="line"/>
      <point x="148" y="393" type="line"/>
      <point x="252" y="393" type="line"/>
      <point x="251" y="482" type="line"/>
      <point x="336" y="432" type="line"/>
      <point x="388" y="528" type="line"/>
      <point x="299" y="571" type="line"/>
      <point x="388" y="612" type="line"/>
    </contour>
  </outline>
</glyph>
<glyph name="plus" format="1">
  <advance width="520"/>
  <unicode hex="002B"/>
  <outline>
    <contour>
      <point x="498" y="214" type="line"/>
      <point x="498" y="374" type="line"/>
      <point x="22" y="374" type="line"/>
      <point x="22" y="214" type="line"/>
    </contour>
    <contour>
      <point x="340" y="532" type="line"/>
      <point x="180" y="532" type="line"/>
      <point x="180" y="56" type="line"/>
      <point x="340" y="56" type="line"/>
    </contour>
  </outline>
</glyph>
<glyph name="comma" format="1">
  <advance width="265"/>
  <unicode hex="002C"/>
  <outline>
    <contour>
      <point x="22" y="-111" type="line"/>
      <point x="146" y="-111" type="line"/>
      <point x="219" y="160" type="line"/>
      <point x="51" y="160" type="line"/>
    </contour>
  </outline>
</glyph>
<glyph name="hyphen" format="1">
  <advance width="379"/>
  <unicode hex="002D"/>
  <outline>
    <contour>
      <point x="357" y="205" type="line"/>
      <point x="357" y="365" type="line"/>
      <point x="22" y="365" type="line"/>
      <point x="22" y="205" type="line"/>
    </contour>
  </outline>
</glyph>
<glyph name="slash" format="1">
  <advance width="503"/>
  <unicode hex="002F"/>
  <outline>
    <contour>
      <point x="200" y="0" type="line"/>
      <point x="491" y="700" type="line"/>
      <point x="304" y="700" type="line"/>
      <point x="12" y="0" type="line"/>
    </contour>
  </outline>
</glyph>
<glyph name="zero" format="1">
  <advance width="545"/>
  <unicode hex="0030"/>
  <outline>
    <contour>
      <point x="431" y="-12"/>
      <point x="529" y="82"/>
      <point x="529" y="236" type="curve" smooth="yes"/>
      <point x="529" y="464" type="line" smooth="yes"/>
      <point x="529" y="615"/>
      <point x="431" y="708"/>
      <point x="272" y="708" type="curve" smooth="yes"/>
      <point x="113" y="708"/>
      <point x="16" y="615"/>
      <point x="16" y="464" type="curve" smooth="yes"/>
      <point x="16" y="236" type="line" smooth="yes"/>
      <point x="16" y="82"/>
      <point x="113" y="-12"/>
      <point x="272" y="-12" type="curve" smooth="yes"/>
    </contour>
    <contour>
      <point x="230" y="149"/>
      <point x="204" y="178"/>
      <point x="204" y="226" type="curve" smooth="yes"/>
      <point x="204" y="470" type="line" smooth="yes"/>
      <point x="204" y="518"/>
      <point x="230" y="547"/>
      <point x="272" y="547" type="curve" smooth="yes"/>
      <point x="315" y="547"/>
      <point x="341" y="518"/>
      <point x="341" y="470" type="curve" smooth="yes"/>
      <point x="341" y="226" type="line" smooth="yes"/>
      <point x="341" y="178"/>
      <point x="315" y="149"/>
      <point x="272" y="149" type="curve" smooth="yes"/>
    </contour>
  </outline>
</glyph>
<glyph name="one" format="1">
  <advance width="338"/>
  <unicode hex="0031"/>
  <outline>
    <contour>
      <point x="308" y="0" type="line"/>
      <point x="308" y="700" type="line"/>
      <point x="120" y="700" type="line"/>
      <point x="120" y="0" type="line"/>
    </contour>
    <contour>
      <point x="120" y="539" type="line"/>
      <point x="120" y="700" type="line"/>
      <point x="24" y="659" type="line"/>
      <point x="24" y="525" type="line"/>
    </contour>
  </outline>
</glyph>
<glyph name="two" format="1">
  <advance width="540"/>
  <unicode hex="0032"/>
  <outline>
    <contour>
      <point x="530" y="0" type="line"/>
      <point x="530" y="161" type="line"/>
      <point x="266" y="161" type="line"/>
      <point x="328" y="218"/>
      <point x="395" y="274"/>
      <point x="448" y="334" type="curve" smooth="yes"/>
      <point x="493" y="385"/>
      <point x="523" y="432"/>
      <point x="523" y="496" type="curve" smooth="yes"/>
      <point x="523" y="610"/>
      <point x="429" y="708"/>
      <point x="269" y="708" type="curve" smooth="yes"/>
      <point x="132" y="708"/>
      <point x="23" y="636"/>
      <point x="14" y="520" type="curve"/>
      <point x="14" y="455" type="line"/>
      <point x="204" y="455" type="line"/>
      <point x="204" y="490" type="line"/>
      <point x="204" y="524"/>
      <point x="230" y="547"/>
      <point x="269" y="547" type="curve" smooth="yes"/>
      <point x="307" y="547"/>
      <point x="333" y="524"/>
      <point x="333" y="492" type="curve" smooth="yes"/>
      <point x="333" y="452"/>
      <point x="294" y="406"/>
      <point x="243" y="356" type="curve" smooth="yes"/>
      <point x="178" y="293"/>
      <point x="106" y="234"/>
      <point x="20" y="159" type="curve"/>
      <point x="20" y="0" type="line"/>
    </contour>
  </outline>
</glyph>
<glyph name="three" format="1">
  <advance width="526"/>
  <unicode hex="0033"/>
  <outline>
    <contour>
      <point x="30" y="700" type="line"/>
      <point x="30" y="540" type="line"/>
      <point x="279" y="540" type="line"/>
      <point x="111" y="427" type="line"/>
      <point x="211" y="312" type="line"/>
      <point x="225" y="329"/>
      <point x="250" y="340"/>
      <point x="270" y="340" type="curve" smooth="yes"/>
      <point x="305" y="340"/>
      <point x="332" y="304"/>
      <point x="332" y="272" type="curve" smooth="yes"/>
      <point x="332" y="222" type="line" smooth="yes"/>
      <point x="332" y="181"/>
      <point x="305" y="152"/>
      <point x="266" y="152" type="curve" smooth="yes"/>
      <point x="228" y="152"/>
      <point x="202" y="181"/>
      <point x="202" y="222" type="curve" smooth="yes"/>
      <point x="202" y="232" type="line"/>
      <point x="14" y="232" type="line"/>
      <point x="14" y="172" type="line" smooth="yes"/>
      <point x="14" y="66"/>
      <point x="119" y="-8"/>
      <point x="262" y="-8" type="curve" smooth="yes"/>
      <point x="412" y="-8"/>
      <point x="510" y="74"/>
      <point x="510" y="192" type="curve" smooth="yes"/>
      <point x="510" y="256" type="line" smooth="yes"/>
      <point x="510" y="363"/>
      <point x="415" y="474"/>
      <point x="307" y="415" type="curve"/>
      <point x="306" y="363" type="line"/>
      <point x="510" y="540" type="line"/>
      <point x="510" y="700" type="line"/>
    </contour>
  </outline>
</glyph>
<glyph name="four" format="1">
  <advance width="606"/>
  <unicode hex="0034"/>
  <outline>
    <contour>
      <point x="345" y="0" type="line"/>
      <point x="533" y="0" type="line"/>
      <point x="533" y="426" type="line"/>
      <point x="345" y="426" type="line"/>
    </contour>
    <contour>
      <point x="229" y="337" type="line"/>
      <point x="382" y="700" type="line"/>
      <point x="185" y="700" type="line"/>
      <point x="12" y="302" type="line"/>
      <point x="12" y="167" type="line"/>
      <point x="594" y="167" type="line"/>
      <point x="594" y="337" type="line"/>
    </contour>
  </outline>
</glyph>
<glyph name="five" format="1">
  <advance width="555"/>
  <unicode hex="0035"/>
  <outline>
    <contour>
      <point x="280" y="-6" type="curve" smooth="yes"/>
      <point x="390" y="-6"/>
      <point x="478" y="49"/>
      <point x="514" y="131" type="curve" smooth="yes"/>
      <point x="526" y="158"/>
      <point x="534" y="191"/>
      <point x="534" y="230" type="curve" smooth="yes"/>
      <point x="534" y="265"/>
      <point x="527" y="298"/>
      <point x="515" y="327" type="curve" smooth="yes"/>
      <point x="480" y="408"/>
      <point x="403" y="462"/>
      <point x="308" y="462" type="curve" smooth="yes"/>
      <point x="257" y="462"/>
      <point x="198" y="443"/>
      <point x="159" y="381" type="curve"/>
      <point x="217" y="384" type="line"/>
      <point x="217" y="539" type="line"/>
      <point x="512" y="539" type="line"/>
      <point x="512" y="700" type="line"/>
      <point x="29" y="700" type="line"/>
      <point x="29" y="269" type="line"/>
      <point x="224" y="269" type="line"/>
      <point x="237" y="293"/>
      <point x="260" y="300"/>
      <point x="280" y="300" type="curve" smooth="yes"/>
      <point x="304" y="300"/>
      <point x="321" y="289"/>
      <point x="331" y="273" type="curve" smooth="yes"/>
      <point x="339" y="259"/>
      <point x="343" y="243"/>
      <point x="342" y="226" type="curve" smooth="yes"/>
      <point x="342" y="210"/>
      <point x="337" y="194"/>
      <point x="328" y="181" type="curve" smooth="yes"/>
      <point x="317" y="166"/>
      <point x="301" y="155"/>
      <point x="280" y="155" type="curve" smooth="yes"/>
      <point x="258" y="155"/>
      <point x="241" y="164"/>
      <point x="230" y="183" type="curve" smooth="yes"/>
      <point x="224" y="193"/>
      <point x="221" y="201"/>
      <point x="220" y="209" type="curve"/>
      <point x="27" y="209" type="line"/>
      <point x="29" y="182"/>
      <point x="35" y="156"/>
      <point x="46" y="131" type="curve" smooth="yes"/>
      <point x="84" y="46"/>
      <point x="172" y="-6"/>
    </contour>
  </outline>
</glyph>
<glyph name="six" format="1">
  <advance width="552"/>
  <unicode hex="0036"/>
  <outline>
    <contour>
      <point x="388" y="-6"/>
      <point x="476" y="49"/>
      <point x="512" y="131" type="curve" smooth="yes"/>
      <point x="524" y="158"/>
      <point x="531" y="191"/>
      <point x="531" y="230" type="curve" smooth="yes"/>
      <point x="531" y="266"/>
      <point x="526" y="300"/>
      <point x="512" y="329" type="curve" smooth="yes"/>
      <point x="472" y="412"/>
      <point x="391" y="457"/>
      <point x="312" y="457" type="curve" smooth="yes"/>
      <point x="262" y="457"/>
      <point x="214" y="441"/>
      <point x="175" y="379" type="curve"/>
      <point x="215" y="379" type="line"/>
      <point x="215" y="496" type="line" smooth="yes"/>
      <point x="215" y="524"/>
      <point x="238" y="547"/>
      <point x="271" y="547" type="curve" smooth="yes"/>
      <point x="303" y="547"/>
      <point x="325" y="524"/>
      <point x="325" y="496" type="curve" smooth="yes"/>
      <point x="325" y="474" type="line"/>
      <point x="513" y="474" type="line"/>
      <point x="513" y="524" type="line" smooth="yes"/>
      <point x="513" y="634"/>
      <point x="415" y="708"/>
      <point x="272" y="708" type="curve" smooth="yes"/>
      <point x="125" y="708"/>
      <point x="27" y="634"/>
      <point x="27" y="524" type="curve" smooth="yes"/>
      <point x="27" y="230" type="line" smooth="yes"/>
      <point x="27" y="196"/>
      <point x="33" y="162"/>
      <point x="47" y="131" type="curve" smooth="yes"/>
      <point x="85" y="46"/>
      <point x="173" y="-6"/>
      <point x="278" y="-6" type="curve" smooth="yes"/>
    </contour>
    <contour>
      <point x="257" y="155"/>
      <point x="239" y="163"/>
      <point x="229" y="179" type="curve" smooth="yes"/>
      <point x="221" y="192"/>
      <point x="216" y="208"/>
      <point x="216" y="225" type="curve" smooth="yes"/>
      <point x="215" y="241"/>
      <point x="219" y="259"/>
      <point x="229" y="274" type="curve" smooth="yes"/>
      <point x="240" y="289"/>
      <point x="257" y="296"/>
      <point x="279" y="296" type="curve" smooth="yes"/>
      <point x="301" y="296"/>
      <point x="318" y="289"/>
      <point x="328" y="274" type="curve" smooth="yes"/>
      <point x="339" y="258"/>
      <point x="343" y="239"/>
      <point x="343" y="222" type="curve" smooth="yes"/>
      <point x="342" y="206"/>
      <point x="337" y="191"/>
      <point x="328" y="179" type="curve" smooth="yes"/>
      <point x="317" y="164"/>
      <point x="301" y="155"/>
      <point x="279" y="155" type="curve" smooth="yes"/>
    </contour>
  </outline>
</glyph>
<glyph name="eight" format="1">
  <advance width="525"/>
  <unicode hex="0038"/>
  <outline>
    <contour>
      <point x="410" y="-8"/>
      <point x="508" y="63"/>
      <point x="508" y="184" type="curve" smooth="yes"/>
      <point x="508" y="203" type="line" smooth="yes"/>
      <point x="508" y="337"/>
      <point x="410" y="383"/>
      <point x="263" y="403" type="curve"/>
      <point x="115" y="383"/>
      <point x="17" y="337"/>
      <point x="17" y="203" type="curve" smooth="yes"/>
      <point x="17" y="185" type="line" smooth="yes"/>
      <point x="17" y="63"/>
      <point x="115" y="-8"/>
      <point x="263" y="-8" type="curve" smooth="yes"/>
    </contour>
    <contour>
      <point x="228" y="153"/>
      <point x="204" y="177"/>
      <point x="204" y="214" type="curve" smooth="yes"/>
      <point x="204" y="226" type="line" smooth="yes"/>
      <point x="204" y="263"/>
      <point x="228" y="288"/>
      <point x="263" y="288" type="curve"/>
      <point x="297" y="288"/>
      <point x="320" y="263"/>
      <point x="320" y="226" type="curve" smooth="yes"/>
      <point x="320" y="214" type="line" smooth="yes"/>
      <point x="320" y="177"/>
      <point x="297" y="153"/>
      <point x="263" y="153" type="curve" smooth="yes"/>
    </contour>
    <contour>
      <point x="411" y="332"/>
      <point x="509" y="378"/>
      <point x="509" y="502" type="curve" smooth="yes"/>
      <point x="509" y="510" type="line" smooth="yes"/>
      <point x="509" y="635"/>
      <point x="411" y="708"/>
      <point x="263" y="708" type="curve" smooth="yes"/>
      <point x="115" y="708"/>
      <point x="16" y="635"/>
      <point x="16" y="510" type="curve" smooth="yes"/>
      <point x="16" y="503" type="line" smooth="yes"/>
      <point x="16" y="380"/>
      <point x="115" y="333"/>
      <point x="263" y="301" type="curve"/>
    </contour>
    <contour>
      <point x="228" y="422"/>
      <point x="205" y="447"/>
      <point x="205" y="484" type="curve" smooth="yes"/>
      <point x="205" y="486" type="line" smooth="yes"/>
      <point x="205" y="523"/>
      <point x="228" y="547"/>
      <point x="263" y="547" type="curve" smooth="yes"/>
      <point x="297" y="547"/>
      <point x="320" y="523"/>
      <point x="320" y="486" type="curve" smooth="yes"/>
      <point x="320" y="484" type="line" smooth="yes"/>
      <point x="320" y="447"/>
      <point x="297" y="422"/>
      <point x="263" y="422" type="curve" smooth="yes"/>
    </contour>
  </outline>
</glyph>
<glyph name="colon" format="1">
  <advance width="381"/>
  <unicode hex="003A"/>
  <outline>
    <contour>
      <point x="257" y="321"/>
      <point x="304" y="368"/>
      <point x="304" y="426" type="curve" smooth="yes"/>
      <point x="304" y="484"/>
      <point x="249" y="530"/>
      <point x="192" y="530" type="curve" smooth="yes"/>
      <point x="136" y="530"/>
      <point x="81" y="484"/>
      <point x="81" y="426" type="curve" smooth="yes"/>
      <point x="81" y="368"/>
      <point x="127" y="321"/>
      <point x="192" y="321" type="curve" smooth="yes"/>
    </contour>
    <contour>
      <point x="257" y="0"/>
      <point x="304" y="47"/>
      <point x="304" y="105" type="curve" smooth="yes"/>
      <point x="304" y="163"/>
      <point x="249" y="209"/>
      <point x="192" y="209" type="curve" smooth="yes"/>
      <point x="136" y="209"/>
      <point x="81" y="163"/>
      <point x="81" y="105" type="curve" smooth="yes"/>
      <point x="81" y="47"/>
      <point x="127" y="0"/>
      <point x="192" y="0" type="curve" smooth="yes"/>
    </contour>
  </outline>
</glyph>
<glyph name="semicolon" format="1">
  <advance width="319"/>
  <unicode hex="003B"/>
  <outline>
    <contour>
      <point x="57" y="-111" type="line"/>
      <point x="180" y="-111" type="line"/>
      <point x="249" y="160" type="line"/>
      <point x="81" y="160" type="line"/>
    </contour>
    <contour>
      <point x="160" y="291" type="curve" smooth="yes"/>
      <point x="225" y="291"/>
      <point x="272" y="338"/>
      <point x="272" y="396" type="curve" smooth="yes"/>
      <point x="272" y="454"/>
      <point x="217" y="500"/>
      <point x="160" y="500" type="curve" smooth="yes"/>
      <point x="104" y="500"/>
      <point x="49" y="454"/>
      <point x="49" y="396" type="curve" smooth="yes"/>
      <point x="49" y="338"/>
      <point x="95" y="291"/>
    </contour>
  </outline>
</glyph>
<glyph name="equal" format="1">
  <advance width="490"/>
  <unicode hex="003D"/>
  <outline>
    <contour>
      <point x="473" y="359" type="line"/>
      <point x="473" y="520" type="line"/>
      <point x="17" y="520" type="line"/>
      <point x="17" y="359" type="line"/>
    </contour>
    <contour>
      <point x="473" y="129" type="line"/>
      <point x="473" y="290" type="line"/>
      <point x="17" y="290" type="line"/>
      <point x="17" y="129" type="line"/>
    </contour>
  </outline>
</glyph>
<glyph name="greater" format="1">
  <advance width="442"/>
  <unicode hex="003E"/>
  <outline>
    <contour>
      <point x="22" y="364" type="line"/>
      <point x="244" y="277" type="line"/>
      <point x="22" y="190" type="line"/>
      <point x="22" y="12" type="line"/>
      <point x="420" y="197" type="line"/>
      <point x="420" y="357" type="line"/>
      <point x="22" y="542" type="line"/>
    </contour>
  </outline>
</glyph>
<glyph name="at" format="1">
  <advance width="815"/>
  <unicode hex="0040"/>
  <outline>
    <contour>
      <point x="448" y="-87"/>
      <point x="541" y="-52"/>
      <point x="594" y="-7" type="curve"/>
      <point x="526" y="74" type="line"/>
      <point x="500" y="53"/>
      <point x="439" y="29"/>
      <point x="367" y="29" type="curve" smooth="yes"/>
      <point x="221" y="29"/>
      <point x="127" y="121"/>
      <point x="153" y="294" type="curve" smooth="yes"/>
      <point x="178" y="456"/>
      <point x="294" y="574"/>
      <point x="457" y="574" type="curve" smooth="yes"/>
      <point x="594" y="574"/>
      <point x="684" y="491"/>
      <point x="660" y="311" type="curve" smooth="yes"/>
      <point x="652" y="253"/>
      <point x="637" y="217"/>
      <point x="602" y="217" type="curve" smooth="yes"/>
      <point x="568" y="217"/>
      <point x="562" y="253"/>
      <point x="567" y="290" type="curve"/>
      <point x="593" y="475" type="line"/>
      <point x="470" y="475" type="line"/>
      <point x="440" y="275" type="line" smooth="yes"/>
      <point x="424" y="169"/>
      <point x="481" y="103"/>
      <point x="589" y="103" type="curve" smooth="yes"/>
      <point x="713" y="103"/>
      <point x="775" y="190"/>
      <point x="790" y="320" type="curve" smooth="yes"/>
      <point x="816" y="539"/>
      <point x="683" y="688"/>
      <point x="464" y="688" type="curve" smooth="yes"/>
      <point x="237" y="688"/>
      <point x="60" y="527"/>
      <point x="27" y="299" type="curve" smooth="yes"/>
      <point x="-8" y="55"/>
      <point x="162" y="-87"/>
      <point x="349" y="-87" type="curve" smooth="yes"/>
    </contour>
    <contour>
      <point x="416" y="103"/>
      <point x="490" y="126"/>
      <point x="500" y="199" type="curve" smooth="yes"/>
      <point x="503" y="222"/>
      <point x="479" y="258"/>
      <point x="483" y="290" type="curve" smooth="yes"/>
      <point x="487" y="320"/>
      <point x="479" y="348"/>
      <point x="480" y="369" type="curve" smooth="yes"/>
      <point x="483" y="439"/>
      <point x="448" y="475"/>
      <point x="389" y="475" type="curve" smooth="yes"/>
      <point x="332" y="475"/>
      <point x="275" y="442"/>
      <point x="248" y="369" type="curve" smooth="yes"/>
      <point x="239" y="345"/>
      <point x="231" y="316"/>
      <point x="227" y="288" type="curve" smooth="yes"/>
      <point x="223" y="263"/>
      <point x="222" y="230"/>
      <point x="228" y="203" type="curve" smooth="yes"/>
      <point x="240" y="146"/>
      <point x="284" y="103"/>
      <point x="353" y="103" type="curve" smooth="yes"/>
    </contour>
    <contour>
      <point x="366" y="206"/>
      <point x="354" y="216"/>
      <point x="348" y="233" type="curve" smooth="yes"/>
      <point x="344" y="243"/>
      <point x="344" y="266"/>
      <point x="347" y="283" type="curve" smooth="yes"/>
      <point x="350" y="299"/>
      <point x="356" y="329"/>
      <point x="364" y="343" type="curve" smooth="yes"/>
      <point x="373" y="359"/>
      <point x="388" y="369"/>
      <point x="405" y="369" type="curve" smooth="yes"/>
      <point x="422" y="369"/>
      <point x="435" y="360"/>
      <point x="439" y="344" type="curve" smooth="yes"/>
      <point x="442" y="331"/>
      <point x="443" y="315"/>
      <point x="441" y="289" type="curve" smooth="yes"/>
      <point x="439" y="262"/>
      <point x="432" y="246"/>
      <point x="424" y="233" type="curve" smooth="yes"/>
      <point x="414" y="217"/>
      <point x="402" y="206"/>
      <point x="385" y="206" type="curve" smooth="yes"/>
    </contour>
  </outline>
</glyph>
<glyph name="A" format="1">
  <advance width="648"/>
  <unicode hex="0041"/>
  <outline>
    <contour>
      <point x="197" y="0" type="line"/>
      <point x="324" y="488" type="line"/>
      <point x="451" y="0" type="line"/>
      <point x="639" y="0" type="line"/>
      <point x="429" y="700" type="line"/>
      <point x="219" y="700" type="line"/>
      <point x="9" y="0" type="line"/>
    </contour>
    <contour>
      <point x="490" y="95" type="line"/>
      <point x="490" y="239" type="line"/>
      <point x="155" y="239" type="line"/>
      <point x="155" y="95" type="line"/>
    </contour>
    <contour>
      <point x="322" y="700" type="move" name="top"/>
    </contour>
  </outline>
</glyph>
<glyph name="B" format="1">
  <advance width="622"/>
  <unicode hex="0042"/>
  <outline>
    <contour>
      <point x="227" y="539" type="line"/>
      <point x="327" y="539" type="line"/>
      <point x="372" y="539"/>
      <point x="400" y="516"/>
      <point x="400" y="484" type="curve" smooth="yes"/>
      <point x="400" y="451"/>
      <point x="370" y="429"/>
      <point x="327" y="429" type="curve"/>
      <point x="227" y="429" type="line"/>
    </contour>
    <contour>
      <point x="241" y="323" type="line" smooth="yes"/>
      <point x="466" y="321"/>
      <point x="584" y="360"/>
      <point x="584" y="502" type="curve" smooth="yes"/>
      <point x="584" y="650"/>
      <point x="490" y="700"/>
      <point x="327" y="700" type="curve"/>
      <point x="39" y="700" type="line"/>
      <point x="39" y="325" type="line"/>
    </contour>
    <contour>
      <point x="227" y="276" type="line"/>
      <point x="337" y="276" type="line" smooth="yes"/>
      <point x="376" y="276"/>
      <point x="407" y="253"/>
      <point x="407" y="220" type="curve" smooth="yes"/>
      <point x="407" y="189"/>
      <point x="380" y="161"/>
      <point x="336" y="161" type="curve" smooth="yes"/>
      <point x="227" y="161" type="line"/>
    </contour>
    <contour>
      <point x="336" y="0" type="line" smooth="yes"/>
      <point x="478" y="0"/>
      <point x="595" y="55"/>
      <point x="595" y="200" type="curve" smooth="yes"/>
      <point x="595" y="376"/>
      <point x="417" y="403"/>
      <point x="239" y="403" type="curve"/>
      <point x="39" y="401" type="line"/>
      <point x="39" y="0" type="line"/>
    </contour>
  </outline>
</glyph>
<glyph name="C" format="1">
  <advance width="542"/>
  <unicode hex="0043"/>
  <outline>
    <contour>
      <point x="428" y="-8"/>
      <point x="530" y="79"/>
      <point x="530" y="215" type="curve" smooth="yes"/>
      <point x="530" y="224" type="line"/>
      <point x="342" y="231" type="line"/>
      <point x="342" y="219" type="line" smooth="yes"/>
      <point x="342" y="178"/>
      <point x="315" y="150"/>
      <point x="274" y="150" type="curve" smooth="yes"/>
      <point x="233" y="150"/>
      <point x="206" y="178"/>
      <point x="206" y="219" type="curve" smooth="yes"/>
      <point x="206" y="482" type="line" smooth="yes"/>
      <point x="206" y="524"/>
      <point x="233" y="552"/>
      <point x="274" y="552" type="curve" smooth="yes"/>
      <point x="315" y="552"/>
      <point x="342" y="524"/>
      <point x="342" y="482" type="curve" smooth="yes"/>
      <point x="342" y="470" type="line"/>
      <point x="530" y="477" type="line"/>
      <point x="530" y="487" type="line" smooth="yes"/>
      <point x="530" y="623"/>
      <point x="428" y="708"/>
      <point x="274" y="708" type="curve" smooth="yes"/>
      <point x="120" y="708"/>
      <point x="18" y="617"/>
      <point x="18" y="472" type="curve" smooth="yes"/>
      <point x="18" y="230" type="line" smooth="yes"/>
      <point x="18" y="85"/>
      <point x="120" y="-8"/>
      <point x="274" y="-8" type="curve" smooth="yes"/>
    </contour>
    <contour>
      <point x="274" y="708" type="move" name="top"/>
    </contour>
  </outline>
</glyph>
<glyph name="D" format="1">
  <advance width="552"/>
  <unicode hex="0044"/>
  <outline>
    <contour>
      <point x="268" y="0" type="line" smooth="yes"/>
      <point x="437" y="0"/>
      <point x="532" y="74"/>
      <point x="532" y="205" type="curve" smooth="yes"/>
      <point x="532" y="495" type="line" smooth="yes"/>
      <point x="532" y="626"/>
      <point x="437" y="700"/>
      <point x="268" y="700" type="curve" smooth="yes"/>
      <point x="26" y="700" type="line"/>
      <point x="26" y="0" type="line"/>
    </contour>
    <contour>
      <point x="214" y="539" type="line"/>
      <point x="274" y="539" type="line" smooth="yes"/>
      <point x="319" y="539"/>
      <point x="344" y="512"/>
      <point x="344" y="463" type="curve"/>
      <point x="344" y="237" type="line"/>
      <point x="342" y="189"/>
      <point x="317" y="161"/>
      <point x="275" y="161" type="curve" smooth="yes"/>
      <point x="214" y="161" type="line"/>
    </contour>
  </outline>
</glyph>
<glyph name="E" format="1">
  <advance width="524"/>
  <unicode hex="0045"/>
  <outline>
    <contour>
      <point x="506" y="0" type="line"/>
      <point x="506" y="161" type="line"/>
      <point x="224" y="161" type="line"/>
      <point x="224" y="539" type="line"/>
      <point x="506" y="539" type="line"/>
      <point x="506" y="700" type="line"/>
      <point x="36" y="700" type="line"/>
      <point x="36" y="0" type="line"/>
    </contour>
    <contour>
      <point x="392" y="275" type="line"/>
      <point x="392" y="435" type="line"/>
      <point x="112" y="435" type="line"/>
      <point x="112" y="275" type="line"/>
    </contour>
    <contour>
      <point x="273" y="713" type="move" name="top"/>
    </contour>
  </outline>
</glyph>
<glyph name="F" format="1">
  <advance width="534"/>
  <unicode hex="0046"/>
  <outline>
    <contour>
      <point x="227" y="0" type="line"/>
      <point x="227" y="539" type="line"/>
      <point x="525" y="539" type="line"/>
      <point x="525" y="700" type="line"/>
      <point x="39" y="700" type="line"/>
      <point x="39" y="0" type="line"/>
    </contour>
    <contour>
      <point x="412" y="275" type="line"/>
      <point x="412" y="435" type="line"/>
      <point x="115" y="435" type="line"/>
      <point x="115" y="275" type="line"/>
    </contour>
  </outline>
</glyph>
<glyph name="G" format="1">
  <advance width="541"/>
  <unicode hex="0047"/>
  <outline>
    <contour>
      <point x="427" y="-8"/>
      <point x="529" y="88"/>
      <point x="529" y="236" type="curve" smooth="yes"/>
      <point x="529" y="399" type="line"/>
      <point x="278" y="399" type="line"/>
      <point x="278" y="254" type="line"/>
      <point x="342" y="254" type="line"/>
      <point x="342" y="227" type="line" smooth="yes"/>
      <point x="342" y="181"/>
      <point x="315" y="150"/>
      <point x="274" y="150" type="curve" smooth="yes"/>
      <point x="233" y="150"/>
      <point x="206" y="181"/>
      <point x="206" y="227" type="curve" smooth="yes"/>
      <point x="206" y="474" type="line" smooth="yes"/>
      <point x="206" y="520"/>
      <point x="233" y="551"/>
      <point x="274" y="551" type="curve" smooth="yes"/>
      <point x="315" y="551"/>
      <point x="342" y="520"/>
      <point x="342" y="474" type="curve" smooth="yes"/>
      <point x="342" y="455" type="line"/>
      <point x="529" y="455" type="line"/>
      <point x="529" y="463" type="line" smooth="yes"/>
      <point x="529" y="612"/>
      <point x="427" y="708"/>
      <point x="274" y="708" type="curve" smooth="yes"/>
      <point x="120" y="708"/>
      <point x="18" y="613"/>
      <point x="18" y="465" type="curve" smooth="yes"/>
      <point x="18" y="236" type="line" smooth="yes"/>
      <point x="18" y="88"/>
      <point x="120" y="-8"/>
      <point x="274" y="-8" type="curve" smooth="yes"/>
    </contour>
  </outline>
</glyph>
<glyph name="H" format="1">
  <advance width="574"/>
  <unicode hex="0048"/>
  <outline>
    <contour>
      <point x="538" y="0" type="line"/>
      <point x="538" y="700" type="line"/>
      <point x="350" y="700" type="line"/>
      <point x="350" y="0" type="line"/>
    </contour>
    <contour>
      <point x="224" y="0" type="line"/>
      <point x="224" y="700" type="line"/>
      <point x="36" y="700" type="line"/>
      <point x="36" y="0" type="line"/>
    </contour>
    <contour>
      <point x="439" y="274" type="line"/>
      <point x="439" y="435" type="line"/>
      <point x="137" y="435" type="line"/>
      <point x="137" y="274" type="line"/>
    </contour>
  </outline>
</glyph>
<glyph name="I" format="1">
  <advance width="266"/>
  <unicode hex="0049"/>
  <outline>
    <contour>
      <point x="39" y="0" type="line"/>
      <point x="227" y="0" type="line"/>
      <point x="227" y="700" type="line"/>
      <point x="39" y="700" type="line"/>
    </contour>
    <contour>
      <point x="133" y="713" type="move" name="top"/>
    </contour>
  </outline>
</glyph>
<glyph name="J" format="1">
  <advance width="540"/>
  <unicode hex="004A"/>
  <outline>
    <contour>
      <point x="412" y="-8"/>
      <point x="514" y="80"/>
      <point x="514" y="212" type="curve" smooth="yes"/>
      <point x="514" y="700" type="line"/>
      <point x="327" y="700" type="line"/>
      <point x="327" y="213" type="line" smooth="yes"/>
      <point x="327" y="177"/>
      <point x="300" y="153"/>
      <point x="260" y="153" type="curve" smooth="yes"/>
      <point x="222" y="153"/>
      <point x="196" y="177"/>
      <point x="196" y="213" type="curve" smooth="yes"/>
      <point x="196" y="280" type="line"/>
      <point x="8" y="280" type="line"/>
      <point x="8" y="212" type="line" smooth="yes"/>
      <point x="8" y="80"/>
      <point x="109" y="-8"/>
      <point x="260" y="-8" type="curve" smooth="yes"/>
    </contour>
  </outline>
</glyph>
<glyph name="K" format="1">
  <advance width="595"/>
  <unicode hex="004B"/>
  <outline>
    <contour>
      <point x="212" y="0" type="line"/>
      <point x="212" y="191" type="line"/>
      <point x="260" y="264" type="line"/>
      <point x="385" y="0" type="line"/>
      <point x="586" y="0" type="line"/>
      <point x="391" y="392" type="line"/>
      <point x="580" y="700" type="line"/>
      <point x="381" y="700" type="line"/>
      <point x="212" y="444" type="line"/>
      <point x="212" y="700" type="line"/>
      <point x="24" y="700" type="line"/>
      <point x="24" y="0" type="line"/>
    </contour>
  </outline>
</glyph>
<glyph name="L" format="1">
  <advance width="516"/>
  <unicode hex="004C"/>
  <outline>
    <contour>
      <point x="513" y="0" type="line"/>
      <point x="513" y="161" type="line"/>
      <point x="224" y="161" type="line"/>
      <point x="224" y="700" type="line"/>
      <point x="36" y="700" type="line"/>
      <point x="36" y="0" type="line"/>
    </contour>
  </outline>
</glyph>
<glyph name="M" format="1">
  <advance width="648"/>
  <unicode hex="004D"/>
  <outline>
    <contour>
      <point x="214" y="0" type="line"/>
      <point x="214" y="414" type="line"/>
      <point x="284" y="292" type="line"/>
      <point x="364" y="292" type="line"/>
      <point x="434" y="414" type="line"/>
      <point x="434" y="0" type="line"/>
      <point x="622" y="0" type="line"/>
      <point x="622" y="700" type="line"/>
      <point x="439" y="700" type="line"/>
      <point x="324" y="512" type="line"/>
      <point x="209" y="700" type="line"/>
      <point x="26" y="700" type="line"/>
      <point x="26" y="0" type="line"/>
    </contour>
  </outline>
</glyph>
<glyph name="N" format="1">
  <advance width="584"/>
  <unicode hex="004E"/>
  <outline>
    <contour>
      <point x="210" y="0" type="line"/>
      <point x="208" y="357" type="line"/>
      <point x="384" y="0" type="line"/>
      <point x="560" y="0" type="line"/>
      <point x="560" y="700" type="line"/>
      <point x="374" y="700" type="line"/>
      <point x="375" y="350" type="line"/>
      <point x="200" y="700" type="line"/>
      <point x="24" y="700" type="line"/>
      <point x="24" y="0" type="line"/>
    </contour>
    <contour>
      <point x="281" y="713" type="move" name="top"/>
    </contour>
  </outline>
</glyph>
<glyph name="O" format="1">
  <advance width="581"/>
  <unicode hex="004F"/>
  <outline>
    <contour>
      <point x="448" y="-12"/>
      <point x="551" y="87"/>
      <point x="551" y="236" type="curve" smooth="yes"/>
      <point x="551" y="464" type="line" smooth="yes"/>
      <point x="551" y="613"/>
      <point x="448" y="708"/>
      <point x="290" y="708" type="curve" smooth="yes"/>
      <point x="132" y="708"/>
      <point x="30" y="613"/>
      <point x="30" y="464" type="curve" smooth="yes"/>
      <point x="30" y="236" type="line" smooth="yes"/>
      <point x="30" y="87"/>
      <point x="132" y="-12"/>
      <point x="290" y="-12" type="curve" smooth="yes"/>
    </contour>
    <contour>
      <point x="245" y="149"/>
      <point x="218" y="180"/>
      <point x="218" y="230" type="curve" smooth="yes"/>
      <point x="218" y="466" type="line" smooth="yes"/>
      <point x="218" y="516"/>
      <point x="245" y="547"/>
      <point x="290" y="547" type="curve" smooth="yes"/>
      <point x="335" y="547"/>
      <point x="363" y="516"/>
      <point x="363" y="466" type="curve" smooth="yes"/>
      <point x="363" y="230" type="line" smooth="yes"/>
      <point x="363" y="180"/>
      <point x="335" y="149"/>
      <point x="290" y="149" type="curve" smooth="yes"/>
    </contour>
    <contour>
      <point x="290" y="708" type="move" name="top"/>
    </contour>
  </outline>
</glyph>
<glyph name="P" format="1">
  <advance width="600"/>
  <unicode hex="0050"/>
  <outline>
    <contour>
      <point x="36" y="0" type="line"/>
      <point x="224" y="0" type="line"/>
      <point x="224" y="539" type="line"/>
      <point x="313" y="539" type="line" smooth="yes"/>
      <point x="362" y="539"/>
      <point x="395" y="510"/>
      <point x="395" y="466" type="curve" smooth="yes"/>
      <point x="395" y="423"/>
      <point x="362" y="395"/>
      <point x="313" y="395" type="curve" smooth="yes"/>
      <point x="207" y="395" type="line"/>
      <point x="207" y="245" type="line"/>
      <point x="335" y="245" type="line" smooth="yes"/>
      <point x="483" y="245"/>
      <point x="582" y="335"/>
      <point x="582" y="470" type="curve" smooth="yes"/>
      <point x="582" y="608"/>
      <point x="487" y="700"/>
      <point x="344" y="700" type="curve" smooth="yes"/>
      <point x="36" y="700" type="line"/>
    </contour>
  </outline>
</glyph>
<glyph name="Q" format="1">
  <advance width="561"/>
  <unicode hex="0051"/>
  <outline>
    <contour>
      <point x="367" y="-87" type="line"/>
      <point x="367" y="113" type="line"/>
      <point x="179" y="113" type="line"/>
      <point x="179" y="-87" type="line"/>
    </contour>
    <contour>
      <point x="234" y="153"/>
      <point x="208" y="184"/>
      <point x="208" y="230" type="curve" smooth="yes"/>
      <point x="208" y="470" type="line" smooth="yes"/>
      <point x="208" y="516"/>
      <point x="234" y="547"/>
      <point x="272" y="547" type="curve" smooth="yes"/>
      <point x="311" y="547"/>
      <point x="337" y="516"/>
      <point x="337" y="470" type="curve" smooth="yes"/>
      <point x="337" y="230" type="line" smooth="yes"/>
      <point x="337" y="184"/>
      <point x="311" y="153"/>
      <point x="272" y="153" type="curve" smooth="yes"/>
    </contour>
    <contour>
      <point x="423" y="-8"/>
      <point x="525" y="85"/>
      <point x="525" y="225" type="curve" smooth="yes"/>
      <point x="525" y="460" type="line" smooth="yes"/>
      <point x="525" y="612"/>
      <point x="423" y="708"/>
      <point x="272" y="708" type="curve" smooth="yes"/>
      <point x="121" y="708"/>
      <point x="20" y="612"/>
      <point x="20" y="460" type="curve" smooth="yes"/>
      <point x="20" y="225" type="line" smooth="yes"/>
      <point x="20" y="85"/>
      <point x="121" y="-8"/>
      <point x="272" y="-8" type="curve" smooth="yes"/>
    </contour>
  </outline>
</glyph>
<glyph name="R" format="1">
  <advance width="600"/>
  <unicode hex="0052"/>
  <outline>
    <contour>
      <point x="227" y="0" type="line"/>
      <point x="227" y="539" type="line"/>
      <point x="316" y="539" type="line" smooth="yes"/>
      <point x="359" y="539"/>
      <point x="388" y="513"/>
      <point x="388" y="475" type="curve" smooth="yes"/>
      <point x="388" y="437"/>
      <point x="359" y="412"/>
      <point x="316" y="412" type="curve" smooth="yes"/>
      <point x="210" y="412" type="line"/>
      <point x="210" y="269" type="line"/>
      <point x="347" y="269" type="line" smooth="yes"/>
      <point x="484" y="269"/>
      <point x="575" y="352"/>
      <point x="575" y="477" type="curve" smooth="yes"/>
      <point x="575" y="611"/>
      <point x="484" y="700"/>
      <point x="347" y="700" type="curve" smooth="yes"/>
      <point x="39" y="700" type="line"/>
      <point x="39" y="0" type="line"/>
    </contour>
    <contour>
      <point x="585" y="0" type="line"/>
      <point x="418" y="349" type="line"/>
      <point x="233" y="349" type="line"/>
      <point x="385" y="0" type="line"/>
    </contour>
    <contour>
      <point x="278" y="700" type="move" name="top"/>
    </contour>
    <contour>
      <point x="292" y="0" type="move" name="bottom"/>
    </contour>
  </outline>
</glyph>
<glyph name="S" format="1">
  <advance width="557"/>
  <unicode hex="0053"/>
  <outline>
    <contour>
      <point x="430" y="-8"/>
      <point x="530" y="72"/>
      <point x="530" y="207" type="curve" smooth="yes"/>
      <point x="530" y="306"/>
      <point x="477" y="360"/>
      <point x="410" y="392" type="curve" smooth="yes"/>
      <point x="321" y="434"/>
      <point x="212" y="439"/>
      <point x="212" y="499" type="curve" smooth="yes"/>
      <point x="212" y="528"/>
      <point x="238" y="547"/>
      <point x="275" y="547" type="curve" smooth="yes"/>
      <point x="316" y="547"/>
      <point x="341" y="524"/>
      <point x="341" y="488" type="curve" smooth="yes"/>
      <point x="341" y="472" type="line"/>
      <point x="526" y="472" type="line"/>
      <point x="526" y="509" type="line" smooth="yes"/>
      <point x="526" y="629"/>
      <point x="427" y="708"/>
      <point x="280" y="708" type="curve" smooth="yes"/>
      <point x="127" y="708"/>
      <point x="27" y="623"/>
      <point x="27" y="488" type="curve" smooth="yes"/>
      <point x="27" y="404"/>
      <point x="66" y="346"/>
      <point x="120" y="311" type="curve" smooth="yes"/>
      <point x="208" y="254"/>
      <point x="342" y="253"/>
      <point x="342" y="194" type="curve" smooth="yes"/>
      <point x="342" y="172"/>
      <point x="323" y="153"/>
      <point x="285" y="153" type="curve" smooth="yes"/>
      <point x="243" y="153"/>
      <point x="216" y="176"/>
      <point x="216" y="210" type="curve" smooth="yes"/>
      <point x="216" y="231" type="line"/>
      <point x="31" y="231" type="line"/>
      <point x="31" y="180" type="line" smooth="yes"/>
      <point x="31" y="67"/>
      <point x="129" y="-8"/>
      <point x="277" y="-8" type="curve" smooth="yes"/>
    </contour>
    <contour>
      <point x="275" y="708" type="move" name="top"/>
    </contour>
    <contour>
      <point x="278" y="-8" type="move" name="bottom"/>
    </contour>
  </outline>
</glyph>
<glyph name="T" format="1">
  <advance width="615"/>
  <unicode hex="0054"/>
  <outline>
    <contour>
      <point x="399" y="0" type="line"/>
      <point x="399" y="689" type="line"/>
      <point x="211" y="689" type="line"/>
      <point x="211" y="0" type="line"/>
    </contour>
    <contour>
      <point x="597" y="538" type="line"/>
      <point x="597" y="700" type="line"/>
      <point x="18" y="700" type="line"/>
      <point x="18" y="538" type="line"/>
    </contour>
  </outline>
</glyph>
<glyph name="U" format="1">
  <advance width="555"/>
  <unicode hex="0055"/>
  <outline>
    <contour>
      <point x="430" y="-8"/>
      <point x="532" y="81"/>
      <point x="532" y="223" type="curve" smooth="yes"/>
      <point x="532" y="700" type="line"/>
      <point x="344" y="700" type="line"/>
      <point x="344" y="223" type="line" smooth="yes"/>
      <point x="344" y="183"/>
      <point x="318" y="153"/>
      <point x="278" y="153" type="curve" smooth="yes"/>
      <point x="238" y="153"/>
      <point x="211" y="183"/>
      <point x="211" y="223" type="curve" smooth="yes"/>
      <point x="211" y="700" type="line"/>
      <point x="23" y="700" type="line"/>
      <point x="23" y="223" type="line" smooth="yes"/>
      <point x="23" y="81"/>
      <point x="125" y="-8"/>
      <point x="278" y="-8" type="curve" smooth="yes"/>
    </contour>
    <contour>
      <point x="278" y="713" type="move" name="top"/>
    </contour>
  </outline>
</glyph>
<glyph name="V" format="1">
  <advance width="645"/>
  <unicode hex="0056"/>
  <outline>
    <contour>
      <point x="224" y="0" type="line"/>
      <point x="419" y="0" type="line"/>
      <point x="627" y="700" type="line"/>
      <point x="429" y="700" type="line"/>
      <point x="326" y="252" type="line"/>
      <point x="220" y="700" type="line"/>
      <point x="18" y="700" type="line"/>
    </contour>
  </outline>
</glyph>
<glyph name="W" format="1">
  <advance width="857"/>
  <unicode hex="0057"/>
  <outline>
    <contour>
      <point x="361" y="0" type="line"/>
      <point x="429" y="372" type="line"/>
      <point x="507" y="0" type="line"/>
      <point x="694" y="0" type="line"/>
      <point x="879" y="700" type="line"/>
      <point x="678" y="700" type="line"/>
      <point x="595" y="348" type="line"/>
      <point x="506" y="700" type="line"/>
      <point x="355" y="700" type="line"/>
      <point x="270" y="348" type="line"/>
      <point x="179" y="700" type="line"/>
      <point x="-22" y="700" type="line"/>
      <point x="185" y="0" type="line"/>
    </contour>
    <contour>
      <point x="429" y="700" type="move" name="top"/>
    </contour>
  </outline>
</glyph>
<glyph name="X" format="1">
  <advance width="619"/>
  <unicode hex="0058"/>
  <outline>
    <contour>
      <point x="222" y="0" type="line"/>
      <point x="310" y="196" type="line"/>
      <point x="398" y="0" type="line"/>
      <point x="601" y="0" type="line"/>
      <point x="422" y="350" type="line"/>
      <point x="601" y="700" type="line"/>
      <point x="397" y="700" type="line"/>
      <point x="310" y="503" type="line"/>
      <point x="223" y="700" type="line"/>
      <point x="18" y="700" type="line"/>
      <point x="198" y="350" type="line"/>
      <point x="18" y="0" type="line"/>
    </contour>
  </outline>
</glyph>
<glyph name="Y" format="1">
  <advance width="599"/>
  <unicode hex="0059"/>
  <outline>
    <contour>
      <point x="392" y="2" type="line"/>
      <point x="392" y="251" type="line"/>
      <point x="587" y="700" type="line"/>
      <point x="382" y="700" type="line"/>
      <point x="299" y="461" type="line"/>
      <point x="216" y="700" type="line"/>
      <point x="12" y="700" type="line"/>
      <point x="205" y="251" type="line"/>
      <point x="205" y="2" type="line"/>
    </contour>
    <contour>
      <point x="299" y="700" type="move" name="top"/>
    </contour>
  </outline>
</glyph>
<glyph name="Z" format="1">
  <advance width="522"/>
  <unicode hex="005A"/>
  <outline>
    <contour>
      <point x="495" y="0" type="line"/>
      <point x="495" y="161" type="line"/>
      <point x="220" y="161" type="line"/>
      <point x="495" y="530" type="line"/>
      <point x="495" y="700" type="line"/>
      <point x="24" y="700" type="line"/>
      <point x="24" y="539" type="line"/>
      <point x="297" y="539" type="line"/>
      <point x="24" y="170" type="line"/>
      <point x="24" y="0" type="line"/>
    </contour>
    <contour>
      <point x="264" y="713" type="move" name="top"/>
    </contour>
  </outline>
</glyph>
<glyph name="bracketleft" format="1">
  <advance width="441"/>
  <unicode hex="005B"/>
  <outline>
    <contour>
      <point x="331" y="-164" type="line"/>
      <point x="331" y="-3" type="line"/>
      <point x="224" y="-3" type="line"/>
      <point x="224" y="657" type="line"/>
      <point x="331" y="657" type="line"/>
      <point x="331" y="818" type="line"/>
      <point x="36" y="818" type="line"/>
      <point x="36" y="-164" type="line"/>
    </contour>
  </outline>
</glyph>
<glyph name="asciicircum" format="1">
  <advance width="478"/>
  <unicode hex="005E"/>
  <outline>
    <contour>
      <point x="174" y="291" type="line"/>
      <point x="239" y="514" type="line"/>
      <point x="304" y="291" type="line"/>
      <point x="461" y="291" type="line"/>
      <point x="315" y="700" type="line"/>
      <point x="160" y="700" type="line"/>
      <point x="17" y="291" type="line"/>
    </contour>
  </outline>
</glyph>
<glyph name="underscore" format="1">
  <advance width="549"/>
  <unicode hex="005F"/>
  <outline>
    <contour>
      <point x="12" y="0" type="line"/>
      <point x="537" y="0" type="line"/>
      <point x="537" y="125" type="line"/>
      <point x="12" y="125" type="line"/>
    </contour>
  </outline>
</glyph>
<glyph name="grave" format="1">
  <advance width="268"/>
  <unicode hex="0060"/>
  <outline>
    <component base="gravecomb" xOffset="9"/>
    <contour>
      <point x="129" y="520" type="move" name="_top"/>
    </contour>
  </outline>
</glyph>
<glyph name="a" format="1">
  <advance width="552"/>
  <unicode hex="0061"/>
  <outline>
    <contour>
      <point x="519" y="0" type="line"/>
      <point x="519" y="355" type="line" smooth="yes"/>
      <point x="519" y="451"/>
      <point x="410" y="528"/>
      <point x="271" y="528" type="curve" smooth="yes"/>
      <point x="132" y="528"/>
      <point x="31" y="452"/>
      <point x="30" y="356" type="curve"/>
      <point x="218" y="332" type="line"/>
      <point x="219" y="352"/>
      <point x="242" y="367"/>
      <point x="274" y="367" type="curve" smooth="yes"/>
      <point x="309" y="367"/>
      <point x="331" y="348"/>
      <point x="331" y="320" type="curve" smooth="yes"/>
      <point x="331" y="0" type="line"/>
    </contour>
    <contour>
      <point x="320" y="-8"/>
      <point x="365" y="47"/>
      <point x="365" y="182" type="curve"/>
      <point x="365" y="305" type="line"/>
      <point x="233" y="305" type="line"/>
      <point x="95" y="305"/>
      <point x="24" y="246"/>
      <point x="24" y="142" type="curve" smooth="yes"/>
      <point x="24" y="39"/>
      <point x="93" y="-8"/>
      <point x="202" y="-8" type="curve" smooth="yes"/>
    </contour>
    <contour>
      <point x="228" y="115"/>
      <point x="213" y="127"/>
      <point x="213" y="153" type="curve" smooth="yes"/>
      <point x="213" y="183"/>
      <point x="234" y="196"/>
      <point x="276" y="196" type="curve"/>
      <point x="331" y="196" type="line"/>
      <point x="331" y="180" type="line" smooth="yes"/>
      <point x="331" y="138"/>
      <point x="300" y="115"/>
      <point x="258" y="115" type="curve" smooth="yes"/>
    </contour>
    <contour>
      <point x="275" y="528" type="move" name="top"/>
    </contour>
  </outline>
</glyph>
<glyph name="b" format="1">
  <advance width="549"/>
  <unicode hex="0062"/>
  <outline>
    <contour>
      <point x="221" y="0" type="line"/>
      <point x="221" y="700" type="line"/>
      <point x="33" y="700" type="line"/>
      <point x="33" y="0" type="line"/>
    </contour>
    <component base="b.bowl" xOffset="162"/>
  </outline>
</glyph>
<glyph name="c" format="1">
  <advance width="540"/>
  <unicode hex="0063"/>
  <outline>
    <contour>
      <point x="382" y="-8"/>
      <point x="476" y="46"/>
      <point x="512" y="144" type="curve" smooth="yes"/>
      <point x="519" y="164"/>
      <point x="520" y="185"/>
      <point x="520" y="189" type="curve"/>
      <point x="335" y="219" type="line"/>
      <point x="334" y="208"/>
      <point x="333" y="202"/>
      <point x="332" y="199" type="curve" smooth="yes"/>
      <point x="322" y="167"/>
      <point x="299" y="153"/>
      <point x="275" y="153" type="curve" smooth="yes"/>
      <point x="250" y="153"/>
      <point x="227" y="169"/>
      <point x="218" y="193" type="curve" smooth="yes"/>
      <point x="211" y="211"/>
      <point x="208" y="234"/>
      <point x="208" y="262" type="curve" smooth="yes"/>
      <point x="208" y="288"/>
      <point x="211" y="310"/>
      <point x="218" y="327" type="curve" smooth="yes"/>
      <point x="228" y="351"/>
      <point x="251" y="367"/>
      <point x="275" y="367" type="curve" smooth="yes"/>
      <point x="302" y="367"/>
      <point x="325" y="349"/>
      <point x="332" y="327" type="curve" smooth="yes"/>
      <point x="335" y="318"/>
      <point x="337" y="305"/>
      <point x="338" y="298" type="curve"/>
      <point x="522" y="327" type="line"/>
      <point x="522" y="329"/>
      <point x="523" y="349"/>
      <point x="512" y="379" type="curve" smooth="yes"/>
      <point x="482" y="462"/>
      <point x="390" y="528"/>
      <point x="276" y="528" type="curve" smooth="yes"/>
      <point x="166" y="528"/>
      <point x="75" y="471"/>
      <point x="38" y="376" type="curve" smooth="yes"/>
      <point x="27" y="348"/>
      <point x="18" y="310"/>
      <point x="18" y="263" type="curve" smooth="yes"/>
      <point x="18" y="225"/>
      <point x="24" y="185"/>
      <point x="38" y="149" type="curve" smooth="yes"/>
      <point x="76" y="51"/>
      <point x="165" y="-8"/>
      <point x="276" y="-8" type="curve" smooth="yes"/>
    </contour>
    <contour>
      <point x="273" y="528" type="move" name="top"/>
    </contour>
  </outline>
</glyph>
<glyph name="e" format="1">
  <advance width="551"/>
  <unicode hex="0065"/>
  <outline>
    <contour>
      <point x="394" y="-8"/>
      <point x="492" y="49"/>
      <point x="522" y="178" type="curve"/>
      <point x="337" y="195" type="line"/>
      <point x="325" y="173"/>
      <point x="310" y="153"/>
      <point x="282" y="153" type="curve" smooth="yes"/>
      <point x="258" y="153"/>
      <point x="239" y="163"/>
      <point x="228" y="184" type="curve" smooth="yes"/>
      <point x="219" y="202"/>
      <point x="214" y="228"/>
      <point x="214" y="262" type="curve" smooth="yes"/>
      <point x="214" y="295"/>
      <point x="219" y="320"/>
      <point x="228" y="337" type="curve" smooth="yes"/>
      <point x="239" y="357"/>
      <point x="256" y="367"/>
      <point x="278" y="367" type="curve" smooth="yes"/>
      <point x="300" y="367"/>
      <point x="316" y="358"/>
      <point x="327" y="337" type="curve" smooth="yes"/>
      <point x="336" y="320"/>
      <point x="342" y="295"/>
      <point x="342" y="262" type="curve"/>
      <point x="410" y="303" type="line"/>
      <point x="164" y="303" type="line"/>
      <point x="164" y="217" type="line"/>
      <point x="531" y="217" type="line"/>
      <point x="531" y="281"/>
      <point x="535" y="317"/>
      <point x="512" y="376" type="curve" smooth="yes"/>
      <point x="472" y="477"/>
      <point x="381" y="528"/>
      <point x="279" y="528" type="curve" smooth="yes"/>
      <point x="171" y="528"/>
      <point x="83" y="470"/>
      <point x="46" y="376" type="curve" smooth="yes"/>
      <point x="33" y="343"/>
      <point x="26" y="304"/>
      <point x="26" y="262" type="curve" smooth="yes"/>
      <point x="26" y="223"/>
      <point x="32" y="185"/>
      <point x="46" y="149" type="curve" smooth="yes"/>
      <point x="84" y="52"/>
      <point x="170" y="-8"/>
      <point x="278" y="-8" type="curve" smooth="yes"/>
    </contour>
    <contour>
      <point x="276" y="528" type="move" name="top"/>
    </contour>
    <contour>
      <point x="289" y="-9" type="move" name="bottom"/>
    </contour>
  </outline>
</glyph>
<glyph name="f" format="1">
  <advance width="388"/>
  <unicode hex="0066"/>
  <outline>
    <contour>
      <point x="271" y="0" type="line"/>
      <point x="271" y="539" type="line" smooth="yes"/>
      <point x="271" y="562"/>
      <point x="281" y="572"/>
      <point x="308" y="575" type="curve"/>
      <point x="365" y="575" type="line"/>
      <point x="365" y="700" type="line"/>
      <point x="308" y="700" type="line"/>
      <point x="146" y="708"/>
      <point x="83" y="668"/>
      <point x="83" y="556" type="curve" smooth="yes"/>
      <point x="83" y="0" type="line"/>
    </contour>
    <contour>
      <point x="379" y="370" type="line"/>
      <point x="379" y="520" type="line"/>
      <point x="12" y="520" type="line"/>
      <point x="12" y="370" type="line"/>
    </contour>
  </outline>
</glyph>
<glyph name="g" format="1">
  <advance width="569"/>
  <unicode hex="0067"/>
  <outline>
    <contour>
      <point x="285" y="-257"/>
      <point x="536" y="-222"/>
      <point x="536" y="64" type="curve" smooth="yes"/>
      <point x="536" y="520" type="line"/>
      <point x="348" y="520" type="line"/>
      <point x="348" y="51" type="line" smooth="yes"/>
      <point x="348" y="-51"/>
      <point x="277" y="-67"/>
      <point x="154" y="-44" type="curve"/>
      <point x="146" y="-200" type="line"/>
    </contour>
    <contour>
      <point x="371" y="0"/>
      <point x="383" y="101"/>
      <point x="390" y="192" type="curve" smooth="yes"/>
      <point x="392" y="218"/>
      <point x="395" y="237"/>
      <point x="395" y="266" type="curve" smooth="yes"/>
      <point x="395" y="293"/>
      <point x="394" y="303"/>
      <point x="392" y="327" type="curve" smooth="yes"/>
      <point x="383" y="438"/>
      <point x="355" y="528"/>
      <point x="237" y="528" type="curve" smooth="yes"/>
      <point x="145" y="528"/>
      <point x="78" y="474"/>
      <point x="44" y="390" type="curve" smooth="yes"/>
      <point x="28" y="350"/>
      <point x="20" y="305"/>
      <point x="20" y="260" type="curve" smooth="yes"/>
      <point x="20" y="229"/>
      <point x="24" y="190"/>
      <point x="38" y="150" type="curve" smooth="yes"/>
      <point x="78" y="37"/>
      <point x="172" y="0"/>
      <point x="242" y="0" type="curve"/>
    </contour>
    <contour>
      <point x="255" y="153"/>
      <point x="237" y="164"/>
      <point x="225" y="186" type="curve" smooth="yes"/>
      <point x="216" y="203"/>
      <point x="212" y="227"/>
      <point x="212" y="257" type="curve" smooth="yes"/>
      <point x="212" y="289"/>
      <point x="217" y="314"/>
      <point x="226" y="332" type="curve" smooth="yes"/>
      <point x="237" y="355"/>
      <point x="256" y="367"/>
      <point x="282" y="367" type="curve" smooth="yes"/>
      <point x="308" y="367"/>
      <point x="326" y="354"/>
      <point x="337" y="330" type="curve" smooth="yes"/>
      <point x="345" y="313"/>
      <point x="348" y="290"/>
      <point x="348" y="262" type="curve" smooth="yes"/>
      <point x="348" y="230"/>
      <point x="344" y="205"/>
      <point x="335" y="187" type="curve" smooth="yes"/>
      <point x="324" y="165"/>
      <point x="305" y="153"/>
      <point x="280" y="153" type="curve" smooth="yes"/>
    </contour>
    <contour>
      <point x="299" y="529" type="move" name="top"/>
    </contour>
  </outline>
</glyph>
<glyph name="h" format="1">
  <advance width="555"/>
  <unicode hex="0068"/>
  <outline>
    <contour>
      <point x="221" y="0" type="line"/>
      <point x="221" y="700" type="line"/>
      <point x="33" y="700" type="line"/>
      <point x="33" y="0" type="line"/>
    </contour>
    <component base="n.curve" xOffset="182"/>
  </outline>
</glyph>
<glyph name="i" format="1">
  <advance width="262"/>
  <unicode hex="0069"/>
  <outline>
    <contour>
      <point x="224" y="0" type="line"/>
      <point x="224" y="520" type="line"/>
      <point x="36" y="520" type="line"/>
      <point x="36" y="0" type="line"/>
    </contour>
    <contour>
      <point x="195" y="536"/>
      <point x="238" y="578"/>
      <point x="238" y="641" type="curve" smooth="yes"/>
      <point x="238" y="704"/>
      <point x="195" y="746"/>
      <point x="130" y="746" type="curve" smooth="yes"/>
      <point x="66" y="746"/>
      <point x="22" y="704"/>
      <point x="22" y="641" type="curve" smooth="yes"/>
      <point x="22" y="578"/>
      <point x="66" y="536"/>
      <point x="130" y="536" type="curve" smooth="yes"/>
    </contour>
  </outline>
</glyph>
<glyph name="j" format="1">
  <advance width="264"/>
  <unicode hex="006A"/>
  <outline>
    <contour>
      <point x="-76" y="-201" type="line"/>
      <point x="170" y="-209"/>
      <point x="231" y="-163"/>
      <point x="231" y="29" type="curve" smooth="yes"/>
      <point x="231" y="520" type="line"/>
      <point x="43" y="520" type="line"/>
      <point x="43" y="26" type="line" smooth="yes"/>
      <point x="43" y="-38"/>
      <point x="19" y="-52"/>
      <point x="-76" y="-44" type="curve"/>
    </contour>
    <contour>
      <point x="137" y="536" type="curve" smooth="yes"/>
      <point x="200" y="536"/>
      <point x="245" y="583"/>
      <point x="245" y="641" type="curve" smooth="yes"/>
      <point x="245" y="699"/>
      <point x="192" y="746"/>
      <point x="137" y="746" type="curve" smooth="yes"/>
      <point x="81" y="746"/>
      <point x="29" y="699"/>
      <point x="29" y="641" type="curve" smooth="yes"/>
      <point x="29" y="583"/>
      <point x="72" y="536"/>
    </contour>
  </outline>
</glyph>
<glyph name="k" format="1">
  <advance width="551"/>
  <unicode hex="006B"/>
  <outline>
    <contour>
      <point x="221" y="0" type="line"/>
      <point x="221" y="155" type="line"/>
      <point x="260" y="211" type="line"/>
      <point x="349" y="0" type="line"/>
      <point x="543" y="0" type="line"/>
      <point x="389" y="325" type="line"/>
      <point x="533" y="520" type="line"/>
      <point x="319" y="520" type="line"/>
      <point x="221" y="379" type="line"/>
      <point x="221" y="700" type="line"/>
      <point x="33" y="700" type="line"/>
      <point x="33" y="0" type="line"/>
    </contour>
    <contour>
      <point x="282" y="0" type="move" name="bottom"/>
    </contour>
  </outline>
</glyph>
<glyph name="l" format="1">
  <advance width="257"/>
  <unicode hex="006C"/>
  <outline>
    <contour>
      <point x="221" y="0" type="line"/>
      <point x="221" y="700" type="line"/>
      <point x="33" y="700" type="line"/>
      <point x="33" y="0" type="line"/>
    </contour>
  </outline>
</glyph>
<glyph name="m" format="1">
  <advance width="845"/>
  <unicode hex="006D"/>
  <outline>
    <contour>
      <point x="815" y="0" type="line"/>
      <point x="815" y="341" type="line" smooth="yes"/>
      <point x="815" y="460"/>
      <point x="753" y="528"/>
      <point x="648" y="528" type="curve" smooth="yes"/>
      <point x="550" y="528"/>
      <point x="485" y="460"/>
      <point x="485" y="300" type="curve"/>
      <point x="521" y="300" type="line"/>
      <point x="521" y="340"/>
      <point x="543" y="367"/>
      <point x="575" y="367" type="curve" smooth="yes"/>
      <point x="606" y="367"/>
      <point x="627" y="340"/>
      <point x="627" y="300" type="curve" smooth="yes"/>
      <point x="627" y="0" type="line"/>
    </contour>
    <contour>
      <point x="221" y="0" type="line"/>
      <point x="221" y="520" type="line"/>
      <point x="33" y="520" type="line"/>
      <point x="33" y="0" type="line"/>
    </contour>
    <contour>
      <point x="521" y="0" type="line"/>
      <point x="521" y="341" type="line" smooth="yes"/>
      <point x="521" y="460"/>
      <point x="455" y="528"/>
      <point x="355" y="528" type="curve" smooth="yes"/>
      <point x="247" y="528"/>
      <point x="198" y="450"/>
      <point x="198" y="300" type="curve"/>
      <point x="220" y="300" type="line"/>
      <point x="220" y="340"/>
      <point x="243" y="367"/>
      <point x="277" y="367" type="curve" smooth="yes"/>
      <point x="310" y="367"/>
      <point x="333" y="340"/>
      <point x="333" y="300" type="curve" smooth="yes"/>
      <point x="333" y="0" type="line"/>
    </contour>
  </outline>
</glyph>
<glyph name="n" format="1">
  <advance width="552"/>
  <unicode hex="006E"/>
  <outline>
    <contour>
      <point x="221" y="0" type="line"/>
      <point x="221" y="520" type="line"/>
      <point x="33" y="520" type="line"/>
      <point x="33" y="0" type="line"/>
    </contour>
    <component base="n.curve" xOffset="182"/>
    <contour>
      <point x="284" y="520" type="move" name="top"/>
    </contour>
  </outline>
</glyph>
<glyph name="o" format="1">
  <advance width="550"/>
  <unicode hex="006F"/>
  <outline>
    <contour>
      <point x="385" y="-8"/>
      <point x="473" y="55"/>
      <point x="509" y="149" type="curve" smooth="yes"/>
      <point x="521" y="180"/>
      <point x="529" y="218"/>
      <point x="529" y="263" type="curve" smooth="yes"/>
      <point x="529" y="304"/>
      <point x="522" y="343"/>
      <point x="509" y="376" type="curve" smooth="yes"/>
      <point x="469" y="477"/>
      <point x="378" y="528"/>
      <point x="276" y="528" type="curve" smooth="yes"/>
      <point x="167" y="528"/>
      <point x="78" y="470"/>
      <point x="41" y="376" type="curve" smooth="yes"/>
      <point x="28" y="343"/>
      <point x="21" y="304"/>
      <point x="21" y="262" type="curve" smooth="yes"/>
      <point x="21" y="223"/>
      <point x="27" y="185"/>
      <point x="41" y="149" type="curve" smooth="yes"/>
      <point x="79" y="52"/>
      <point x="167" y="-8"/>
      <point x="275" y="-8" type="curve" smooth="yes"/>
    </contour>
    <contour>
      <point x="253" y="153"/>
      <point x="230" y="169"/>
      <point x="221" y="193" type="curve" smooth="yes"/>
      <point x="214" y="211"/>
      <point x="211" y="234"/>
      <point x="211" y="262" type="curve" smooth="yes"/>
      <point x="211" y="288"/>
      <point x="214" y="310"/>
      <point x="221" y="327" type="curve" smooth="yes"/>
      <point x="231" y="351"/>
      <point x="254" y="367"/>
      <point x="275" y="367" type="curve" smooth="yes"/>
      <point x="296" y="367"/>
      <point x="319" y="351"/>
      <point x="329" y="327" type="curve" smooth="yes"/>
      <point x="336" y="310"/>
      <point x="339" y="288"/>
      <point x="339" y="262" type="curve" smooth="yes"/>
      <point x="339" y="234"/>
      <point x="335" y="210"/>
      <point x="329" y="193" type="curve" smooth="yes"/>
      <point x="321" y="169"/>
      <point x="298" y="153"/>
      <point x="275" y="153" type="curve" smooth="yes"/>
    </contour>
    <contour>
      <point x="275" y="528" type="move" name="top"/>
    </contour>
  </outline>
</glyph>
<glyph name="r" format="1">
  <advance width="400"/>
  <unicode hex="0072"/>
  <outline>
    <contour>
      <point x="221" y="273" type="line"/>
      <point x="221" y="307"/>
      <point x="255" y="326"/>
      <point x="284" y="332" type="curve" smooth="yes"/>
      <point x="317" y="339"/>
      <point x="351" y="332"/>
      <point x="359" y="325" type="curve"/>
      <point x="388" y="507" type="line"/>
      <point x="379" y="516"/>
      <point x="359" y="527"/>
      <point x="325" y="527" type="curve" smooth="yes"/>
      <point x="207" y="527"/>
      <point x="173" y="394"/>
      <point x="173" y="273" type="curve"/>
    </contour>
    <contour>
      <point x="221" y="1" type="line"/>
      <point x="221" y="520" type="line"/>
      <point x="33" y="520" type="line"/>
      <point x="33" y="1" type="line"/>
    </contour>
  </outline>
</glyph>
<glyph name="s" format="1">
  <advance width="523"/>
  <unicode hex="0073"/>
  <outline>
    <contour>
      <point x="405" y="-8"/>
      <point x="502" y="49"/>
      <point x="502" y="155" type="curve" smooth="yes"/>
      <point x="502" y="230"/>
      <point x="467" y="272"/>
      <point x="391" y="299" type="curve" smooth="yes"/>
      <point x="306" y="329"/>
      <point x="208" y="317"/>
      <point x="208" y="355" type="curve" smooth="yes"/>
      <point x="208" y="373"/>
      <point x="231" y="383"/>
      <point x="260" y="383" type="curve" smooth="yes"/>
      <point x="294" y="383"/>
      <point x="315" y="369"/>
      <point x="315" y="347" type="curve" smooth="yes"/>
      <point x="315" y="336" type="line"/>
      <point x="490" y="336" type="line"/>
      <point x="490" y="347" type="line" smooth="yes"/>
      <point x="490" y="456"/>
      <point x="398" y="528"/>
      <point x="256" y="528" type="curve" smooth="yes"/>
      <point x="121" y="528"/>
      <point x="28" y="459"/>
      <point x="28" y="356" type="curve" smooth="yes"/>
      <point x="28" y="287"/>
      <point x="63" y="250"/>
      <point x="114" y="223" type="curve" smooth="yes"/>
      <point x="196" y="180"/>
      <point x="313" y="193"/>
      <point x="313" y="159" type="curve" smooth="yes"/>
      <point x="313" y="142"/>
      <point x="294" y="130"/>
      <point x="262" y="130" type="curve" smooth="yes"/>
      <point x="228" y="130"/>
      <point x="201" y="144"/>
      <point x="201" y="166" type="curve" smooth="yes"/>
      <point x="201" y="177" type="line"/>
      <point x="21" y="177" type="line"/>
      <point x="21" y="153" type="line"/>
      <point x="21" y="56"/>
      <point x="115" y="-8"/>
      <point x="264" y="-8" type="curve" smooth="yes"/>
    </contour>
    <contour>
      <point x="256" y="528" type="move" name="top"/>
    </contour>
  </outline>
</glyph>
<glyph name="t" format="1">
  <advance width="396"/>
  <unicode hex="0074"/>
  <outline>
    <contour>
      <point x="363" y="5" type="line"/>
      <point x="363" y="162" type="line"/>
      <point x="311" y="164" type="line"/>
      <point x="284" y="165"/>
      <point x="275" y="185"/>
      <point x="275" y="214" type="curve"/>
      <point x="275" y="660" type="line"/>
      <point x="95" y="660" type="line"/>
      <point x="95" y="136" type="line"/>
      <point x="96" y="37"/>
      <point x="163" y="-2"/>
      <point x="260" y="0" type="curve"/>
    </contour>
    <contour>
      <point x="378" y="370" type="line"/>
      <point x="378" y="520" type="line"/>
      <point x="21" y="520" type="line"/>
      <point x="21" y="370" type="line"/>
    </contour>
  </outline>
</glyph>
<glyph name="u" format="1">
  <advance width="552"/>
  <unicode hex="0075"/>
  <outline>
    <contour>
      <point x="339" y="-8"/>
      <point x="366" y="93"/>
      <point x="366" y="220" type="curve"/>
      <point x="331" y="220" type="line"/>
      <point x="331" y="180"/>
      <point x="310" y="153"/>
      <point x="274" y="153" type="curve" smooth="yes"/>
      <point x="228" y="153"/>
      <point x="218" y="181"/>
      <point x="218" y="221" type="curve" smooth="yes"/>
      <point x="218" y="520" type="line"/>
      <point x="30" y="520" type="line"/>
      <point x="30" y="158" type="line" smooth="yes"/>
      <point x="30" y="31"/>
      <point x="135" y="-8"/>
      <point x="207" y="-8" type="curve" smooth="yes"/>
    </contour>
    <contour>
      <point x="519" y="0" type="line"/>
      <point x="519" y="520" type="line"/>
      <point x="331" y="520" type="line"/>
      <point x="331" y="0" type="line"/>
    </contour>
    <contour>
      <point x="274" y="520" type="move" name="top"/>
    </contour>
    <contour>
      <point x="275" y="0" type="move" name="bottom"/>
    </contour>
  </outline>
</glyph>
<glyph name="v" format="1">
  <advance width="538"/>
  <unicode hex="0076"/>
  <outline>
    <contour>
      <point x="371" y="0" type="line"/>
      <point x="532" y="518" type="line"/>
      <point x="328" y="520" type="line"/>
      <point x="269" y="245" type="line"/>
      <point x="210" y="520" type="line"/>
      <point x="6" y="520" type="line"/>
      <point x="168" y="0" type="line"/>
    </contour>
  </outline>
</glyph>
<glyph name="w" format="1">
  <advance width="806"/>
  <unicode hex="0077"/>
  <outline>
    <contour>
      <point x="349" y="0" type="line"/>
      <point x="399" y="223" type="line"/>
      <point x="461" y="0" type="line"/>
      <point x="644" y="0" type="line"/>
      <point x="800" y="518" type="line"/>
      <point x="606" y="520" type="line"/>
      <point x="548" y="251" type="line"/>
      <point x="483" y="519" type="line"/>
      <point x="313" y="519" type="line"/>
      <point x="255" y="251" type="line"/>
      <point x="200" y="520" type="line"/>
      <point x="6" y="520" type="line"/>
      <point x="159" y="0" type="line"/>
    </contour>
  </outline>
</glyph>
<glyph name="x" format="1">
  <advance width="538"/>
  <unicode hex="0078"/>
  <outline>
    <contour>
      <point x="217" y="0" type="line"/>
      <point x="275" y="96" type="line"/>
      <point x="333" y="0" type="line"/>
      <point x="535" y="0" type="line"/>
      <point x="379" y="260" type="line"/>
      <point x="535" y="520" type="line"/>
      <point x="321" y="520" type="line"/>
      <point x="263" y="428" type="line"/>
      <point x="205" y="520" type="line"/>
      <point x="3" y="520" type="line"/>
      <point x="159" y="260" type="line"/>
      <point x="3" y="0" type="line"/>
    </contour>
  </outline>
</glyph>
<glyph name="y" format="1">
  <advance width="522"/>
  <unicode hex="0079"/>
  <outline>
    <contour>
      <point x="45" y="-199" type="line"/>
      <point x="261" y="-199"/>
      <point x="303" y="-140"/>
      <point x="350" y="-2" type="curve"/>
      <point x="519" y="520" type="line"/>
      <point x="318" y="520" type="line"/>
      <point x="262" y="252" type="line"/>
      <point x="203" y="520" type="line"/>
      <point x="3" y="520" type="line"/>
      <point x="167" y="0" type="line"/>
      <point x="164" y="-40"/>
      <point x="125" y="-45"/>
      <point x="42" y="-45" type="curve"/>
      <point x="31" y="-45" type="line"/>
      <point x="31" y="-199" type="line"/>
    </contour>
    <contour>
      <point x="260" y="533" type="move" name="top"/>
    </contour>
  </outline>
</glyph>
<glyph name="z" format="1">
  <advance width="449"/>
  <unicode hex="007A"/>
  <outline>
    <contour>
      <point x="440" y="0" type="line"/>
      <point x="440" y="170" type="line"/>
      <point x="223" y="170" type="line"/>
      <point x="432" y="350" type="line"/>
      <point x="432" y="520" type="line"/>
      <point x="16" y="520" type="line"/>
      <point x="16" y="350" type="line"/>
      <point x="209" y="350" type="line"/>
      <point x="9" y="170" type="line"/>
      <point x="9" y="0" type="line"/>
    </contour>
    <contour>
      <point x="223" y="533" type="move" name="top"/>
    </contour>
  </outline>
</glyph>
<glyph name="braceleft" format="1">
  <advance width="425"/>
  <unicode hex="007B"/>
  <outline>
    <contour>
      <point x="266" y="-164" type="curve" smooth="yes"/>
      <point x="389" y="-164" type="line"/>
      <point x="389" y="-3" type="line"/>
      <point x="356" y="-3" type="line" smooth="yes"/>
      <point x="327" y="-3"/>
      <point x="304" y="21"/>
      <point x="304" y="53" type="curve" smooth="yes"/>
      <point x="304" y="195" type="line" smooth="yes"/>
      <point x="304" y="267"/>
      <point x="282" y="309"/>
      <point x="232" y="329" type="curve"/>
      <point x="282" y="349"/>
      <point x="304" y="390"/>
      <point x="304" y="462" type="curve" smooth="yes"/>
      <point x="304" y="601" type="line" smooth="yes"/>
      <point x="304" y="633"/>
      <point x="327" y="657"/>
      <point x="356" y="657" type="curve" smooth="yes"/>
      <point x="389" y="657" type="line"/>
      <point x="389" y="818" type="line"/>
      <point x="266" y="818" type="line" smooth="yes"/>
      <point x="169" y="818"/>
      <point x="116" y="771"/>
      <point x="116" y="688" type="curve" smooth="yes"/>
      <point x="116" y="491" type="line" smooth="yes"/>
      <point x="116" y="430"/>
      <point x="91" y="402"/>
      <point x="36" y="402" type="curve"/>
      <point x="36" y="256" type="line"/>
      <point x="91" y="256"/>
      <point x="116" y="228"/>
      <point x="116" y="166" type="curve" smooth="yes"/>
      <point x="116" y="-34" type="line" smooth="yes"/>
      <point x="116" y="-117"/>
      <point x="169" y="-164"/>
    </contour>
  </outline>
</glyph>
<glyph name="asciitilde" format="1">
  <advance width="567"/>
  <unicode hex="007E"/>
  <outline>
    <contour>
      <point x="442" y="180"/>
      <point x="519" y="231"/>
      <point x="540" y="305" type="curve"/>
      <point x="414" y="385" type="line"/>
      <point x="401" y="363"/>
      <point x="383" y="341"/>
      <point x="354" y="341" type="curve" smooth="yes"/>
      <point x="330" y="341"/>
      <point x="307" y="357"/>
      <point x="280" y="372" type="curve" smooth="yes"/>
      <point x="257" y="385"/>
      <point x="232" y="397"/>
      <point x="197" y="397" type="curve" smooth="yes"/>
      <point x="122" y="397"/>
      <point x="46" y="342"/>
      <point x="27" y="268" type="curve"/>
      <point x="138" y="192" type="line"/>
      <point x="154" y="218"/>
      <point x="174" y="236"/>
      <point x="204" y="236" type="curve" smooth="yes"/>
      <point x="236" y="236"/>
      <point x="269" y="215"/>
      <point x="290" y="203" type="curve" smooth="yes"/>
      <point x="311" y="191"/>
      <point x="335" y="180"/>
      <point x="369" y="180" type="curve" smooth="yes"/>
    </contour>
  </outline>
</glyph>
<glyph name="cent" format="1">
  <advance width="555"/>
  <unicode hex="00A2"/>
  <outline>
    <contour>
      <point x="348" y="577" type="line"/>
      <point x="355" y="698" type="line"/>
      <point x="198" y="698" type="line"/>
      <point x="205" y="577" type="line"/>
    </contour>
    <contour>
      <point x="355" y="2" type="line"/>
      <point x="348" y="123" type="line"/>
      <point x="205" y="123" type="line"/>
      <point x="198" y="2" type="line"/>
    </contour>
    <component base="c" yOffset="90"/>
  </outline>
</glyph>
<glyph name="sterling" format="1">
  <advance width="617"/>
  <unicode hex="00A3"/>
  <outline>
    <contour>
      <point x="590" y="0" type="line"/>
      <point x="590" y="161" type="line"/>
      <point x="268" y="161" type="line"/>
      <point x="289" y="182"/>
      <point x="306" y="201"/>
      <point x="306" y="245" type="curve" smooth="yes"/>
      <point x="306" y="479" type="line" smooth="yes"/>
      <point x="306" y="533"/>
      <point x="332" y="547"/>
      <point x="362" y="547" type="curve" smooth="yes"/>
      <point x="387" y="547"/>
      <point x="409" y="538"/>
      <point x="423" y="490" type="curve"/>
      <point x="599" y="521" type="line"/>
      <point x="567" y="632"/>
      <point x="488" y="711"/>
      <point x="352" y="708" type="curve" smooth="yes"/>
      <point x="213" y="705"/>
      <point x="118" y="623"/>
      <point x="118" y="475" type="curve" smooth="yes"/>
      <point x="118" y="245" type="line" smooth="yes"/>
      <point x="118" y="208"/>
      <point x="111" y="186"/>
      <point x="72" y="161" type="curve"/>
      <point x="72" y="0" type="line"/>
    </contour>
    <contour>
      <point x="501" y="273" type="line"/>
      <point x="501" y="424" type="line"/>
      <point x="39" y="424" type="line"/>
      <point x="39" y="273" type="line"/>
    </contour>
  </outline>
</glyph>
<glyph name="currency" format="1">
  <advance width="610"/>
  <unicode hex="00A4"/>
  <outline>
    <contour>
      <point x="431" y="71"/>
      <point x="537" y="175"/>
      <point x="537" y="305" type="curve"/>
      <point x="537" y="434"/>
      <point x="431" y="539"/>
      <point x="302" y="539" type="curve" smooth="yes"/>
      <point x="172" y="539"/>
      <point x="66" y="434"/>
      <point x="66" y="305" type="curve" smooth="yes"/>
      <point x="66" y="176"/>
      <point x="172" y="71"/>
      <point x="302" y="71" type="curve" smooth="yes"/>
    </contour>
    <contour>
      <point x="306" y="190" type="line"/>
      <point x="186" y="295" type="line"/>
      <point x="15" y="125" type="line"/>
      <point x="135" y="20" type="line"/>
    </contour>
    <contour>
      <point x="298" y="420" type="line"/>
      <point x="129" y="589" type="line"/>
      <point x="9" y="484" type="line"/>
      <point x="186" y="308" type="line"/>
    </contour>
    <contour>
      <point x="261" y="229"/>
      <point x="226" y="264"/>
      <point x="226" y="305" type="curve" smooth="yes"/>
      <point x="226" y="347"/>
      <point x="261" y="381"/>
      <point x="302" y="381" type="curve"/>
      <point x="342" y="381"/>
      <point x="377" y="347"/>
      <point x="378" y="305" type="curve"/>
      <point x="377" y="263"/>
      <point x="343" y="229"/>
      <point x="302" y="229" type="curve" smooth="yes"/>
    </contour>
    <contour>
      <point x="595" y="125" type="line"/>
      <point x="420" y="299" type="line"/>
      <point x="303" y="190" type="line"/>
      <point x="475" y="20" type="line"/>
    </contour>
    <contour>
      <point x="601" y="484" type="line"/>
      <point x="481" y="589" type="line"/>
      <point x="306" y="415" type="line"/>
      <point x="422" y="306" type="line"/>
    </contour>
  </outline>
</glyph>
<glyph name="yen" format="1">
  <advance width="653"/>
  <unicode hex="00A5"/>
  <outline>
    <contour>
      <point x="553" y="230" type="line"/>
      <point x="553" y="331" type="line"/>
      <point x="97" y="331" type="line"/>
      <point x="97" y="230" type="line"/>
    </contour>
    <contour>
      <point x="553" y="89" type="line"/>
      <point x="553" y="190" type="line"/>
      <point x="97" y="190" type="line"/>
      <point x="97" y="89" type="line"/>
    </contour>
    <component base="Y" xOffset="21"/>
  </outline>
</glyph>
<glyph name="brokenbar" format="1">
  <advance width="228"/>
  <unicode hex="00A6"/>
  <outline>
    <contour>
      <point x="20" y="275" type="line"/>
      <point x="20" y="-80" type="line"/>
      <point x="208" y="-80" type="line"/>
      <point x="208" y="275" type="line"/>
    </contour>
    <contour>
      <point x="208" y="405" type="line"/>
      <point x="208" y="760" type="line"/>
      <point x="20" y="760" type="line"/>
      <point x="20" y="405" type="line"/>
    </contour>
  </outline>
</glyph>
<glyph name="section" format="1">
  <advance width="542"/>
  <unicode hex="00A7"/>
  <outline>
    <contour>
      <point x="397" y="-208"/>
      <point x="505" y="-145"/>
      <point x="505" y="-29" type="curve" smooth="yes"/>
      <point x="505" y="21"/>
      <point x="485" y="80"/>
      <point x="439" y="125" type="curve"/>
      <point x="451" y="128"/>
      <point x="478" y="146"/>
      <point x="496" y="181" type="curve" smooth="yes"/>
      <point x="507" y="201"/>
      <point x="515" y="227"/>
      <point x="515" y="260" type="curve" smooth="yes"/>
      <point x="515" y="317"/>
      <point x="491" y="361"/>
      <point x="446" y="394" type="curve" smooth="yes"/>
      <point x="419" y="414"/>
      <point x="386" y="430"/>
      <point x="346" y="443" type="curve" smooth="yes"/>
      <point x="288" y="462"/>
      <point x="224" y="473"/>
      <point x="224" y="512" type="curve" smooth="yes"/>
      <point x="224" y="535"/>
      <point x="246" y="547"/>
      <point x="268" y="547" type="curve" smooth="yes"/>
      <point x="294" y="547"/>
      <point x="313" y="530"/>
      <point x="313" y="502" type="curve" smooth="yes"/>
      <point x="313" y="482" type="line"/>
      <point x="501" y="482" type="line"/>
      <point x="501" y="523" type="line" smooth="yes"/>
      <point x="501" y="634"/>
      <point x="403" y="708"/>
      <point x="271" y="708" type="curve" smooth="yes"/>
      <point x="135" y="708"/>
      <point x="37" y="628"/>
      <point x="37" y="522" type="curve" smooth="yes"/>
      <point x="37" y="465"/>
      <point x="75" y="419"/>
      <point x="120" y="385" type="curve"/>
      <point x="94" y="373"/>
      <point x="67" y="351"/>
      <point x="53" y="331" type="curve" smooth="yes"/>
      <point x="36" y="308"/>
      <point x="27" y="280"/>
      <point x="27" y="241" type="curve" smooth="yes"/>
      <point x="27" y="203"/>
      <point x="36" y="174"/>
      <point x="53" y="150" type="curve" smooth="yes"/>
      <point x="82" y="111"/>
      <point x="132" y="87"/>
      <point x="196" y="61" type="curve" smooth="yes"/>
      <point x="282" y="26"/>
      <point x="317" y="16"/>
      <point x="317" y="-13" type="curve" smooth="yes"/>
      <point x="317" y="-34"/>
      <point x="298" y="-48"/>
      <point x="273" y="-48" type="curve" smooth="yes"/>
      <point x="244" y="-48"/>
      <point x="229" y="-30"/>
      <point x="229" y="-4" type="curve" smooth="yes"/>
      <point x="229" y="24" type="line"/>
      <point x="38" y="24" type="line"/>
      <point x="41" y="-36" type="line" smooth="yes"/>
      <point x="46" y="-139"/>
      <point x="124" y="-208"/>
      <point x="264" y="-208" type="curve" smooth="yes"/>
    </contour>
    <contour>
      <point x="252" y="215"/>
      <point x="236" y="220"/>
      <point x="227" y="227" type="curve" smooth="yes"/>
      <point x="219" y="233"/>
      <point x="215" y="241"/>
      <point x="215" y="250" type="curve" smooth="yes"/>
      <point x="215" y="262"/>
      <point x="221" y="272"/>
      <point x="233" y="278" type="curve" smooth="yes"/>
      <point x="242" y="284"/>
      <point x="255" y="287"/>
      <point x="271" y="287" type="curve" smooth="yes"/>
      <point x="284" y="287"/>
      <point x="296" y="285"/>
      <point x="305" y="281" type="curve" smooth="yes"/>
      <point x="319" y="274"/>
      <point x="327" y="264"/>
      <point x="327" y="251" type="curve" smooth="yes"/>
      <point x="327" y="240"/>
      <point x="322" y="231"/>
      <point x="312" y="225" type="curve" smooth="yes"/>
      <point x="303" y="219"/>
      <point x="288" y="215"/>
      <point x="271" y="215" type="curve" smooth="yes"/>
    </contour>
  </outline>
</glyph>
<glyph name="copyright" format="1">
  <advance width="782"/>
  <unicode hex="00A9"/>
  <outline>
    <contour>
      <point x="599" y="-8"/>
      <point x="752" y="144"/>
      <point x="752" y="356" type="curve" smooth="yes"/>
      <point x="752" y="557"/>
      <point x="599" y="708"/>
      <point x="390" y="708" type="curve" smooth="yes"/>
      <point x="183" y="708"/>
      <point x="30" y="557"/>
      <point x="30" y="356" type="curve" smooth="yes"/>
      <point x="30" y="144"/>
      <point x="183" y="-8"/>
      <point x="390" y="-8" type="curve" smooth="yes"/>
    </contour>
    <contour>
      <point x="241" y="92"/>
      <point x="132" y="201"/>
      <point x="132" y="356" type="curve" smooth="yes"/>
      <point x="132" y="500"/>
      <point x="241" y="608"/>
      <point x="390" y="608" type="curve" smooth="yes"/>
      <point x="540" y="608"/>
      <point x="650" y="500"/>
      <point x="650" y="356" type="curve" smooth="yes"/>
      <point x="650" y="201"/>
      <point x="540" y="92"/>
      <point x="390" y="92" type="curve" smooth="yes"/>
    </contour>
    <contour>
      <point x="472" y="173"/>
      <point x="524" y="217"/>
      <point x="524" y="286" type="curve" smooth="yes"/>
      <point x="524" y="292" type="line"/>
      <point x="428" y="296" type="line"/>
      <point x="428" y="289" type="line" smooth="yes"/>
      <point x="428" y="268"/>
      <point x="414" y="254"/>
      <point x="393" y="254" type="curve" smooth="yes"/>
      <point x="372" y="254"/>
      <point x="358" y="268"/>
      <point x="358" y="289" type="curve" smooth="yes"/>
      <point x="358" y="415" type="line" smooth="yes"/>
      <point x="358" y="437"/>
      <point x="372" y="451"/>
      <point x="393" y="451" type="curve" smooth="yes"/>
      <point x="414" y="451"/>
      <point x="428" y="437"/>
      <point x="428" y="415" type="curve" smooth="yes"/>
      <point x="428" y="409" type="line"/>
      <point x="524" y="413" type="line"/>
      <point x="524" y="418" type="line" smooth="yes"/>
      <point x="524" y="488"/>
      <point x="472" y="531"/>
      <point x="393" y="531" type="curve" smooth="yes"/>
      <point x="314" y="531"/>
      <point x="261" y="485"/>
      <point x="261" y="410" type="curve" smooth="yes"/>
      <point x="261" y="295" type="line" smooth="yes"/>
      <point x="261" y="221"/>
      <point x="314" y="173"/>
      <point x="393" y="173" type="curve" smooth="yes"/>
    </contour>
  </outline>
</glyph>
<glyph name="ordfeminine" format="1">
  <advance width="340"/>
  <unicode hex="00AA"/>
  <outline>
    <contour>
      <point x="314" y="361" type="line"/>
      <point x="314" y="594" type="line" smooth="yes"/>
      <point x="314" y="657"/>
      <point x="247" y="708"/>
      <point x="162" y="708" type="curve" smooth="yes"/>
      <point x="78" y="708"/>
      <point x="15" y="658"/>
      <point x="18" y="596" type="curve"/>
      <point x="115" y="588" type="line"/>
      <point x="114" y="608"/>
      <point x="136" y="623"/>
      <point x="164" y="623" type="curve" smooth="yes"/>
      <point x="193" y="623"/>
      <point x="216" y="605"/>
      <point x="216" y="577" type="curve" smooth="yes"/>
      <point x="216" y="361" type="line"/>
    </contour>
    <contour>
      <point x="212" y="355"/>
      <point x="244" y="397"/>
      <point x="244" y="473" type="curve"/>
      <point x="244" y="569" type="line"/>
      <point x="154" y="569" type="line"/>
      <point x="67" y="569"/>
      <point x="12" y="524"/>
      <point x="12" y="454" type="curve" smooth="yes"/>
      <point x="12" y="393"/>
      <point x="55" y="355"/>
      <point x="132" y="355" type="curve" smooth="yes"/>
    </contour>
    <contour>
      <point x="126" y="432"/>
      <point x="111" y="442"/>
      <point x="111" y="463" type="curve" smooth="yes"/>
      <point x="111" y="489"/>
      <point x="135" y="496"/>
      <point x="170" y="496" type="curve"/>
      <point x="216" y="496" type="line"/>
      <point x="216" y="482" type="line" smooth="yes"/>
      <point x="216" y="462"/>
      <point x="193" y="432"/>
      <point x="151" y="432" type="curve" smooth="yes"/>
    </contour>
    <component base="minus" xOffset="-4" yOffset="124" xScale="0.72" yScale="0.5"/>
  </outline>
</glyph>
<glyph name="logicalnot" format="1">
  <advance width="476"/>
  <unicode hex="00AC"/>
  <outline>
    <contour>
      <point x="293" y="105" type="line"/>
      <point x="453" y="105" type="line"/>
      <point x="453" y="251" type="line"/>
      <point x="293" y="251" type="line"/>
    </contour>
    <component base="minus"/>
  </outline>
</glyph>
<glyph name="registered" format="1">
  <advance width="782"/>
  <unicode hex="00AE"/>
  <outline>
    <contour>
      <point x="599" y="-8"/>
      <point x="752" y="144"/>
      <point x="752" y="356" type="curve" smooth="yes"/>
      <point x="752" y="557"/>
      <point x="599" y="708"/>
      <point x="390" y="708" type="curve" smooth="yes"/>
      <point x="183" y="708"/>
      <point x="30" y="557"/>
      <point x="30" y="356" type="curve" smooth="yes"/>
      <point x="30" y="144"/>
      <point x="183" y="-8"/>
      <point x="390" y="-8" type="curve" smooth="yes"/>
    </contour>
    <contour>
      <point x="241" y="92"/>
      <point x="132" y="201"/>
      <point x="132" y="356" type="curve" smooth="yes"/>
      <point x="132" y="500"/>
      <point x="241" y="608"/>
      <point x="390" y="608" type="curve" smooth="yes"/>
      <point x="540" y="608"/>
      <point x="650" y="500"/>
      <point x="650" y="356" type="curve" smooth="yes"/>
      <point x="650" y="201"/>
      <point x="540" y="92"/>
      <point x="390" y="92" type="curve" smooth="yes"/>
    </contour>
    <contour>
      <point x="516" y="191" type="line"/>
      <point x="459" y="348" type="line"/>
      <point x="376" y="348" type="line"/>
      <point x="426" y="191" type="line"/>
    </contour>
    <contour>
      <point x="368" y="191" type="line"/>
      <point x="368" y="445" type="line"/>
      <point x="399" y="445" type="line" smooth="yes"/>
      <point x="419" y="445"/>
      <point x="432" y="431"/>
      <point x="432" y="411" type="curve" smooth="yes"/>
      <point x="432" y="391"/>
      <point x="419" y="377"/>
      <point x="399" y="377" type="curve" smooth="yes"/>
      <point x="361" y="377" type="line"/>
      <point x="361" y="313" type="line"/>
      <point x="413" y="313" type="line" smooth="yes"/>
      <point x="475" y="313"/>
      <point x="516" y="349"/>
      <point x="516" y="412" type="curve" smooth="yes"/>
      <point x="516" y="471"/>
      <point x="475" y="517"/>
      <point x="413" y="517" type="curve" smooth="yes"/>
      <point x="284" y="517" type="line"/>
      <point x="284" y="191" type="line"/>
    </contour>
  </outline>
</glyph>
<glyph name="macron" format="1">
  <advance width="311"/>
  <unicode hex="00AF"/>
  <outline>
    <contour>
      <point x="0" y="567" type="line"/>
      <point x="311" y="567" type="line"/>
      <point x="311" y="692" type="line"/>
      <point x="0" y="692" type="line"/>
    </contour>
    <contour>
      <point x="155" y="520" type="move" name="_top"/>
    </contour>
  </outline>
</glyph>
<glyph name="degree" format="1">
  <advance width="373"/>
  <unicode hex="00B0"/>
  <outline>
    <contour>
      <point x="186" y="460" type="curve" smooth="yes"/>
      <point x="285" y="460"/>
      <point x="361" y="537"/>
      <point x="361" y="635" type="curve" smooth="yes"/>
      <point x="361" y="732"/>
      <point x="285" y="808"/>
      <point x="186" y="808" type="curve" smooth="yes"/>
      <point x="89" y="808"/>
      <point x="12" y="732"/>
      <point x="12" y="635" type="curve" smooth="yes"/>
      <point x="12" y="537"/>
      <point x="89" y="460"/>
    </contour>
    <contour>
      <point x="186" y="581" type="curve" smooth="yes"/>
      <point x="157" y="581"/>
      <point x="132" y="604"/>
      <point x="132" y="635" type="curve" smooth="yes"/>
      <point x="132" y="667"/>
      <point x="157" y="690"/>
      <point x="186" y="690" type="curve" smooth="yes"/>
      <point x="217" y="690"/>
      <point x="240" y="667"/>
      <point x="240" y="635" type="curve" smooth="yes"/>
      <point x="240" y="604"/>
      <point x="217" y="581"/>
    </contour>
  </outline>
</glyph>
<glyph name="micro" format="1">
  <advance width="555"/>
  <unicode hex="00B5"/>
  <outline>
    <contour>
      <point x="33" y="-200" type="line"/>
      <point x="221" y="-200" type="line"/>
      <point x="221" y="520" type="line"/>
      <point x="33" y="520" type="line"/>
    </contour>
    <component base="u" xOffset="3"/>
  </outline>
</glyph>
<glyph name="paragraph" format="1">
  <advance width="666"/>
  <unicode hex="00B6"/>
  <outline>
    <contour>
      <point x="403" y="-200" type="line"/>
      <point x="403" y="569" type="line"/>
      <point x="491" y="569" type="line"/>
      <point x="491" y="-200" type="line"/>
      <point x="627" y="-200" type="line"/>
      <point x="627" y="700" type="line"/>
      <point x="286" y="700" type="line" smooth="yes"/>
      <point x="114" y="700"/>
      <point x="18" y="608"/>
      <point x="18" y="475" type="curve" smooth="yes"/>
      <point x="18" y="337"/>
      <point x="129" y="250"/>
      <point x="295" y="250" type="curve"/>
      <point x="267" y="280" type="line"/>
      <point x="267" y="-200" type="line"/>
    </contour>
  </outline>
</glyph>
<glyph name="ordmasculine" format="1">
  <advance width="355"/>
  <unicode hex="00BA"/>
  <outline>
    <contour>
      <point x="245" y="456"/>
      <point x="300" y="493"/>
      <point x="328" y="558" type="curve" smooth="yes"/>
      <point x="338" y="581"/>
      <point x="343" y="613"/>
      <point x="343" y="635" type="curve" smooth="yes"/>
      <point x="343" y="657"/>
      <point x="337" y="687"/>
      <point x="328" y="710" type="curve" smooth="yes"/>
      <point x="302" y="776"/>
      <point x="244" y="808"/>
      <point x="180" y="808" type="curve" smooth="yes"/>
      <point x="108" y="808"/>
      <point x="50" y="774"/>
      <point x="25" y="709" type="curve" smooth="yes"/>
      <point x="17" y="688"/>
      <point x="12" y="655"/>
      <point x="12" y="633" type="curve" smooth="yes"/>
      <point x="12" y="611"/>
      <point x="17" y="581"/>
      <point x="26" y="558" type="curve" smooth="yes"/>
      <point x="52" y="491"/>
      <point x="110" y="456"/>
      <point x="179" y="456" type="curve" smooth="yes"/>
    </contour>
    <contour>
      <point x="163" y="557"/>
      <point x="149" y="564"/>
      <point x="140" y="584" type="curve" smooth="yes"/>
      <point x="133" y="599"/>
      <point x="132" y="619"/>
      <point x="132" y="633" type="curve" smooth="yes"/>
      <point x="132" y="650"/>
      <point x="133" y="667"/>
      <point x="140" y="680" type="curve" smooth="yes"/>
      <point x="151" y="700"/>
      <point x="163" y="708"/>
      <point x="177" y="708" type="curve" smooth="yes"/>
      <point x="191" y="708"/>
      <point x="205" y="700"/>
      <point x="215" y="680" type="curve" smooth="yes"/>
      <point x="222" y="666"/>
      <point x="223" y="648"/>
      <point x="223" y="633" type="curve" smooth="yes"/>
      <point x="223" y="618"/>
      <point x="221" y="599"/>
      <point x="214" y="584" type="curve" smooth="yes"/>
      <point x="204" y="563"/>
      <point x="191" y="557"/>
      <point x="179" y="557" type="curve" smooth="yes"/>
    </contour>
    <component base="minus" xOffset="10" yOffset="244" xScale="0.72" yScale="0.5"/>
  </outline>
</glyph>
<glyph name="AE" format="1">
  <advance width="977"/>
  <unicode hex="00C6"/>
  <outline>
    <contour>
      <point x="216" y="0" type="line"/>
      <point x="443" y="483" type="line"/>
      <point x="443" y="0" type="line"/>
      <point x="953" y="0" type="line"/>
      <point x="953" y="161" type="line"/>
      <point x="631" y="161" type="line"/>
      <point x="631" y="539" type="line"/>
      <point x="953" y="539" type="line"/>
      <point x="953" y="700" type="line"/>
      <point x="353" y="700" type="line"/>
      <point x="9" y="0" type="line"/>
    </contour>
    <contour>
      <point x="478" y="95" type="line"/>
      <point x="496" y="239" type="line"/>
      <point x="161" y="239" type="line"/>
      <point x="123" y="95" type="line"/>
    </contour>
    <contour>
      <point x="839" y="275" type="line"/>
      <point x="839" y="435" type="line"/>
      <point x="519" y="435" type="line"/>
      <point x="519" y="275" type="line"/>
    </contour>
  </outline>
</glyph>
<glyph name="Eth" format="1">
  <advance width="630"/>
  <unicode hex="00D0"/>
  <outline>
    <contour>
      <point x="341" y="296" type="line"/>
      <point x="341" y="421" type="line"/>
      <point x="39" y="421" type="line"/>
      <point x="39" y="296" type="line"/>
    </contour>
    <component base="D" xOffset="42"/>
  </outline>
</glyph>
<glyph name="multiply" format="1">
  <advance width="494"/>
  <unicode hex="00D7"/>
  <outline>
    <contour>
      <point x="247" y="196" type="line"/>
      <point x="358" y="85" type="line"/>
      <point x="472" y="198" type="line"/>
      <point x="360" y="310" type="line"/>
      <point x="472" y="421" type="line"/>
      <point x="358" y="535" type="line"/>
      <point x="247" y="423" type="line"/>
      <point x="135" y="535" type="line"/>
      <point x="22" y="421" type="line"/>
      <point x="133" y="310" type="line"/>
      <point x="22" y="198" type="line"/>
      <point x="135" y="85" type="line"/>
    </contour>
  </outline>
</glyph>
<glyph name="Thorn" format="1">
  <advance width="570"/>
  <unicode hex="00DE"/>
  <outline>
    <contour>
      <point x="36" y="-183" type="line"/>
      <point x="224" y="-183" type="line"/>
      <point x="224" y="733" type="line"/>
      <point x="36" y="733" type="line"/>
    </contour>
    <contour>
      <point x="224" y="52" type="line"/>
      <point x="305" y="52" type="line" smooth="yes"/>
      <point x="441" y="52"/>
      <point x="552" y="140"/>
      <point x="552" y="273" type="curve" smooth="yes"/>
      <point x="552" y="406"/>
      <point x="456" y="498"/>
      <point x="314" y="498" type="curve" smooth="yes"/>
      <point x="224" y="498" type="line"/>
      <point x="224" y="337" type="line"/>
      <point x="283" y="337" type="line" smooth="yes"/>
      <point x="331" y="337"/>
      <point x="365" y="315"/>
      <point x="365" y="269" type="curve" smooth="yes"/>
      <point x="365" y="224"/>
      <point x="331" y="203"/>
      <point x="283" y="203" type="curve" smooth="yes"/>
      <point x="224" y="203" type="line"/>
    </contour>
  </outline>
</glyph>
<glyph name="germandbls" format="1">
  <advance width="582"/>
  <unicode hex="00DF"/>
  <outline>
    <contour>
      <point x="224" y="0" type="line"/>
      <point x="224" y="485" type="line"/>
      <point x="224" y="525"/>
      <point x="259" y="548"/>
      <point x="295" y="548" type="curve" smooth="yes"/>
      <point x="327" y="548"/>
      <point x="355" y="529"/>
      <point x="355" y="501" type="curve" smooth="yes"/>
      <point x="355" y="478"/>
      <point x="335" y="452"/>
      <point x="304" y="452" type="curve"/>
      <point x="265" y="452" type="line"/>
      <point x="265" y="306" type="line"/>
      <point x="299" y="306" type="line"/>
      <point x="343" y="306"/>
      <point x="369" y="279"/>
      <point x="369" y="233" type="curve" smooth="yes"/>
      <point x="369" y="187"/>
      <point x="343" y="160"/>
      <point x="299" y="160" type="curve"/>
      <point x="265" y="160" type="line"/>
      <point x="265" y="0" type="line"/>
      <point x="282" y="0" type="line"/>
      <point x="458" y="0"/>
      <point x="557" y="78"/>
      <point x="557" y="213" type="curve" smooth="yes"/>
      <point x="557" y="292"/>
      <point x="522" y="356"/>
      <point x="476" y="384" type="curve"/>
      <point x="527" y="416"/>
      <point x="543" y="458"/>
      <point x="543" y="508" type="curve" smooth="yes"/>
      <point x="543" y="632"/>
      <point x="443" y="708"/>
      <point x="292" y="708" type="curve" smooth="yes"/>
      <point x="128" y="708"/>
      <point x="36" y="619"/>
      <point x="36" y="467" type="curve"/>
      <point x="36" y="1" type="line"/>
    </contour>
  </outline>
</glyph>
<glyph name="ae" format="1">
  <advance width="867"/>
  <unicode hex="00E6"/>
  <outline>
    <contour>
      <point x="327" y="-8"/>
      <point x="400" y="34"/>
      <point x="426" y="83" type="curve"/>
      <point x="447" y="34"/>
      <point x="517" y="-8"/>
      <point x="609" y="-8" type="curve" smooth="yes"/>
      <point x="690" y="-8"/>
      <point x="759" y="24"/>
      <point x="814" y="81" type="curve"/>
      <point x="727" y="187" type="line"/>
      <point x="706" y="162"/>
      <point x="668" y="149"/>
      <point x="620" y="149" type="curve" smooth="yes"/>
      <point x="576" y="149"/>
      <point x="540" y="160"/>
      <point x="527" y="193" type="curve" smooth="yes"/>
      <point x="524" y="201"/>
      <point x="523" y="206"/>
      <point x="523" y="208" type="curve"/>
      <point x="838" y="208" type="line"/>
      <point x="838" y="302"/>
      <point x="829" y="344"/>
      <point x="819" y="372" type="curve" smooth="yes"/>
      <point x="784" y="469"/>
      <point x="682" y="528"/>
      <point x="591" y="528" type="curve" smooth="yes"/>
      <point x="514" y="528"/>
      <point x="455" y="485"/>
      <point x="434" y="450" type="curve"/>
      <point x="405" y="492"/>
      <point x="336" y="528"/>
      <point x="255" y="528" type="curve" smooth="yes"/>
      <point x="138" y="528"/>
      <point x="28" y="452"/>
      <point x="28" y="356" type="curve"/>
      <point x="216" y="332" type="line"/>
      <point x="217" y="352"/>
      <point x="240" y="367"/>
      <point x="272" y="367" type="curve" smooth="yes"/>
      <point x="307" y="367"/>
      <point x="329" y="348"/>
      <point x="329" y="320" type="curve" smooth="yes"/>
      <point x="329" y="305" type="line"/>
      <point x="231" y="305" type="line" smooth="yes"/>
      <point x="92" y="305"/>
      <point x="23" y="242"/>
      <point x="23" y="150" type="curve" smooth="yes"/>
      <point x="23" y="50"/>
      <point x="105" y="-8"/>
      <point x="225" y="-8" type="curve" smooth="yes"/>
    </contour>
    <contour>
      <point x="224" y="120"/>
      <point x="211" y="144"/>
      <point x="211" y="164" type="curve" smooth="yes"/>
      <point x="211" y="190"/>
      <point x="233" y="208"/>
      <point x="274" y="208" type="curve" smooth="yes"/>
      <point x="329" y="208" type="line"/>
      <point x="329" y="184" type="line" smooth="yes"/>
      <point x="329" y="147"/>
      <point x="296" y="120"/>
      <point x="259" y="120" type="curve" smooth="yes"/>
    </contour>
    <contour>
      <point x="522" y="313"/>
      <point x="524" y="320"/>
      <point x="527" y="327" type="curve"/>
      <point x="536" y="351"/>
      <point x="556" y="367"/>
      <point x="583" y="367" type="curve" smooth="yes"/>
      <point x="611" y="367"/>
      <point x="629" y="351"/>
      <point x="639" y="327" type="curve" smooth="yes"/>
      <point x="642" y="320"/>
      <point x="644" y="313"/>
      <point x="645" y="305" type="curve"/>
      <point x="521" y="305" type="line"/>
    </contour>
  </outline>
</glyph>
<glyph name="eth" format="1">
  <advance width="563"/>
  <unicode hex="00F0"/>
  <outline>
    <contour>
      <point x="386" y="-8"/>
      <point x="473" y="49"/>
      <point x="510" y="129" type="curve" smooth="yes"/>
      <point x="522" y="155"/>
      <point x="530" y="189"/>
      <point x="530" y="228" type="curve" smooth="yes"/>
      <point x="530" y="279"/>
      <point x="524" y="328"/>
      <point x="512" y="373" type="curve" smooth="yes"/>
      <point x="489" y="463"/>
      <point x="435" y="551"/>
      <point x="322" y="700" type="curve"/>
      <point x="121" y="700" type="line"/>
      <point x="206" y="608"/>
      <point x="264" y="539"/>
      <point x="317" y="420" type="curve"/>
      <point x="327" y="422" type="line"/>
      <point x="315" y="463"/>
      <point x="171" y="446"/>
      <point x="121" y="415" type="curve" smooth="yes"/>
      <point x="86" y="393"/>
      <point x="59" y="362"/>
      <point x="42" y="325" type="curve" smooth="yes"/>
      <point x="29" y="296"/>
      <point x="22" y="263"/>
      <point x="22" y="227" type="curve" smooth="yes"/>
      <point x="22" y="192"/>
      <point x="28" y="160"/>
      <point x="42" y="129" type="curve" smooth="yes"/>
      <point x="80" y="45"/>
      <point x="168" y="-8"/>
      <point x="276" y="-8" type="curve" smooth="yes"/>
    </contour>
    <contour>
      <point x="254" y="132"/>
      <point x="236" y="145"/>
      <point x="225" y="167" type="curve" smooth="yes"/>
      <point x="217" y="183"/>
      <point x="212" y="199"/>
      <point x="212" y="222" type="curve" smooth="yes"/>
      <point x="212" y="243"/>
      <point x="216" y="258"/>
      <point x="224" y="274" type="curve" smooth="yes"/>
      <point x="235" y="296"/>
      <point x="254" y="307"/>
      <point x="276" y="307" type="curve" smooth="yes"/>
      <point x="298" y="307"/>
      <point x="315" y="296"/>
      <point x="327" y="274" type="curve" smooth="yes"/>
      <point x="335" y="259"/>
      <point x="340" y="243"/>
      <point x="340" y="222" type="curve" smooth="yes"/>
      <point x="340" y="199"/>
      <point x="335" y="182"/>
      <point x="327" y="167" type="curve" smooth="yes"/>
      <point x="315" y="145"/>
      <point x="298" y="132"/>
      <point x="276" y="132" type="curve" smooth="yes"/>
    </contour>
    <contour>
      <point x="500" y="561" type="line"/>
      <point x="476" y="658" type="line"/>
      <point x="128" y="572" type="line"/>
      <point x="152" y="475" type="line"/>
    </contour>
  </outline>
</glyph>
<glyph name="divide" format="1">
  <advance width="500"/>
  <unicode hex="00F7"/>
  <outline>
    <contour>
      <point x="478" y="250" type="line"/>
      <point x="478" y="390" type="line"/>
      <point x="22" y="390" type="line"/>
      <point x="22" y="250" type="line"/>
    </contour>
    <contour>
      <point x="293" y="66"/>
      <point x="329" y="102"/>
      <point x="329" y="146" type="curve" smooth="yes"/>
      <point x="329" y="189"/>
      <point x="293" y="225"/>
      <point x="250" y="225" type="curve" smooth="yes"/>
      <point x="206" y="225"/>
      <point x="170" y="189"/>
      <point x="170" y="146" type="curve" smooth="yes"/>
      <point x="170" y="102"/>
      <point x="206" y="66"/>
      <point x="250" y="66" type="curve" smooth="yes"/>
    </contour>
    <contour>
      <point x="293" y="420"/>
      <point x="329" y="456"/>
      <point x="329" y="500" type="curve" smooth="yes"/>
      <point x="329" y="543"/>
      <point x="293" y="579"/>
      <point x="250" y="579" type="curve" smooth="yes"/>
      <point x="206" y="579"/>
      <point x="170" y="543"/>
      <point x="170" y="500" type="curve" smooth="yes"/>
      <point x="170" y="456"/>
      <point x="206" y="420"/>
      <point x="250" y="420" type="curve" smooth="yes"/>
    </contour>
  </outline>
</glyph>
<glyph name="oslash" format="1">
  <advance width="562"/>
  <unicode hex="00F8"/>
  <outline>
    <contour>
      <point x="60" y="-1" type="line"/>
      <point x="116" y="-43" type="line"/>
      <point x="513" y="520" type="line"/>
      <point x="457" y="562" type="line"/>
    </contour>
    <component base="o"/>
  </outline>
</glyph>
<glyph name="thorn" format="1">
  <advance width="532"/>
  <unicode hex="00FE"/>
  <outline>
    <contour>
      <point x="24" y="-183" type="line"/>
      <point x="212" y="-183" type="line"/>
      <point x="212" y="733" type="line"/>
      <point x="24" y="733" type="line"/>
    </contour>
    <component base="b.bowl" xOffset="153"/>
  </outline>
</glyph>
<glyph name="idotless" format="1">
  <advance width="249"/>
  <unicode hex="0131"/>
  <outline>
    <contour>
      <point x="217" y="0" type="line"/>
      <point x="217" y="520" type="line"/>
      <point x="29" y="520" type="line"/>
      <point x="29" y="0" type="line"/>
    </contour>
    <contour>
      <point x="119" y="532" type="move" name="top"/>
    </contour>
  </outline>
</glyph>
<glyph name="Eng" format="1">
  <advance width="658"/>
  <unicode hex="014A"/>
  <outline>
    <contour>
      <point x="312" y="-201" type="line"/>
      <point x="558" y="-209"/>
      <point x="619" y="-163"/>
      <point x="619" y="29" type="curve" smooth="yes"/>
      <point x="619" y="520" type="line"/>
      <point x="431" y="520" type="line"/>
      <point x="431" y="26" type="line" smooth="yes"/>
      <point x="431" y="-38"/>
      <point x="407" y="-52"/>
      <point x="312" y="-44" type="curve"/>
    </contour>
    <component base="N"/>
  </outline>
</glyph>
<glyph name="eng" format="1">
  <advance width="553"/>
  <unicode hex="014B"/>
  <outline>
    <contour>
      <point x="242" y="-201" type="line"/>
      <point x="488" y="-203"/>
      <point x="523" y="-143"/>
      <point x="523" y="29" type="curve" smooth="yes"/>
      <point x="523" y="220" type="line"/>
      <point x="335" y="220" type="line"/>
      <point x="335" y="23" type="line" smooth="yes"/>
      <point x="335" y="-38"/>
      <point x="317" y="-51"/>
      <point x="242" y="-52" type="curve"/>
    </contour>
    <component base="n"/>
  </outline>
</glyph>
<glyph name="OE" format="1">
  <advance width="851"/>
  <unicode hex="0152"/>
  <outline>
    <contour>
      <point x="378" y="-12"/>
      <point x="481" y="87"/>
      <point x="481" y="236" type="curve" smooth="yes"/>
      <point x="481" y="464" type="line" smooth="yes"/>
      <point x="481" y="613"/>
      <point x="378" y="708"/>
      <point x="250" y="708" type="curve" smooth="yes"/>
      <point x="132" y="708"/>
      <point x="30" y="613"/>
      <point x="30" y="464" type="curve" smooth="yes"/>
      <point x="30" y="236" type="line" smooth="yes"/>
      <point x="30" y="87"/>
      <point x="132" y="-12"/>
      <point x="250" y="-12" type="curve" smooth="yes"/>
    </contour>
    <contour>
      <point x="245" y="149"/>
      <point x="218" y="180"/>
      <point x="218" y="230" type="curve" smooth="yes"/>
      <point x="218" y="466" type="line" smooth="yes"/>
      <point x="218" y="516"/>
      <point x="245" y="547"/>
      <point x="290" y="547" type="curve" smooth="yes"/>
      <point x="335" y="547"/>
      <point x="363" y="516"/>
      <point x="363" y="466" type="curve" smooth="yes"/>
      <point x="363" y="230" type="line" smooth="yes"/>
      <point x="363" y="180"/>
      <point x="335" y="149"/>
      <point x="290" y="149" type="curve" smooth="yes"/>
    </contour>
    <contour>
      <point x="833" y="0" type="line"/>
      <point x="833" y="161" type="line"/>
      <point x="551" y="161" type="line"/>
      <point x="551" y="539" type="line"/>
      <point x="833" y="539" type="line"/>
      <point x="833" y="700" type="line"/>
      <point x="363" y="700" type="line"/>
      <point x="363" y="0" type="line"/>
    </contour>
    <contour>
      <point x="719" y="275" type="line"/>
      <point x="719" y="435" type="line"/>
      <point x="439" y="435" type="line"/>
      <point x="439" y="275" type="line"/>
    </contour>
    <contour>
      <point x="447" y="700" type="move" name="top"/>
    </contour>
  </outline>
</glyph>
<glyph name="oe" format="1">
  <advance width="880"/>
  <unicode hex="0153"/>
  <outline>
    <contour>
      <point x="385" y="-8"/>
      <point x="473" y="75"/>
      <point x="509" y="169" type="curve" smooth="yes"/>
      <point x="521" y="200"/>
      <point x="529" y="218"/>
      <point x="529" y="263" type="curve" smooth="yes"/>
      <point x="529" y="304"/>
      <point x="522" y="323"/>
      <point x="509" y="356" type="curve" smooth="yes"/>
      <point x="469" y="457"/>
      <point x="378" y="528"/>
      <point x="276" y="528" type="curve" smooth="yes"/>
      <point x="165" y="528"/>
      <point x="78" y="470"/>
      <point x="42" y="376" type="curve" smooth="yes"/>
      <point x="28" y="340"/>
      <point x="22" y="300"/>
      <point x="22" y="261" type="curve" smooth="yes"/>
      <point x="22" y="226"/>
      <point x="27" y="188"/>
      <point x="42" y="149" type="curve" smooth="yes"/>
      <point x="79" y="52"/>
      <point x="165" y="-8"/>
      <point x="275" y="-8" type="curve" smooth="yes"/>
    </contour>
    <contour>
      <point x="253" y="153"/>
      <point x="236" y="163"/>
      <point x="225" y="184" type="curve" smooth="yes"/>
      <point x="216" y="202"/>
      <point x="211" y="228"/>
      <point x="211" y="262" type="curve" smooth="yes"/>
      <point x="211" y="295"/>
      <point x="216" y="320"/>
      <point x="225" y="337" type="curve" smooth="yes"/>
      <point x="236" y="357"/>
      <point x="253" y="367"/>
      <point x="275" y="367" type="curve" smooth="yes"/>
      <point x="297" y="367"/>
      <point x="314" y="357"/>
      <point x="324" y="337" type="curve" smooth="yes"/>
      <point x="334" y="320"/>
      <point x="339" y="295"/>
      <point x="339" y="262" type="curve" smooth="yes"/>
      <point x="339" y="228"/>
      <point x="334" y="202"/>
      <point x="324" y="184" type="curve" smooth="yes"/>
      <point x="314" y="163"/>
      <point x="297" y="153"/>
      <point x="275" y="153" type="curve" smooth="yes"/>
    </contour>
    <contour>
      <point x="714" y="-8"/>
      <point x="784" y="23"/>
      <point x="839" y="81" type="curve"/>
      <point x="752" y="187" type="line"/>
      <point x="731" y="162"/>
      <point x="692" y="149"/>
      <point x="646" y="149" type="curve" smooth="yes"/>
      <point x="594" y="149"/>
      <point x="566" y="162"/>
      <point x="553" y="193" type="curve" smooth="yes"/>
      <point x="545" y="210"/>
      <point x="542" y="233"/>
      <point x="542" y="262" type="curve" smooth="yes"/>
      <point x="542" y="286"/>
      <point x="546" y="309"/>
      <point x="553" y="327" type="curve" smooth="yes"/>
      <point x="563" y="351"/>
      <point x="581" y="367"/>
      <point x="608" y="367" type="curve" smooth="yes"/>
      <point x="636" y="367"/>
      <point x="654" y="351"/>
      <point x="664" y="327" type="curve" smooth="yes"/>
      <point x="671" y="310"/>
      <point x="674" y="287"/>
      <point x="674" y="262" type="curve"/>
      <point x="745" y="305" type="line"/>
      <point x="488" y="305" type="line"/>
      <point x="488" y="213" type="line"/>
      <point x="863" y="213" type="line"/>
      <point x="863" y="298"/>
      <point x="855" y="343"/>
      <point x="844" y="373" type="curve" smooth="yes"/>
      <point x="811" y="462"/>
      <point x="720" y="528"/>
      <point x="606" y="528" type="curve" smooth="yes"/>
      <point x="500" y="528"/>
      <point x="410" y="451"/>
      <point x="373" y="355" type="curve" smooth="yes"/>
      <point x="359" y="319"/>
      <point x="353" y="300"/>
      <point x="353" y="262" type="curve" smooth="yes"/>
      <point x="353" y="219"/>
      <point x="361" y="201"/>
      <point x="373" y="169" type="curve" smooth="yes"/>
      <point x="411" y="68"/>
      <point x="495" y="-8"/>
      <point x="621" y="-8" type="curve" smooth="yes"/>
    </contour>
  </outline>
</glyph>
<glyph name="florin" format="1">
  <advance width="559"/>
  <unicode hex="0192"/>
  <outline>
    <contour>
      <point x="232" y="-218"/>
      <point x="305" y="-182"/>
      <point x="325" y="-56" type="curve" smooth="yes"/>
      <point x="419" y="529" type="line" smooth="yes"/>
      <point x="423" y="552"/>
      <point x="434" y="572"/>
      <point x="462" y="575" type="curve" smooth="yes"/>
      <point x="539" y="575" type="line"/>
      <point x="539" y="700" type="line"/>
      <point x="327" y="718"/>
      <point x="256" y="692"/>
      <point x="234" y="556" type="curve" smooth="yes"/>
      <point x="140" y="-29" type="line" smooth="yes"/>
      <point x="134" y="-63"/>
      <point x="106" y="-75"/>
      <point x="93" y="-75" type="curve" smooth="yes"/>
      <point x="20" y="-75" type="line"/>
      <point x="20" y="-200" type="line"/>
    </contour>
    <contour>
      <point x="483" y="280" type="line"/>
      <point x="483" y="430" type="line"/>
      <point x="116" y="430" type="line"/>
      <point x="116" y="280" type="line"/>
    </contour>
  </outline>
</glyph>
<glyph name="caron" format="1">
  <advance width="355"/>
  <unicode hex="02C7"/>
  <outline>
    <contour>
      <point x="79" y="565" type="line"/>
      <point x="273" y="565" type="line"/>
      <point x="355" y="694" type="line"/>
      <point x="213" y="694" type="line"/>
      <point x="178" y="632" type="line"/>
      <point x="143" y="694" type="line"/>
      <point x="0" y="694" type="line"/>
    </contour>
    <contour>
      <point x="178" y="520" type="move" name="_top"/>
    </contour>
  </outline>
</glyph>
<glyph name="breve" format="1">
  <advance width="296"/>
  <unicode hex="02D8"/>
  <outline>
    <contour>
      <point x="148" y="543" type="curve" smooth="yes"/>
      <point x="224" y="543"/>
      <point x="284" y="599"/>
      <point x="284" y="671" type="curve"/>
      <point x="189" y="671" type="line"/>
      <point x="189" y="644"/>
      <point x="171" y="623"/>
      <point x="148" y="623" type="curve" smooth="yes"/>
      <point x="125" y="623"/>
      <point x="107" y="644"/>
      <point x="107" y="671" type="curve"/>
      <point x="12" y="671" type="line"/>
      <point x="12" y="599"/>
      <point x="72" y="543"/>
    </contour>
    <contour>
      <point x="148" y="520" type="move" name="_top"/>
    </contour>
  </outline>
</glyph>
<glyph name="ogonek" format="1">
  <advance width="600"/>
  <unicode hex="02DB"/>
  <outline>
    <contour>
      <point x="370" y="-83" type="line"/>
      <point x="347" y="-100"/>
      <point x="321" y="-97"/>
      <point x="315" y="-79" type="curve" smooth="yes"/>
      <point x="308" y="-59"/>
      <point x="332" y="-31"/>
      <point x="382" y="0" type="curve"/>
      <point x="256" y="0" type="line"/>
      <point x="204" y="-41"/>
      <point x="184" y="-87"/>
      <point x="197" y="-131" type="curve" smooth="yes"/>
      <point x="224" y="-225"/>
      <point x="347" y="-199"/>
      <point x="382" y="-178" type="curve"/>
    </contour>
    <contour>
      <point x="313" y="0" type="move" name="_ogo"/>
    </contour>
  </outline>
</glyph>
<glyph name="acutecomb" format="1">
  <advance width="250"/>
  <unicode hex="0301"/>
  <outline>
    <contour>
      <point x="0" y="571" type="line"/>
      <point x="159" y="571" type="line"/>
      <point x="250" y="692" type="line"/>
      <point x="64" y="692" type="line"/>
    </contour>
    <contour>
      <point x="89" y="520" type="move" name="_top"/>
    </contour>
  </outline>
</glyph>
<glyph name="circumflexcomb" format="1">
  <advance width="324"/>
  <unicode hex="0302"/>
  <outline>
    <contour>
      <point x="127" y="571" type="line"/>
      <point x="162" y="633" type="line"/>
      <point x="197" y="571" type="line"/>
      <point x="324" y="571" type="line"/>
      <point x="238" y="700" type="line"/>
      <point x="83" y="700" type="line"/>
      <point x="0" y="571" type="line"/>
    </contour>
    <contour>
      <point x="162" y="520" type="move" name="_top"/>
    </contour>
  </outline>
</glyph>
<glyph name="tildecomb" format="1">
  <advance width="373"/>
  <unicode hex="0303"/>
  <outline>
    <contour>
      <point x="293" y="554"/>
      <point x="329" y="585"/>
      <point x="354" y="646" type="curve"/>
      <point x="274" y="702" type="line"/>
      <point x="265" y="680"/>
      <point x="253" y="669"/>
      <point x="239" y="669" type="curve" smooth="yes"/>
      <point x="224" y="669"/>
      <point x="208" y="675"/>
      <point x="191" y="688" type="curve" smooth="yes"/>
      <point x="169" y="705"/>
      <point x="148" y="712"/>
      <point x="128" y="712" type="curve" smooth="yes"/>
      <point x="73" y="712"/>
      <point x="35" y="680"/>
      <point x="18" y="619" type="curve"/>
      <point x="97" y="563" type="line"/>
      <point x="107" y="585"/>
      <point x="121" y="597"/>
      <point x="137" y="597" type="curve" smooth="yes"/>
      <point x="149" y="597"/>
      <point x="163" y="591"/>
      <point x="179" y="578" type="curve" smooth="yes"/>
      <point x="199" y="562"/>
      <point x="223" y="554"/>
      <point x="248" y="554" type="curve" smooth="yes"/>
    </contour>
    <contour>
      <point x="171" y="520" type="move" name="_top"/>
    </contour>
  </outline>
</glyph>
<glyph name="macroncomb" format="1">
  <advance width="311"/>
  <unicode hex="0304"/>
  <outline>
    <contour>
      <point x="311" y="567" type="line"/>
      <point x="311" y="692" type="line"/>
      <point x="0" y="692" type="line"/>
      <point x="0" y="567" type="line"/>
    </contour>
    <contour>
      <point x="155" y="520" type="move" name="_top"/>
    </contour>
  </outline>
</glyph>
<glyph name="dotaccentcomb" format="1">
  <advance width="155"/>
  <unicode hex="0307"/>
  <outline>
    <contour>
      <point x="125" y="533"/>
      <point x="155" y="565"/>
      <point x="155" y="612" type="curve" smooth="yes"/>
      <point x="155" y="660"/>
      <point x="125" y="691"/>
      <point x="78" y="691" type="curve" smooth="yes"/>
      <point x="31" y="691"/>
      <point x="0" y="660"/>
      <point x="0" y="612" type="curve" smooth="yes"/>
      <point x="0" y="565"/>
      <point x="31" y="533"/>
      <point x="78" y="533" type="curve" smooth="yes"/>
    </contour>
    <contour>
      <point x="78" y="520" type="move" name="_top"/>
    </contour>
  </outline>
</glyph>
<glyph name="dieresiscomb" format="1">
  <advance width="339"/>
  <unicode hex="0308"/>
  <outline>
    <contour>
      <point x="309" y="543"/>
      <point x="339" y="575"/>
      <point x="339" y="622" type="curve" smooth="yes"/>
      <point x="339" y="670"/>
      <point x="309" y="701"/>
      <point x="262" y="701" type="curve" smooth="yes"/>
      <point x="215" y="701"/>
      <point x="184" y="670"/>
      <point x="184" y="622" type="curve" smooth="yes"/>
      <point x="184" y="575"/>
      <point x="215" y="543"/>
      <point x="262" y="543" type="curve" smooth="yes"/>
    </contour>
    <contour>
      <point x="124" y="543"/>
      <point x="156" y="575"/>
      <point x="156" y="622" type="curve" smooth="yes"/>
      <point x="156" y="670"/>
      <point x="124" y="701"/>
      <point x="78" y="701" type="curve" smooth="yes"/>
      <point x="32" y="701"/>
      <point x="0" y="670"/>
      <point x="0" y="622" type="curve" smooth="yes"/>
      <point x="0" y="575"/>
      <point x="32" y="543"/>
      <point x="78" y="543" type="curve" smooth="yes"/>
    </contour>
    <contour>
      <point x="167" y="520" type="move" name="_top"/>
    </contour>
  </outline>
</glyph>
<glyph name="ringcomb" format="1">
  <advance width="222"/>
  <unicode hex="030A"/>
  <outline>
    <contour>
      <point x="177" y="546"/>
      <point x="228" y="597"/>
      <point x="228" y="663" type="curve" smooth="yes"/>
      <point x="228" y="728"/>
      <point x="177" y="779"/>
      <point x="111" y="779" type="curve" smooth="yes"/>
      <point x="45" y="779"/>
      <point x="-6" y="728"/>
      <point x="-6" y="663" type="curve" smooth="yes"/>
      <point x="-6" y="597"/>
      <point x="45" y="546"/>
      <point x="111" y="546" type="curve" smooth="yes"/>
    </contour>
    <contour>
      <point x="91" y="627"/>
      <point x="75" y="643"/>
      <point x="75" y="663" type="curve" smooth="yes"/>
      <point x="75" y="684"/>
      <point x="91" y="700"/>
      <point x="111" y="700" type="curve" smooth="yes"/>
      <point x="131" y="700"/>
      <point x="147" y="684"/>
      <point x="147" y="663" type="curve" smooth="yes"/>
      <point x="147" y="643"/>
      <point x="131" y="627"/>
      <point x="111" y="627" type="curve" smooth="yes"/>
    </contour>
    <contour>
      <point x="111" y="520" type="move" name="_top"/>
    </contour>
  </outline>
</glyph>
<glyph name="hungarumlautcomb" format="1">
  <advance width="435"/>
  <unicode hex="030B"/>
  <outline>
    <contour>
      <point x="172" y="569" type="line"/>
      <point x="233" y="690" type="line"/>
      <point x="63" y="690" type="line"/>
      <point x="12" y="569" type="line"/>
    </contour>
    <contour>
      <point x="360" y="569" type="line"/>
      <point x="423" y="690" type="line"/>
      <point x="262" y="690" type="line"/>
      <point x="200" y="569" type="line"/>
    </contour>
    <contour>
      <point x="180" y="520" type="move" name="_top"/>
    </contour>
  </outline>
</glyph>
<glyph name="caroncomb" format="1">
  <advance width="379"/>
  <unicode hex="030C"/>
  <outline>
    <contour>
      <point x="285" y="565" type="line"/>
      <point x="367" y="694" type="line"/>
      <point x="225" y="694" type="line"/>
      <point x="190" y="632" type="line"/>
      <point x="155" y="694" type="line"/>
      <point x="12" y="694" type="line"/>
      <point x="91" y="565" type="line"/>
    </contour>
    <contour>
      <point x="190" y="520" type="move" name="_top"/>
    </contour>
  </outline>
</glyph>
<glyph name="commaturnedabovecomb" format="1">
  <advance width="274"/>
  <unicode hex="0312"/>
  <outline>
    <component base="acutecomb" xScale="-1" yScale="-1" xOffset="262" yOffset="1263"/>
    <contour>
      <point x="112" y="520" type="move" name="_top"/>
    </contour>
  </outline>
</glyph>
<glyph name="commaabovecomb" format="1">
  <advance width="250"/>
  <unicode hex="0313"/>
  <outline>
    <component base="acutecomb"/>
    <contour>
      <point x="47" y="520" type="move" name="_top"/>
    </contour>
  </outline>
</glyph>
<glyph name="commaaccentcomb" format="1">
  <advance width="285"/>
  <unicode hex="0326"/>
  <outline>
    <contour>
      <point x="166" y="-301" type="line"/>
      <point x="239" y="-30" type="line"/>
      <point x="71" y="-30" type="line"/>
      <point x="42" y="-301" type="line"/>
    </contour>
    <contour>
      <point x="151" y="0" type="move" name="_bottom"/>
    </contour>
  </outline>
</glyph>
<glyph name="cedillacomb" format="1">
  <advance width="189"/>
  <unicode hex="0327"/>
  <outline>
    <component base="ogonek" xScale="-1" xOffset="189"/>
    <contour>
      <point x="77" y="-20" type="move" name="_bottom"/>
    </contour>
  </outline>
</glyph>
<glyph name="ogonekcomb" format="1">
  <advance width="189"/>
  <unicode hex="0328"/>
  <outline>
    <contour>
      <point x="189" y="-178" type="curve"/>
      <point x="177" y="-83" type="line"/>
      <point x="154" y="-100"/>
      <point x="128" y="-97"/>
      <point x="122" y="-79" type="curve" smooth="yes"/>
      <point x="115" y="-59"/>
      <point x="139" y="-31"/>
      <point x="189" y="0" type="curve"/>
      <point x="63" y="0" type="line"/>
      <point x="11" y="-41"/>
      <point x="-9" y="-87"/>
      <point x="4" y="-131" type="curve" smooth="yes"/>
      <point x="31" y="-225"/>
      <point x="154" y="-199"/>
    </contour>
    <contour>
      <point x="110" y="-18" type="move" name="_bottom"/>
    </contour>
  </outline>
</glyph>
<glyph name="strokelongcomb" format="1">
  <advance width="634"/>
  <unicode hex="0336"/>
  <outline>
    <contour>
      <point x="0" y="505" type="line"/>
      <point x="634" y="505" type="line"/>
      <point x="634" y="630" type="line"/>
      <point x="0" y="630" type="line"/>
    </contour>
    <contour>
      <point x="317" y="505" type="move" name="_strokelong"/>
    </contour>
  </outline>
</glyph>
<glyph name="slashshortcomb" format="1">
  <advance width="519"/>
  <unicode hex="0337"/>
  <outline>
    <contour>
      <point x="597" y="374" type="line"/>
      <point x="505" y="480" type="line"/>
      <point x="-20" y="17" type="line"/>
      <point x="72" y="-89" type="line"/>
    </contour>
  </outline>
</glyph>
<glyph name="slashlongcomb" format="1">
  <advance width="434"/>
  <unicode hex="0338"/>
  <outline>
    <contour>
      <point x="0" y="10" type="line"/>
      <point x="58" y="-30" type="line"/>
      <point x="434" y="690" type="line"/>
      <point x="376" y="730" type="line"/>
    </contour>
  </outline>
</glyph>
<glyph name="Delta" format="1">
  <advance width="676"/>
  <unicode hex="0394"/>
  <outline>
    <contour>
      <point x="658" y="0" type="line"/>
      <point x="658" y="159" type="line"/>
      <point x="404" y="700" type="line"/>
      <point x="271" y="700" type="line"/>
      <point x="18" y="160" type="line"/>
      <point x="18" y="0" type="line"/>
    </contour>
    <contour>
      <point x="338" y="460" type="line"/>
      <point x="475" y="162" type="line"/>
      <point x="201" y="162" type="line"/>
    </contour>
  </outline>
</glyph>
<glyph name="pi" format="1">
  <advance width="600"/>
  <unicode hex="03C0"/>
  <outline>
    <contour>
      <point x="582" y="159" type="line"/>
      <point x="555" y="157"/>
      <point x="522" y="141"/>
      <point x="522" y="223" type="curve"/>
      <point x="522" y="520" type="line"/>
      <point x="334" y="520" type="line"/>
      <point x="334" y="116" type="line"/>
      <point x="331" y="-36"/>
      <point x="500" y="-1"/>
      <point x="582" y="0" type="curve"/>
    </contour>
    <contour>
      <point x="221" y="0" type="line"/>
      <point x="221" y="520" type="line"/>
      <point x="33" y="520" type="line"/>
      <point x="33" y="0" type="line"/>
    </contour>
    <contour>
      <point x="592" y="360" type="line"/>
      <point x="592" y="520" type="line"/>
      <point x="-37" y="520" type="line"/>
      <point x="-37" y="360" type="line"/>
    </contour>
  </outline>
</glyph>
<glyph name="emdash" format="1">
  <advance width="521"/>
  <unicode hex="2014"/>
  <outline>
    <contour>
      <point x="504" y="165" type="line"/>
      <point x="504" y="325" type="line"/>
      <point x="17" y="325" type="line"/>
      <point x="17" y="165" type="line"/>
    </contour>
  </outline>
</glyph>
<glyph name="quoteleft" format="1">
  <advance width="246"/>
  <unicode hex="2018"/>
  <outline>
    <contour>
      <point x="98" y="700" type="line"/>
      <point x="0" y="460" type="line"/>
      <point x="189" y="460" type="line"/>
      <point x="246" y="700" type="line"/>
    </contour>
  </outline>
</glyph>
<glyph name="quotedblleft" format="1">
  <advance width="428"/>
  <unicode hex="201C"/>
  <outline>
    <contour>
      <point x="181" y="460" type="line"/>
      <point x="224" y="700" type="line"/>
      <point x="82" y="700" type="line"/>
      <point x="0" y="460" type="line"/>
    </contour>
    <contour>
      <point x="387" y="460" type="line"/>
      <point x="428" y="700" type="line"/>
      <point x="286" y="700" type="line"/>
      <point x="206" y="460" type="line"/>
    </contour>
  </outline>
</glyph>
<glyph name="dagger" format="1">
  <advance width="464"/>
  <unicode hex="2020"/>
  <outline>
    <contour>
      <point x="326" y="-200" type="line"/>
      <point x="326" y="700" type="line"/>
      <point x="138" y="700" type="line"/>
      <point x="138" y="-200" type="line"/>
    </contour>
    <contour>
      <point x="442" y="320" type="line"/>
      <point x="442" y="460" type="line"/>
      <point x="22" y="460" type="line"/>
      <point x="22" y="320" type="line"/>
    </contour>
  </outline>
</glyph>
<glyph name="daggerdbl" format="1">
  <advance width="464"/>
  <unicode hex="2021"/>
  <outline>
    <contour>
      <point x="138" y="-200" type="line"/>
      <point x="326" y="-200" type="line"/>
      <point x="326" y="700" type="line"/>
      <point x="138" y="700" type="line"/>
    </contour>
    <contour>
      <point x="22" y="40" type="line"/>
      <point x="442" y="40" type="line"/>
      <point x="442" y="180" type="line"/>
      <point x="22" y="180" type="line"/>
    </contour>
    <contour>
      <point x="22" y="320" type="line"/>
      <point x="442" y="320" type="line"/>
      <point x="442" y="460" type="line"/>
      <point x="22" y="460" type="line"/>
    </contour>
  </outline>
</glyph>
<glyph name="bullet" format="1">
  <advance width="322"/>
  <unicode hex="2022"/>
  <outline>
    <contour>
      <point x="238" y="143"/>
      <point x="300" y="206"/>
      <point x="300" y="283" type="curve" smooth="yes"/>
      <point x="300" y="361"/>
      <point x="238" y="422"/>
      <point x="162" y="422" type="curve" smooth="yes"/>
      <point x="84" y="422"/>
      <point x="22" y="361"/>
      <point x="22" y="283" type="curve" smooth="yes"/>
      <point x="22" y="206"/>
      <point x="84" y="143"/>
      <point x="162" y="143" type="curve" smooth="yes"/>
    </contour>
  </outline>
</glyph>
<glyph name="guilsinglright" format="1">
  <advance width="307"/>
  <unicode hex="203A"/>
  <outline>
    <contour>
      <point x="193" y="107" type="line"/>
      <point x="277" y="281" type="line"/>
      <point x="193" y="455" type="line"/>
      <point x="39" y="455" type="line"/>
      <point x="126" y="281" type="line"/>
      <point x="39" y="107" type="line"/>
    </contour>
  </outline>
</glyph>
<glyph name="euro" format="1">
  <advance width="603"/>
  <unicode hex="20AC"/>
  <outline>
    <contour>
      <point x="471" y="-8"/>
      <point x="561" y="65"/>
      <point x="575" y="182" type="curve"/>
      <point x="389" y="215" type="line"/>
      <point x="387" y="178"/>
      <point x="368" y="153"/>
      <point x="340" y="153" type="curve" smooth="yes"/>
      <point x="311" y="153"/>
      <point x="291" y="181"/>
      <point x="291" y="222" type="curve" smooth="yes"/>
      <point x="291" y="477" type="line" smooth="yes"/>
      <point x="291" y="519"/>
      <point x="311" y="547"/>
      <point x="340" y="547" type="curve" smooth="yes"/>
      <point x="366" y="547"/>
      <point x="384" y="526"/>
      <point x="388" y="493" type="curve"/>
      <point x="576" y="515" type="line"/>
      <point x="563" y="635"/>
      <point x="473" y="708"/>
      <point x="340" y="708" type="curve" smooth="yes"/>
      <point x="197" y="708"/>
      <point x="103" y="617"/>
      <point x="103" y="472" type="curve" smooth="yes"/>
      <point x="103" y="230" type="line" smooth="yes"/>
      <point x="103" y="85"/>
      <point x="197" y="-8"/>
      <point x="340" y="-8" type="curve" smooth="yes"/>
    </contour>
    <contour>
      <point x="405" y="247" type="line"/>
      <point x="432" y="341" type="line"/>
      <point x="30" y="341" type="line"/>
      <point x="30" y="247" type="line"/>
    </contour>
    <contour>
      <point x="437" y="362" type="line"/>
      <point x="463" y="456" type="line"/>
      <point x="30" y="456" type="line"/>
      <point x="30" y="362" type="line"/>
    </contour>
    <contour>
      <point x="340" y="708" type="move" name="top"/>
    </contour>
  </outline>
</glyph>
<glyph name="uni20BA" format="1">
  <advance width="655"/>
  <unicode hex="20BA"/>
  <outline>
    <contour>
      <point x="60" y="216" type="line"/>
      <point x="518" y="345" type="line"/>
      <point x="488" y="445" type="line"/>
      <point x="30" y="316" type="line"/>
    </contour>
    <contour>
      <point x="60" y="366" type="line"/>
      <point x="518" y="495" type="line"/>
      <point x="488" y="595" type="line"/>
      <point x="30" y="466" type="line"/>
    </contour>
    <contour>
      <point x="136" y="0" type="line"/>
      <point x="192" y="0"/>
      <point x="248" y="0"/>
      <point x="304" y="0" type="curve" smooth="yes"/>
      <point x="528" y="0"/>
      <point x="628" y="147"/>
      <point x="628" y="291" type="curve"/>
      <point x="440" y="291" type="line"/>
      <point x="440" y="219"/>
      <point x="412" y="168"/>
      <point x="324" y="161" type="curve"/>
      <point x="324" y="700" type="line"/>
      <point x="136" y="700" type="line"/>
    </contour>
  </outline>
</glyph>
<glyph name="uni20BD" format="1">
  <advance width="702"/>
  <unicode hex="20BD"/>
  <outline>
    <contour>
      <point x="326" y="0" type="line"/>
      <point x="326" y="539" type="line"/>
      <point x="415" y="539" type="line" smooth="yes"/>
      <point x="469" y="539"/>
      <point x="497" y="516"/>
      <point x="497" y="471" type="curve" smooth="yes"/>
      <point x="497" y="427"/>
      <point x="469" y="405"/>
      <point x="415" y="405" type="curve" smooth="yes"/>
      <point x="39" y="405" type="line"/>
      <point x="39" y="255" type="line"/>
      <point x="437" y="255" type="line" smooth="yes"/>
      <point x="573" y="255"/>
      <point x="684" y="342"/>
      <point x="684" y="475" type="curve" smooth="yes"/>
      <point x="684" y="608"/>
      <point x="588" y="700"/>
      <point x="446" y="700" type="curve" smooth="yes"/>
      <point x="138" y="700" type="line"/>
      <point x="138" y="0" type="line"/>
    </contour>
    <contour>
      <point x="39" y="114" type="line"/>
      <point x="501" y="114" type="line"/>
      <point x="501" y="220" type="line"/>
      <point x="39" y="220" type="line"/>
    </contour>
  </outline>
</glyph>
<glyph name="uni2113" format="1">
  <advance width="500"/>
  <unicode hex="2113"/>
  <outline>
    <contour>
      <point x="290" y="-8" type="curve"/>
      <point x="376" y="-8"/>
      <point x="422" y="14"/>
      <point x="464" y="68" type="curve"/>
      <point x="365" y="169" type="line"/>
      <point x="354" y="150"/>
      <point x="332" y="132"/>
      <point x="306" y="132" type="curve"/>
      <point x="282" y="132"/>
      <point x="260" y="149"/>
      <point x="260" y="205" type="curve" smooth="yes"/>
      <point x="258" y="473" type="line" smooth="yes"/>
      <point x="257" y="564"/>
      <point x="272" y="576"/>
      <point x="292" y="577" type="curve"/>
      <point x="315" y="576"/>
      <point x="320" y="558"/>
      <point x="320" y="532" type="curve"/>
      <point x="320" y="434"/>
      <point x="177" y="339"/>
      <point x="36" y="268" type="curve"/>
      <point x="73" y="145" type="line"/>
      <point x="266" y="249"/>
      <point x="457" y="366"/>
      <point x="457" y="549" type="curve"/>
      <point x="457" y="642"/>
      <point x="394" y="707"/>
      <point x="296" y="707" type="curve" smooth="yes"/>
      <point x="160" y="707"/>
      <point x="106" y="582"/>
      <point x="106" y="503" type="curve"/>
      <point x="108" y="175" type="line"/>
      <point x="108" y="61"/>
      <point x="177" y="-8"/>
    </contour>
  </outline>
</glyph>
<glyph name="trademark" format="1">
  <advance width="678"/>
  <unicode hex="2122"/>
  <outline>
    <contour>
      <point x="434" y="349" type="line"/>
      <point x="434" y="553" type="line"/>
      <point x="476" y="498" type="line"/>
      <point x="518" y="498" type="line"/>
      <point x="560" y="553" type="line"/>
      <point x="560" y="349" type="line"/>
      <point x="658" y="349" type="line"/>
      <point x="658" y="700" type="line"/>
      <point x="563" y="700" type="line"/>
      <point x="497" y="615" type="line"/>
      <point x="432" y="700" type="line"/>
      <point x="336" y="700" type="line"/>
      <point x="336" y="349" type="line"/>
    </contour>
    <contour>
      <point x="203" y="349" type="line"/>
      <point x="203" y="695" type="line"/>
      <point x="105" y="695" type="line"/>
      <point x="105" y="349" type="line"/>
    </contour>
    <contour>
      <point x="301" y="616" type="line"/>
      <point x="301" y="700" type="line"/>
      <point x="9" y="700" type="line"/>
      <point x="9" y="616" type="line"/>
    </contour>
  </outline>
</glyph>
<glyph name="estimated" format="1">
  <advance width="805"/>
  <unicode hex="212E"/>
  <outline>
    <contour>
      <point x="698" y="209" type="line"/>
      <point x="647" y="107"/>
      <point x="523" y="33"/>
      <point x="402" y="33" type="curve" smooth="yes"/>
      <point x="211" y="33"/>
      <point x="72" y="165"/>
      <point x="72" y="347" type="curve" smooth="yes"/>
      <point x="72" y="533"/>
      <point x="211" y="667"/>
      <point x="402" y="667" type="curve" smooth="yes"/>
      <point x="593" y="667"/>
      <point x="732" y="533"/>
      <point x="732" y="347" type="curve" smooth="yes"/>
      <point x="732" y="346"/>
      <point x="732" y="344"/>
      <point x="732" y="343" type="curve"/>
      <point x="775" y="343" type="line"/>
      <point x="775" y="344"/>
      <point x="775" y="346"/>
      <point x="775" y="347" type="curve" smooth="yes"/>
      <point x="775" y="556"/>
      <point x="618" y="708"/>
      <point x="402" y="708" type="curve" smooth="yes"/>
      <point x="186" y="708"/>
      <point x="30" y="556"/>
      <point x="30" y="347" type="curve" smooth="yes"/>
      <point x="30" y="141"/>
      <point x="186" y="-8"/>
      <point x="402" y="-8" type="curve" smooth="yes"/>
      <point x="548" y="-8"/>
      <point x="692" y="83"/>
      <point x="746" y="209" type="curve"/>
    </contour>
    <contour>
      <point x="51" y="343" type="line"/>
      <point x="752" y="343" type="line"/>
      <point x="752" y="384" type="line"/>
      <point x="51" y="384" type="line"/>
    </contour>
    <contour>
      <point x="86" y="546"/>
      <point x="50" y="437"/>
      <point x="50" y="353" type="curve" smooth="yes"/>
      <point x="50" y="236"/>
      <point x="85" y="123"/>
      <point x="162" y="83" type="curve"/>
      <point x="163" y="614" type="line"/>
    </contour>
    <contour>
      <point x="754" y="444"/>
      <point x="719" y="555"/>
      <point x="642" y="616" type="curve"/>
      <point x="642" y="352" type="line"/>
      <point x="754" y="352" type="line"/>
    </contour>
  </outline>
</glyph>
<glyph name="partialdiff" format="1">
  <advance width="609"/>
  <unicode hex="2202"/>
  <outline>
    <contour>
      <point x="456" y="-8"/>
      <point x="557" y="109"/>
      <point x="571" y="275" type="curve" smooth="yes"/>
      <point x="580" y="384"/>
      <point x="554" y="526"/>
      <point x="473" y="616" type="curve" smooth="yes"/>
      <point x="422" y="673"/>
      <point x="355" y="702"/>
      <point x="275" y="704" type="curve" smooth="yes"/>
      <point x="212" y="706"/>
      <point x="142" y="691"/>
      <point x="62" y="655" type="curve"/>
      <point x="126" y="487" type="line"/>
      <point x="181" y="515"/>
      <point x="226" y="527"/>
      <point x="262" y="525" type="curve" smooth="yes"/>
      <point x="293" y="523"/>
      <point x="317" y="511"/>
      <point x="335" y="490" type="curve" smooth="yes"/>
      <point x="364" y="456"/>
      <point x="376" y="400"/>
      <point x="378" y="338" type="curve" smooth="yes"/>
      <point x="382" y="218"/>
      <point x="345" y="153"/>
      <point x="284" y="153" type="curve" smooth="yes"/>
      <point x="239" y="153"/>
      <point x="206" y="189"/>
      <point x="206" y="231" type="curve" smooth="yes"/>
      <point x="206" y="277"/>
      <point x="246" y="307"/>
      <point x="290" y="309" type="curve" smooth="yes"/>
      <point x="331" y="311"/>
      <point x="374" y="290"/>
      <point x="390" y="246" type="curve"/>
      <point x="521" y="311" type="line"/>
      <point x="492" y="397"/>
      <point x="384" y="454"/>
      <point x="274" y="458" type="curve" smooth="yes"/>
      <point x="146" y="462"/>
      <point x="18" y="393"/>
      <point x="18" y="225" type="curve" smooth="yes"/>
      <point x="18" y="73"/>
      <point x="122" y="-8"/>
      <point x="274" y="-8" type="curve" smooth="yes"/>
    </contour>
  </outline>
</glyph>
<glyph name="product" format="1">
  <advance width="614"/>
  <unicode hex="220F"/>
  <outline>
    <contour>
      <point x="396" y="-200" type="line"/>
      <point x="584" y="-200" type="line"/>
      <point x="584" y="800" type="line"/>
      <point x="396" y="800" type="line"/>
    </contour>
    <contour>
      <point x="39" y="-200" type="line"/>
      <point x="227" y="-200" type="line"/>
      <point x="227" y="800" type="line"/>
      <point x="39" y="800" type="line"/>
    </contour>
    <contour>
      <point x="39" y="639" type="line"/>
      <point x="584" y="639" type="line"/>
      <point x="584" y="800" type="line"/>
      <point x="39" y="800" type="line"/>
    </contour>
  </outline>
</glyph>
<glyph name="summation" format="1">
  <advance width="584"/>
  <unicode hex="2211"/>
  <outline>
    <contour>
      <point x="560" y="-200" type="line"/>
      <point x="560" y="-39" type="line"/>
      <point x="230" y="-39" type="line"/>
      <point x="468" y="330" type="line"/>
      <point x="230" y="639" type="line"/>
      <point x="560" y="639" type="line"/>
      <point x="560" y="800" type="line"/>
      <point x="39" y="800" type="line"/>
      <point x="39" y="639" type="line"/>
      <point x="266" y="330" type="line"/>
      <point x="39" y="-39" type="line"/>
      <point x="39" y="-200" type="line"/>
    </contour>
  </outline>
</glyph>
<glyph name="minus" format="1">
  <advance width="475"/>
  <unicode hex="2212"/>
  <outline>
    <contour>
      <point x="453" y="212" type="line"/>
      <point x="453" y="372" type="line"/>
      <point x="22" y="372" type="line"/>
      <point x="22" y="212" type="line"/>
    </contour>
  </outline>
</glyph>
<glyph name="divisionslash" format="1">
  <advance width="556"/>
  <unicode hex="2215"/>
  <outline>
    <contour>
      <point x="185" y="0" type="line"/>
      <point x="544" y="700" type="line"/>
      <point x="372" y="700" type="line"/>
      <point x="12" y="0" type="line"/>
    </contour>
  </outline>
</glyph>
<glyph name="bulletoperator" format="1">
  <advance width="322"/>
  <unicode hex="2219"/>
  <outline>
    <contour>
      <point x="162" y="148" type="curve" smooth="yes"/>
      <point x="238" y="148"/>
      <point x="300" y="211"/>
      <point x="300" y="288" type="curve" smooth="yes"/>
      <point x="300" y="366"/>
      <point x="238" y="427"/>
      <point x="162" y="427" type="curve" smooth="yes"/>
      <point x="84" y="427"/>
      <point x="22" y="366"/>
      <point x="22" y="288" type="curve" smooth="yes"/>
      <point x="22" y="211"/>
      <point x="84" y="148"/>
    </contour>
  </outline>
</glyph>
<glyph name="infinity" format="1">
  <advance width="788"/>
  <unicode hex="221E"/>
  <outline>
    <contour>
      <point x="166" y="355"/>
      <point x="189" y="378"/>
      <point x="226" y="378" type="curve" smooth="yes"/>
      <point x="261" y="378"/>
      <point x="275" y="358"/>
      <point x="328" y="280" type="curve" smooth="yes"/>
      <point x="401" y="172"/>
      <point x="459" y="117"/>
      <point x="558" y="117" type="curve" smooth="yes"/>
      <point x="681" y="117"/>
      <point x="766" y="203"/>
      <point x="766" y="319" type="curve" smooth="yes"/>
      <point x="766" y="434"/>
      <point x="681" y="522"/>
      <point x="563" y="522" type="curve" smooth="yes"/>
      <point x="455" y="522"/>
      <point x="394" y="449"/>
      <point x="329" y="361" type="curve" smooth="yes"/>
      <point x="275" y="288"/>
      <point x="256" y="261"/>
      <point x="222" y="261" type="curve" smooth="yes"/>
      <point x="190" y="261"/>
      <point x="166" y="286"/>
      <point x="166" y="321" type="curve" smooth="yes"/>
    </contour>
    <contour>
      <point x="22" y="207"/>
      <point x="109" y="117"/>
      <point x="220" y="117" type="curve" smooth="yes"/>
      <point x="338" y="117"/>
      <point x="404" y="218"/>
      <point x="447" y="279" type="curve" smooth="yes"/>
      <point x="500" y="354"/>
      <point x="530" y="378"/>
      <point x="565" y="378" type="curve" smooth="yes"/>
      <point x="599" y="378"/>
      <point x="622" y="355"/>
      <point x="622" y="319" type="curve" smooth="yes"/>
      <point x="622" y="283"/>
      <point x="600" y="261"/>
      <point x="560" y="261" type="curve" smooth="yes"/>
      <point x="523" y="261"/>
      <point x="502" y="280"/>
      <point x="448" y="360" type="curve" smooth="yes"/>
      <point x="403" y="427"/>
      <point x="343" y="522"/>
      <point x="223" y="522" type="curve" smooth="yes"/>
      <point x="109" y="522"/>
      <point x="22" y="435"/>
      <point x="22" y="321" type="curve" smooth="yes"/>
    </contour>
  </outline>
</glyph>
<glyph name="integral" format="1">
  <advance width="422"/>
  <unicode hex="222B"/>
  <outline>
    <contour>
      <point x="234" y="-208"/>
      <point x="305" y="-181"/>
      <point x="305" y="-56" type="curve" smooth="yes"/>
      <point x="305" y="529" type="line" smooth="yes"/>
      <point x="305" y="552"/>
      <point x="315" y="572"/>
      <point x="343" y="575" type="curve"/>
      <point x="402" y="575" type="line"/>
      <point x="402" y="700" type="line"/>
      <point x="188" y="708"/>
      <point x="117" y="681"/>
      <point x="117" y="556" type="curve" smooth="yes"/>
      <point x="117" y="-29" type="line" smooth="yes"/>
      <point x="117" y="-52"/>
      <point x="106" y="-72"/>
      <point x="79" y="-75" type="curve"/>
      <point x="20" y="-75" type="line"/>
      <point x="20" y="-200" type="line"/>
    </contour>
  </outline>
</glyph>
<glyph name="notequal" format="1">
  <advance width="460"/>
  <unicode hex="2260"/>
  <outline>
    <contour>
      <point x="413" y="593" type="line"/>
      <point x="303" y="593" type="line"/>
      <point x="81" y="69" type="line"/>
      <point x="191" y="69" type="line"/>
    </contour>
    <component base="equal"/>
  </outline>
</glyph>
<glyph name="lozenge" format="1">
  <advance width="580"/>
  <unicode hex="25CA"/>
  <outline>
    <contour>
      <point x="228" y="-60" type="line"/>
      <point x="352" y="-60" type="line"/>
      <point x="558" y="350" type="line"/>
      <point x="351" y="760" type="line"/>
      <point x="229" y="760" type="line"/>
      <point x="22" y="350" type="line"/>
    </contour>
    <contour>
      <point x="290" y="138" type="line"/>
      <point x="192" y="350" type="line"/>
      <point x="290" y="562" type="line"/>
      <point x="388" y="350" type="line"/>
    </contour>
  </outline>
</glyph>
<glyph name=".notdef" format="1">
  <advance width="511"/>
  <outline>
    <contour>
      <point x="0" y="0" type="line"/>
      <point x="0" y="700" type="line"/>
      <point x="511" y="700" type="line"/>
      <point x="511" y="0" type="line"/>
    </contour>
    <component base="question" xScale="0.714" yScale="0.714" xOffset="56" yOffset="93"/>
  </outline>
</glyph>
<glyph name="a.alt" format="1">
  <advance width="547"/>
  <outline>
    <contour>
      <point x="514" y="0" type="line"/>
      <point x="514" y="520" type="line"/>
      <point x="326" y="520" type="line"/>
      <point x="326" y="0" type="line"/>
    </contour>
    <component base="b.bowl" xOffset="385" xScale="-1"/>
    <contour>
      <point x="267" y="520" type="move" name="top"/>
    </contour>
  </outline>
</glyph>
<glyph name="a.sc" format="1">
  <advance width="605"/>
  <outline>
    <contour>
      <point x="11" y="0" type="line"/>
      <point x="199" y="0" type="line"/>
      <point x="303" y="396" type="line"/>
      <point x="406" y="0" type="line"/>
      <point x="594" y="0" type="line"/>
      <point x="408" y="578" type="line"/>
      <point x="197" y="578" type="line"/>
    </contour>
    <contour>
      <point x="159" y="66" type="line"/>
      <point x="443" y="66" type="line"/>
      <point x="443" y="210" type="line"/>
      <point x="159" y="210" type="line"/>
    </contour>
    <contour>
      <point x="301" y="578" type="move" name="top"/>
    </contour>
  </outline>
</glyph>
<glyph name="ae.alt" format="1">
  <advance width="863"/>
  <outline>
    <contour>
      <point x="316" y="-8"/>
      <point x="389" y="34"/>
      <point x="415" y="83" type="curve"/>
      <point x="455" y="26"/>
      <point x="512" y="-8"/>
      <point x="593" y="-8" type="curve" smooth="yes"/>
      <point x="718" y="-8"/>
      <point x="815" y="51"/>
      <point x="836" y="160" type="curve"/>
      <point x="650" y="186" type="line"/>
      <point x="644" y="169"/>
      <point x="625" y="153"/>
      <point x="597" y="153" type="curve" smooth="yes"/>
      <point x="574" y="153"/>
      <point x="551" y="167"/>
      <point x="541" y="186" type="curve" smooth="yes"/>
      <point x="537" y="193"/>
      <point x="535" y="200"/>
      <point x="535" y="208" type="curve"/>
      <point x="846" y="208" type="line"/>
      <point x="846" y="312"/>
      <point x="846" y="328"/>
      <point x="827" y="376" type="curve" smooth="yes"/>
      <point x="788" y="477"/>
      <point x="696" y="528"/>
      <point x="594" y="528" type="curve" smooth="yes"/>
      <point x="518" y="528"/>
      <point x="455" y="494"/>
      <point x="422" y="448" type="curve"/>
      <point x="393" y="490"/>
      <point x="325" y="528"/>
      <point x="244" y="528" type="curve" smooth="yes"/>
      <point x="127" y="528"/>
      <point x="17" y="452"/>
      <point x="17" y="356" type="curve"/>
      <point x="205" y="332" type="line"/>
      <point x="206" y="352"/>
      <point x="229" y="367"/>
      <point x="261" y="367" type="curve" smooth="yes"/>
      <point x="296" y="367"/>
      <point x="318" y="348"/>
      <point x="318" y="320" type="curve" smooth="yes"/>
      <point x="318" y="305" type="line"/>
      <point x="220" y="305" type="line" smooth="yes"/>
      <point x="81" y="305"/>
      <point x="12" y="242"/>
      <point x="12" y="150" type="curve" smooth="yes"/>
      <point x="12" y="50"/>
      <point x="94" y="-8"/>
      <point x="214" y="-8" type="curve" smooth="yes"/>
    </contour>
    <contour>
      <point x="213" y="120"/>
      <point x="200" y="144"/>
      <point x="200" y="164" type="curve" smooth="yes"/>
      <point x="200" y="190"/>
      <point x="222" y="208"/>
      <point x="263" y="208" type="curve" smooth="yes"/>
      <point x="318" y="208" type="line"/>
      <point x="318" y="184" type="line" smooth="yes"/>
      <point x="318" y="147"/>
      <point x="285" y="120"/>
      <point x="248" y="120" type="curve" smooth="yes"/>
    </contour>
    <contour>
      <point x="536" y="317"/>
      <point x="539" y="328"/>
      <point x="544" y="338" type="curve" smooth="yes"/>
      <point x="553" y="356"/>
      <point x="567" y="367"/>
      <point x="593" y="367" type="curve" smooth="yes"/>
      <point x="615" y="367"/>
      <point x="631" y="358"/>
      <point x="642" y="337" type="curve" smooth="yes"/>
      <point x="645" y="331"/>
      <point x="651" y="314"/>
      <point x="653" y="305" type="curve"/>
      <point x="533" y="305" type="line"/>
    </contour>
  </outline>
</glyph>
<glyph name="ae.sc" format="1">
  <advance width="858"/>
  <outline>
    <contour>
      <point x="11" y="0" type="line"/>
      <point x="218" y="0" type="line"/>
      <point x="388" y="359" type="line"/>
      <point x="388" y="0" type="line"/>
      <point x="845" y="0" type="line"/>
      <point x="845" y="161" type="line"/>
      <point x="577" y="161" type="line"/>
      <point x="577" y="417" type="line"/>
      <point x="845" y="417" type="line"/>
      <point x="845" y="578" type="line"/>
      <point x="300" y="578" type="line"/>
    </contour>
    <contour>
      <point x="111" y="66" type="line"/>
      <point x="422" y="66" type="line"/>
      <point x="441" y="210" type="line"/>
      <point x="149" y="210" type="line"/>
    </contour>
    <contour>
      <point x="464" y="214" type="line"/>
      <point x="746" y="214" type="line"/>
      <point x="746" y="374" type="line"/>
      <point x="464" y="374" type="line"/>
    </contour>
  </outline>
</glyph>
<glyph name="at.alt" format="1">
  <advance width="782"/>
  <outline>
    <contour>
      <point x="420" y="196"/>
      <point x="447" y="229"/>
      <point x="447" y="308" type="curve"/>
      <point x="447" y="381" type="line"/>
      <point x="369" y="381" type="line"/>
      <point x="288" y="381"/>
      <point x="246" y="346"/>
      <point x="246" y="285" type="curve" smooth="yes"/>
      <point x="246" y="224"/>
      <point x="286" y="196"/>
      <point x="351" y="196" type="curve" smooth="yes"/>
    </contour>
    <contour>
      <point x="366" y="259"/>
      <point x="357" y="266"/>
      <point x="357" y="281" type="curve" smooth="yes"/>
      <point x="357" y="299"/>
      <point x="370" y="307"/>
      <point x="394" y="307" type="curve"/>
      <point x="427" y="307" type="line"/>
      <point x="427" y="297" type="line" smooth="yes"/>
      <point x="427" y="272"/>
      <point x="408" y="259"/>
      <point x="384" y="259" type="curve" smooth="yes"/>
    </contour>
    <contour>
      <point x="538" y="201" type="line"/>
      <point x="538" y="410" type="line" smooth="yes"/>
      <point x="538" y="467"/>
      <point x="473" y="513"/>
      <point x="391" y="513" type="curve" smooth="yes"/>
      <point x="309" y="513"/>
      <point x="250" y="468"/>
      <point x="249" y="411" type="curve"/>
      <point x="360" y="397" type="line"/>
      <point x="361" y="409"/>
      <point x="374" y="418"/>
      <point x="393" y="418" type="curve" smooth="yes"/>
      <point x="414" y="418"/>
      <point x="427" y="406"/>
      <point x="427" y="390" type="curve" smooth="yes"/>
      <point x="427" y="201" type="line"/>
    </contour>
    <contour>
      <point x="599" y="-8"/>
      <point x="752" y="144"/>
      <point x="752" y="356" type="curve" smooth="yes"/>
      <point x="752" y="557"/>
      <point x="599" y="708"/>
      <point x="390" y="708" type="curve" smooth="yes"/>
      <point x="183" y="708"/>
      <point x="30" y="557"/>
      <point x="30" y="356" type="curve" smooth="yes"/>
      <point x="30" y="144"/>
      <point x="183" y="-8"/>
      <point x="390" y="-8" type="curve" smooth="yes"/>
    </contour>
    <contour>
      <point x="241" y="92"/>
      <point x="132" y="201"/>
      <point x="132" y="356" type="curve" smooth="yes"/>
      <point x="132" y="500"/>
      <point x="241" y="608"/>
      <point x="390" y="608" type="curve" smooth="yes"/>
      <point x="540" y="608"/>
      <point x="650" y="500"/>
      <point x="650" y="356" type="curve" smooth="yes"/>
      <point x="650" y="201"/>
      <point x="540" y="92"/>
      <point x="390" y="92" type="curve" smooth="yes"/>
    </contour>
  </outline>
</glyph>
<glyph name="b.bowl" format="1">
  <advance width="364"/>
  <outline>
    <contour>
      <point x="271" y="-8"/>
      <point x="320" y="26"/>
      <point x="348" y="79" type="curve" smooth="yes"/>
      <point x="374" y="127"/>
      <point x="382" y="191"/>
      <point x="382" y="260" type="curve" smooth="yes"/>
      <point x="382" y="334"/>
      <point x="372" y="405"/>
      <point x="341" y="455" type="curve" smooth="yes"/>
      <point x="314" y="500"/>
      <point x="269" y="528"/>
      <point x="199" y="528" type="curve" smooth="yes"/>
      <point x="74" y="528"/>
      <point x="26" y="452"/>
      <point x="8" y="347" type="curve" smooth="yes"/>
      <point x="2" y="312"/>
      <point x="1" y="282"/>
      <point x="1" y="265" type="curve" smooth="yes"/>
      <point x="1" y="248"/>
      <point x="2" y="212"/>
      <point x="7" y="180" type="curve" smooth="yes"/>
      <point x="22" y="83"/>
      <point x="87" y="-8"/>
      <point x="189" y="-8" type="curve"/>
    </contour>
    <contour>
      <point x="102" y="153"/>
      <point x="84" y="165"/>
      <point x="72" y="187" type="curve" smooth="yes"/>
      <point x="62" y="205"/>
      <point x="59" y="230"/>
      <point x="59" y="262" type="curve" smooth="yes"/>
      <point x="59" y="290"/>
      <point x="63" y="313"/>
      <point x="70" y="330" type="curve" smooth="yes"/>
      <point x="80" y="354"/>
      <point x="99" y="367"/>
      <point x="125" y="367" type="curve" smooth="yes"/>
      <point x="151" y="367"/>
      <point x="170" y="355"/>
      <point x="181" y="332" type="curve" smooth="yes"/>
      <point x="190" y="314"/>
      <point x="195" y="289"/>
      <point x="195" y="257" type="curve" smooth="yes"/>
      <point x="195" y="227"/>
      <point x="191" y="203"/>
      <point x="182" y="186" type="curve" smooth="yes"/>
      <point x="170" y="164"/>
      <point x="152" y="153"/>
      <point x="127" y="153" type="curve" smooth="yes"/>
    </contour>
  </outline>
</glyph>
<glyph name="b.sc" format="1">
  <advance width="587"/>
  <outline>
    <contour>
      <point x="309" y="0" type="line" smooth="yes"/>
      <point x="445" y="0"/>
      <point x="559" y="44"/>
      <point x="559" y="174" type="curve" smooth="yes"/>
      <point x="559" y="301"/>
      <point x="458" y="351"/>
      <point x="221" y="351" type="curve"/>
      <point x="33" y="349" type="line"/>
      <point x="33" y="0" type="line"/>
    </contour>
    <contour>
      <point x="221" y="225" type="line"/>
      <point x="325" y="225" type="line" smooth="yes"/>
      <point x="350" y="225"/>
      <point x="371" y="216"/>
      <point x="371" y="195" type="curve" smooth="yes"/>
      <point x="371" y="170"/>
      <point x="350" y="161"/>
      <point x="324" y="161" type="curve" smooth="yes"/>
      <point x="221" y="161" type="line"/>
    </contour>
    <contour>
      <point x="223" y="273" type="line" smooth="yes"/>
      <point x="434" y="271"/>
      <point x="548" y="300"/>
      <point x="548" y="428" type="curve" smooth="yes"/>
      <point x="548" y="562"/>
      <point x="458" y="602"/>
      <point x="300" y="602" type="curve"/>
      <point x="33" y="602" type="line"/>
      <point x="33" y="275" type="line"/>
    </contour>
    <contour>
      <point x="221" y="441" type="line"/>
      <point x="315" y="441" type="line"/>
      <point x="343" y="441"/>
      <point x="364" y="432"/>
      <point x="364" y="410" type="curve" smooth="yes"/>
      <point x="364" y="388"/>
      <point x="343" y="378"/>
      <point x="315" y="378" type="curve"/>
      <point x="221" y="378" type="line"/>
    </contour>
  </outline>
</glyph>
<glyph name="c.sc" format="1">
  <advance width="578"/>
  <outline>
    <contour>
      <point x="451" y="-7"/>
      <point x="556" y="79"/>
      <point x="556" y="218" type="curve" smooth="yes"/>
      <point x="556" y="226" type="line"/>
      <point x="368" y="236" type="line"/>
      <point x="368" y="225" type="line" smooth="yes"/>
      <point x="368" y="179"/>
      <point x="337" y="154"/>
      <point x="291" y="154" type="curve" smooth="yes"/>
      <point x="244" y="154"/>
      <point x="213" y="179"/>
      <point x="213" y="225" type="curve" smooth="yes"/>
      <point x="213" y="376" type="line" smooth="yes"/>
      <point x="213" y="423"/>
      <point x="244" y="448"/>
      <point x="291" y="448" type="curve" smooth="yes"/>
      <point x="337" y="448"/>
      <point x="368" y="423"/>
      <point x="368" y="376" type="curve" smooth="yes"/>
      <point x="368" y="365" type="line"/>
      <point x="556" y="377" type="line"/>
      <point x="556" y="386" type="line" smooth="yes"/>
      <point x="556" y="524"/>
      <point x="451" y="609"/>
      <point x="291" y="609" type="curve" smooth="yes"/>
      <point x="130" y="609"/>
      <point x="25" y="518"/>
      <point x="25" y="371" type="curve" smooth="yes"/>
      <point x="25" y="233" type="line" smooth="yes"/>
      <point x="25" y="85"/>
      <point x="130" y="-7"/>
      <point x="291" y="-7" type="curve" smooth="yes"/>
    </contour>
    <contour>
      <point x="291" y="609" type="move" name="top"/>
    </contour>
    <contour>
      <point x="273" y="-7" type="move" name="bottom"/>
    </contour>
  </outline>
</glyph>
<glyph name="cedilla.alt" format="1">
  <advance width="191"/>
  <outline>
    <contour>
      <point x="82" y="-200" type="curve" smooth="yes"/>
      <point x="149" y="-200"/>
      <point x="191" y="-161"/>
      <point x="191" y="-104" type="curve" smooth="yes"/>
      <point x="191" y="-85"/>
      <point x="186" y="-53"/>
      <point x="160" y="-32" type="curve" smooth="yes"/>
      <point x="135" y="-12"/>
      <point x="100" y="-9"/>
      <point x="76" y="-22" type="curve"/>
      <point x="96" y="17" type="line"/>
      <point x="37" y="22" type="line"/>
      <point x="4" y="-57" type="line"/>
      <point x="61" y="-107" type="line"/>
      <point x="66" y="-104"/>
      <point x="75" y="-97"/>
      <point x="85" y="-97" type="curve" smooth="yes"/>
      <point x="92" y="-97"/>
      <point x="97" y="-100"/>
      <point x="97" y="-107" type="curve" smooth="yes"/>
      <point x="97" y="-113"/>
      <point x="92" y="-119"/>
      <point x="81" y="-120" type="curve" smooth="yes"/>
      <point x="68" y="-121"/>
      <point x="43" y="-115"/>
      <point x="31" y="-102" type="curve"/>
      <point x="0" y="-174" type="line"/>
      <point x="24" y="-192"/>
      <point x="52" y="-200"/>
    </contour>
    <contour>
      <point x="86" y="0" type="move" name="_bottom"/>
    </contour>
  </outline>
</glyph>
<glyph name="cedillacomb.alt" format="1">
  <advance width="191"/>
  <outline>
    <contour>
      <point x="149" y="-200"/>
      <point x="191" y="-161"/>
      <point x="191" y="-103" type="curve" smooth="yes"/>
      <point x="191" y="-78"/>
      <point x="183" y="-44"/>
      <point x="155" y="-24" type="curve" smooth="yes"/>
      <point x="131" y="-7"/>
      <point x="102" y="-7"/>
      <point x="76" y="-22" type="curve"/>
      <point x="96" y="17" type="line"/>
      <point x="37" y="22" type="line"/>
      <point x="4" y="-57" type="line"/>
      <point x="61" y="-107" type="line"/>
      <point x="66" y="-104"/>
      <point x="75" y="-97"/>
      <point x="85" y="-97" type="curve" smooth="yes"/>
      <point x="92" y="-97"/>
      <point x="97" y="-100"/>
      <point x="97" y="-107" type="curve" smooth="yes"/>
      <point x="97" y="-113"/>
      <point x="92" y="-119"/>
      <point x="81" y="-120" type="curve" smooth="yes"/>
      <point x="68" y="-121"/>
      <point x="43" y="-115"/>
      <point x="31" y="-102" type="curve"/>
      <point x="0" y="-174" type="line"/>
      <point x="24" y="-192"/>
      <point x="52" y="-200"/>
      <point x="82" y="-200" type="curve" smooth="yes"/>
    </contour>
    <contour>
      <point x="86" y="0" type="move" name="_bottom"/>
    </contour>
  </outline>
</glyph>
<glyph name="d.sc" format="1">
  <advance width="588"/>
  <outline>
    <contour>
      <point x="294" y="0" type="line" smooth="yes"/>
      <point x="452" y="0"/>
      <point x="559" y="81"/>
      <point x="559" y="201" type="curve" smooth="yes"/>
      <point x="559" y="401" type="line" smooth="yes"/>
      <point x="559" y="521"/>
      <point x="452" y="602"/>
      <point x="294" y="602" type="curve" smooth="yes"/>
      <point x="33" y="602" type="line"/>
      <point x="33" y="0" type="line"/>
    </contour>
    <contour>
      <point x="221" y="441" type="line"/>
      <point x="300" y="441" type="line" smooth="yes"/>
      <point x="342" y="441"/>
      <point x="371" y="412"/>
      <point x="371" y="369" type="curve"/>
      <point x="371" y="233" type="line"/>
      <point x="369" y="190"/>
      <point x="340" y="161"/>
      <point x="301" y="161" type="curve" smooth="yes"/>
      <point x="221" y="161" type="line"/>
    </contour>
    <contour>
      <point x="277" y="606" type="move" name="top"/>
    </contour>
  </outline>
</glyph>
<glyph name="e.alt" format="1">
  <advance width="552"/>
  <outline>
    <contour>
      <point x="387" y="-8"/>
      <point x="455" y="23"/>
      <point x="510" y="81" type="curve"/>
      <point x="414" y="191" type="line"/>
      <point x="392" y="164"/>
      <point x="357" y="151"/>
      <point x="316" y="149" type="curve" smooth="yes"/>
      <point x="265" y="147"/>
      <point x="234" y="162"/>
      <point x="221" y="193" type="curve" smooth="yes"/>
      <point x="214" y="210"/>
      <point x="211" y="234"/>
      <point x="211" y="261" type="curve" smooth="yes"/>
      <point x="211" y="287"/>
      <point x="214" y="309"/>
      <point x="221" y="327" type="curve" smooth="yes"/>
      <point x="231" y="352"/>
      <point x="249" y="367"/>
      <point x="278" y="367" type="curve" smooth="yes"/>
      <point x="309" y="367"/>
      <point x="327" y="351"/>
      <point x="337" y="327" type="curve" smooth="yes"/>
      <point x="344" y="310"/>
      <point x="347" y="287"/>
      <point x="347" y="262" type="curve"/>
      <point x="418" y="305" type="line"/>
      <point x="158" y="305" type="line"/>
      <point x="158" y="213" type="line"/>
      <point x="535" y="213" type="line"/>
      <point x="535" y="298"/>
      <point x="527" y="345"/>
      <point x="515" y="375" type="curve" smooth="yes"/>
      <point x="482" y="460"/>
      <point x="394" y="528"/>
      <point x="276" y="528" type="curve" smooth="yes"/>
      <point x="170" y="528"/>
      <point x="81" y="473"/>
      <point x="44" y="377" type="curve" smooth="yes"/>
      <point x="30" y="341"/>
      <point x="24" y="300"/>
      <point x="24" y="262" type="curve" smooth="yes"/>
      <point x="24" y="219"/>
      <point x="32" y="179"/>
      <point x="44" y="147" type="curve" smooth="yes"/>
      <point x="82" y="46"/>
      <point x="165" y="-8"/>
      <point x="291" y="-8" type="curve" smooth="yes"/>
    </contour>
    <contour>
      <point x="276" y="528" type="move" name="top"/>
    </contour>
    <contour>
      <point x="289" y="-9" type="move" name="bottom"/>
    </contour>
  </outline>
</glyph>
<glyph name="e.sc" format="1">
  <advance width="480"/>
  <outline>
    <contour>
      <point x="21" y="0" type="line"/>
      <point x="467" y="0" type="line"/>
      <point x="467" y="161" type="line"/>
      <point x="209" y="161" type="line"/>
      <point x="209" y="417" type="line"/>
      <point x="467" y="417" type="line"/>
      <point x="467" y="578" type="line"/>
      <point x="21" y="578" type="line"/>
    </contour>
    <contour>
      <point x="97" y="214" type="line"/>
      <point x="369" y="214" type="line"/>
      <point x="369" y="374" type="line"/>
      <point x="97" y="374" type="line"/>
    </contour>
    <contour>
      <point x="244" y="0" type="move" name="bottom"/>
    </contour>
    <contour>
      <point x="259" y="590" type="move" name="top"/>
    </contour>
  </outline>
</glyph>
<glyph name="eight.dnom" format="1">
  <advance width="335"/>
  <outline>
    <contour>
      <point x="167" y="-8" type="curve" smooth="yes"/>
      <point x="235" y="-8"/>
      <point x="289" y="22"/>
      <point x="310" y="67" type="curve" smooth="yes"/>
      <point x="317" y="82"/>
      <point x="322" y="104"/>
      <point x="322" y="124" type="curve" smooth="yes"/>
      <point x="322" y="149"/>
      <point x="317" y="174"/>
      <point x="308" y="190" type="curve" smooth="yes"/>
      <point x="283" y="235"/>
      <point x="229" y="243"/>
      <point x="167" y="243" type="curve"/>
      <point x="106" y="243"/>
      <point x="54" y="236"/>
      <point x="28" y="189" type="curve" smooth="yes"/>
      <point x="19" y="173"/>
      <point x="12" y="147"/>
      <point x="12" y="125" type="curve" smooth="yes"/>
      <point x="12" y="111"/>
      <point x="15" y="87"/>
      <point x="26" y="66" type="curve" smooth="yes"/>
      <point x="52" y="16"/>
      <point x="106" y="-8"/>
    </contour>
    <contour>
      <point x="168" y="92" type="curve" smooth="yes"/>
      <point x="157" y="92"/>
      <point x="148" y="97"/>
      <point x="142" y="106" type="curve" smooth="yes"/>
      <point x="137" y="113"/>
      <point x="134" y="123"/>
      <point x="134" y="134" type="curve" smooth="yes"/>
      <point x="134" y="143"/>
      <point x="136" y="150"/>
      <point x="139" y="156" type="curve" smooth="yes"/>
      <point x="145" y="166"/>
      <point x="155" y="172"/>
      <point x="168" y="172" type="curve" smooth="yes"/>
      <point x="181" y="172"/>
      <point x="191" y="166"/>
      <point x="197" y="156" type="curve" smooth="yes"/>
      <point x="200" y="150"/>
      <point x="202" y="143"/>
      <point x="202" y="134" type="curve" smooth="yes"/>
      <point x="202" y="122"/>
      <point x="199" y="113"/>
      <point x="194" y="105" type="curve" smooth="yes"/>
      <point x="188" y="97"/>
      <point x="179" y="92"/>
    </contour>
    <contour>
      <point x="169" y="258" type="curve" smooth="yes"/>
      <point x="156" y="258"/>
      <point x="146" y="263"/>
      <point x="140" y="270" type="curve" smooth="yes"/>
      <point x="136" y="276"/>
      <point x="133" y="284"/>
      <point x="133" y="292" type="curve" smooth="yes"/>
      <point x="133" y="300"/>
      <point x="135" y="306"/>
      <point x="139" y="311" type="curve" smooth="yes"/>
      <point x="145" y="320"/>
      <point x="155" y="325"/>
      <point x="168" y="325" type="curve" smooth="yes"/>
      <point x="181" y="325"/>
      <point x="191" y="320"/>
      <point x="197" y="312" type="curve" smooth="yes"/>
      <point x="202" y="307"/>
      <point x="204" y="299"/>
      <point x="204" y="291" type="curve" smooth="yes"/>
      <point x="204" y="282"/>
      <point x="201" y="275"/>
      <point x="197" y="270" type="curve" smooth="yes"/>
      <point x="191" y="262"/>
      <point x="181" y="258"/>
    </contour>
    <contour>
      <point x="168" y="176" type="curve"/>
      <point x="236" y="177"/>
      <point x="282" y="210"/>
      <point x="304" y="243" type="curve" smooth="yes"/>
      <point x="314" y="258"/>
      <point x="320" y="280"/>
      <point x="320" y="302" type="curve" smooth="yes"/>
      <point x="320" y="323"/>
      <point x="315" y="341"/>
      <point x="306" y="358" type="curve" smooth="yes"/>
      <point x="283" y="400"/>
      <point x="232" y="426"/>
      <point x="168" y="426" type="curve" smooth="yes"/>
      <point x="104" y="426"/>
      <point x="54" y="403"/>
      <point x="31" y="360" type="curve" smooth="yes"/>
      <point x="21" y="343"/>
      <point x="16" y="323"/>
      <point x="16" y="300" type="curve" smooth="yes"/>
      <point x="16" y="286"/>
      <point x="18" y="263"/>
      <point x="31" y="243" type="curve" smooth="yes"/>
      <point x="49" y="215"/>
      <point x="94" y="177"/>
    </contour>
  </outline>
</glyph>
<glyph name="eng.sc" format="1">
  <advance width="625"/>
  <outline>
    <contour>
      <point x="532" y="-191"/>
      <point x="591" y="-152"/>
      <point x="591" y="30" type="curve" smooth="yes"/>
      <point x="591" y="439" type="line"/>
      <point x="403" y="439" type="line"/>
      <point x="403" y="27" type="line" smooth="yes"/>
      <point x="403" y="-27"/>
      <point x="381" y="-34"/>
      <point x="289" y="-26" type="curve"/>
      <point x="289" y="-183" type="line"/>
    </contour>
    <component base="n.sc"/>
  </outline>
</glyph>
<glyph name="eth.sc" format="1">
  <advance width="560"/>
  <outline>
    <contour>
      <point x="21" y="233" type="line"/>
      <point x="287" y="233" type="line"/>
      <point x="287" y="356" type="line"/>
      <point x="21" y="356" type="line"/>
    </contour>
    <component base="d.sc" xOffset="31"/>
  </outline>
</glyph>
<glyph name="f.sc" format="1">
  <advance width="525"/>
  <outline>
    <contour>
      <point x="221" y="0" type="line"/>
      <point x="221" y="441" type="line"/>
      <point x="518" y="441" type="line"/>
      <point x="518" y="602" type="line"/>
      <point x="33" y="602" type="line"/>
      <point x="33" y="0" type="line"/>
    </contour>
    <contour>
      <point x="411" y="226" type="line"/>
      <point x="411" y="386" type="line"/>
      <point x="109" y="386" type="line"/>
      <point x="109" y="226" type="line"/>
    </contour>
  </outline>
</glyph>
<glyph name="five.dnom" format="1">
  <advance width="323"/>
  <outline>
    <contour>
      <point x="226" y="-8"/>
      <point x="279" y="25"/>
      <point x="301" y="75" type="curve" smooth="yes"/>
      <point x="308" y="91"/>
      <point x="314" y="111"/>
      <point x="314" y="135" type="curve" smooth="yes"/>
      <point x="314" y="157"/>
      <point x="309" y="177"/>
      <point x="301" y="194" type="curve" smooth="yes"/>
      <point x="276" y="247"/>
      <point x="228" y="274"/>
      <point x="177" y="274" type="curve" smooth="yes"/>
      <point x="147" y="274"/>
      <point x="109" y="265"/>
      <point x="85" y="228" type="curve"/>
      <point x="124" y="228" type="line"/>
      <point x="124" y="315" type="line"/>
      <point x="301" y="315" type="line"/>
      <point x="301" y="416" type="line"/>
      <point x="6" y="416" type="line"/>
      <point x="6" y="156" type="line"/>
      <point x="129" y="156" type="line"/>
      <point x="136" y="169"/>
      <point x="149" y="173"/>
      <point x="159" y="173" type="curve" smooth="yes"/>
      <point x="172" y="173"/>
      <point x="181" y="167"/>
      <point x="186" y="159" type="curve" smooth="yes"/>
      <point x="191" y="151"/>
      <point x="193" y="142"/>
      <point x="193" y="132" type="curve" smooth="yes"/>
      <point x="193" y="122"/>
      <point x="190" y="113"/>
      <point x="184" y="106" type="curve" smooth="yes"/>
      <point x="178" y="99"/>
      <point x="170" y="93"/>
      <point x="159" y="93" type="curve" smooth="yes"/>
      <point x="148" y="93"/>
      <point x="138" y="98"/>
      <point x="132" y="107" type="curve" smooth="yes"/>
      <point x="128" y="113"/>
      <point x="127" y="117"/>
      <point x="126" y="122" type="curve"/>
      <point x="5" y="122" type="line"/>
      <point x="6" y="105"/>
      <point x="10" y="90"/>
      <point x="17" y="75" type="curve" smooth="yes"/>
      <point x="41" y="24"/>
      <point x="94" y="-8"/>
      <point x="159" y="-8" type="curve" smooth="yes"/>
    </contour>
  </outline>
</glyph>
<glyph name="four.dnom" format="1">
  <advance width="389"/>
  <outline>
    <contour>
      <point x="213" y="0" type="line"/>
      <point x="331" y="0" type="line"/>
      <point x="331" y="275" type="line"/>
      <point x="213" y="275" type="line"/>
    </contour>
    <contour>
      <point x="148" y="206" type="line"/>
      <point x="238" y="420" type="line"/>
      <point x="114" y="420" type="line"/>
      <point x="12" y="184" type="line"/>
      <point x="12" y="99" type="line"/>
      <point x="367" y="99" type="line"/>
      <point x="367" y="206" type="line"/>
    </contour>
  </outline>
</glyph>
<glyph name="g.sc" format="1">
  <advance width="577"/>
  <outline>
    <contour>
      <point x="449" y="-7"/>
      <point x="555" y="88"/>
      <point x="555" y="240" type="curve" smooth="yes"/>
      <point x="555" y="317" type="line"/>
      <point x="294" y="317" type="line"/>
      <point x="294" y="210" type="line"/>
      <point x="368" y="210" type="line"/>
      <point x="368" y="234" type="line"/>
      <point x="368" y="182"/>
      <point x="338" y="154"/>
      <point x="291" y="154" type="curve" smooth="yes"/>
      <point x="244" y="154"/>
      <point x="213" y="182"/>
      <point x="213" y="234" type="curve" smooth="yes"/>
      <point x="213" y="358" type="line" smooth="yes"/>
      <point x="213" y="420"/>
      <point x="244" y="448"/>
      <point x="291" y="448" type="curve" smooth="yes"/>
      <point x="338" y="448"/>
      <point x="368" y="420"/>
      <point x="368" y="358" type="curve" smooth="yes"/>
      <point x="368" y="349" type="line"/>
      <point x="555" y="349" type="line"/>
      <point x="555" y="361" type="line" smooth="yes"/>
      <point x="555" y="514"/>
      <point x="449" y="609"/>
      <point x="291" y="609" type="curve"/>
      <point x="130" y="609"/>
      <point x="25" y="515"/>
      <point x="25" y="363" type="curve" smooth="yes"/>
      <point x="25" y="240" type="line" smooth="yes"/>
      <point x="25" y="88"/>
      <point x="130" y="-7"/>
      <point x="291" y="-7" type="curve" smooth="yes"/>
    </contour>
    <contour>
      <point x="291" y="609" type="move" name="top"/>
    </contour>
    <contour>
      <point x="291" y="-7" type="move" name="bottom"/>
    </contour>
  </outline>
</glyph>
<glyph name="g_j.liga" format="1">
  <advance width="813"/>
  <outline>
    <contour>
      <point x="699" y="-209"/>
      <point x="780" y="-163"/>
      <point x="780" y="29" type="curve" smooth="yes"/>
      <point x="780" y="520" type="line"/>
      <point x="592" y="520" type="line"/>
      <point x="592" y="26" type="line" smooth="yes"/>
      <point x="592" y="-38"/>
      <point x="578" y="-52"/>
      <point x="533" y="-44" type="curve"/>
      <point x="503" y="-201" type="line"/>
    </contour>
    <contour>
      <point x="749" y="536"/>
      <point x="794" y="583"/>
      <point x="794" y="641" type="curve" smooth="yes"/>
      <point x="794" y="699"/>
      <point x="741" y="746"/>
      <point x="686" y="746" type="curve" smooth="yes"/>
      <point x="630" y="746"/>
      <point x="578" y="699"/>
      <point x="578" y="641" type="curve" smooth="yes"/>
      <point x="578" y="583"/>
      <point x="621" y="536"/>
      <point x="686" y="536" type="curve" smooth="yes"/>
    </contour>
    <component base="g"/>
  </outline>
</glyph>
<glyph name="h.sc" format="1">
  <advance width="577"/>
  <outline>
    <contour>
      <point x="554" y="0" type="line"/>
      <point x="554" y="602" type="line"/>
      <point x="366" y="602" type="line"/>
      <point x="366" y="0" type="line"/>
    </contour>
    <contour>
      <point x="221" y="0" type="line"/>
      <point x="221" y="602" type="line"/>
      <point x="33" y="602" type="line"/>
      <point x="33" y="0" type="line"/>
    </contour>
    <contour>
      <point x="435" y="225" type="line"/>
      <point x="435" y="386" type="line"/>
      <point x="154" y="386" type="line"/>
      <point x="154" y="225" type="line"/>
    </contour>
    <contour>
      <point x="294" y="435" type="move" name="strokelong"/>
    </contour>
  </outline>
</glyph>
<glyph name="i.sc" format="1">
  <advance width="254"/>
  <outline>
    <contour>
      <point x="221" y="0" type="line"/>
      <point x="221" y="602" type="line"/>
      <point x="33" y="602" type="line"/>
      <point x="33" y="0" type="line"/>
    </contour>
    <contour>
      <point x="127" y="614" type="move" name="top"/>
    </contour>
  </outline>
</glyph>
<glyph name="j.sc" format="1">
  <advance width="569"/>
  <outline>
    <contour>
      <point x="430" y="-7"/>
      <point x="536" y="79"/>
      <point x="536" y="217" type="curve" smooth="yes"/>
      <point x="536" y="602" type="line"/>
      <point x="349" y="602" type="line"/>
      <point x="349" y="218" type="line" smooth="yes"/>
      <point x="349" y="175"/>
      <point x="318" y="154"/>
      <point x="272" y="154" type="curve" smooth="yes"/>
      <point x="228" y="154"/>
      <point x="198" y="175"/>
      <point x="198" y="218" type="curve" smooth="yes"/>
      <point x="198" y="245" type="line"/>
      <point x="10" y="245" type="line"/>
      <point x="10" y="217" type="line" smooth="yes"/>
      <point x="10" y="79"/>
      <point x="115" y="-7"/>
      <point x="272" y="-7" type="curve" smooth="yes"/>
    </contour>
  </outline>
</glyph>
<glyph name="k.sc" format="1">
  <advance width="607"/>
  <outline>
    <contour>
      <point x="221" y="0" type="line"/>
      <point x="221" y="148" type="line"/>
      <point x="262" y="204" type="line"/>
      <point x="393" y="0" type="line"/>
      <point x="600" y="0" type="line"/>
      <point x="391" y="337" type="line"/>
      <point x="595" y="602" type="line"/>
      <point x="390" y="602" type="line"/>
      <point x="221" y="408" type="line"/>
      <point x="221" y="602" type="line"/>
      <point x="33" y="602" type="line"/>
      <point x="33" y="0" type="line"/>
    </contour>
    <contour>
      <point x="290" y="0" type="move" name="bottom"/>
    </contour>
  </outline>
</glyph>
<glyph name="l.sc" format="1">
  <advance width="546"/>
  <outline>
    <contour>
      <point x="530" y="0" type="line"/>
      <point x="530" y="161" type="line"/>
      <point x="221" y="161" type="line"/>
      <point x="221" y="602" type="line"/>
      <point x="33" y="602" type="line"/>
      <point x="33" y="0" type="line"/>
    </contour>
    <contour>
      <point x="126" y="602" type="move" name="top"/>
    </contour>
    <contour>
      <point x="260" y="0" type="move" name="bottom"/>
    </contour>
  </outline>
</glyph>
<glyph name="m.sc" format="1">
  <advance width="679"/>
  <outline>
    <contour>
      <point x="221" y="0" type="line"/>
      <point x="221" y="340" type="line"/>
      <point x="300" y="241" type="line"/>
      <point x="379" y="241" type="line"/>
      <point x="458" y="340" type="line"/>
      <point x="458" y="0" type="line"/>
      <point x="646" y="0" type="line"/>
      <point x="646" y="602" type="line"/>
      <point x="463" y="602" type="line"/>
      <point x="340" y="465" type="line"/>
      <point x="216" y="602" type="line"/>
      <point x="33" y="602" type="line"/>
      <point x="33" y="0" type="line"/>
    </contour>
  </outline>
</glyph>
<glyph name="n.curve" format="1">
  <advance width="332"/>
  <outline>
    <contour>
      <point x="340" y="0" type="line"/>
      <point x="340" y="341" type="line" smooth="yes"/>
      <point x="340" y="460"/>
      <point x="274" y="528"/>
      <point x="174" y="528" type="curve" smooth="yes"/>
      <point x="73" y="528"/>
      <point x="0" y="460"/>
      <point x="0" y="300" type="curve"/>
      <point x="39" y="300" type="line"/>
      <point x="39" y="340"/>
      <point x="62" y="367"/>
      <point x="96" y="367" type="curve" smooth="yes"/>
      <point x="129" y="367"/>
      <point x="152" y="340"/>
      <point x="152" y="300" type="curve" smooth="yes"/>
      <point x="152" y="0" type="line"/>
    </contour>
  </outline>
</glyph>
<glyph name="n.sc" format="1">
  <advance width="560"/>
  <outline>
    <contour>
      <point x="21" y="0" type="line"/>
      <point x="209" y="0" type="line"/>
      <point x="207" y="286" type="line"/>
      <point x="351" y="0" type="line"/>
      <point x="539" y="0" type="line"/>
      <point x="539" y="578" type="line"/>
      <point x="351" y="578" type="line"/>
      <point x="352" y="299" type="line"/>
      <point x="209" y="578" type="line"/>
      <point x="21" y="578" type="line"/>
    </contour>
    <contour>
      <point x="278" y="0" type="move" name="bottom"/>
    </contour>
    <contour>
      <point x="268" y="590" type="move" name="top"/>
    </contour>
  </outline>
</glyph>
<glyph name="o.sc" format="1">
  <advance width="590"/>
  <outline>
    <contour>
      <point x="457" y="-11"/>
      <point x="565" y="84"/>
      <point x="565" y="237" type="curve" smooth="yes"/>
      <point x="565" y="365" type="line" smooth="yes"/>
      <point x="565" y="515"/>
      <point x="457" y="609"/>
      <point x="295" y="609" type="curve" smooth="yes"/>
      <point x="132" y="609"/>
      <point x="25" y="515"/>
      <point x="25" y="365" type="curve" smooth="yes"/>
      <point x="25" y="237" type="line" smooth="yes"/>
      <point x="25" y="84"/>
      <point x="132" y="-11"/>
      <point x="295" y="-11" type="curve" smooth="yes"/>
    </contour>
    <contour>
      <point x="245" y="150"/>
      <point x="213" y="178"/>
      <point x="213" y="232" type="curve" smooth="yes"/>
      <point x="213" y="367" type="line" smooth="yes"/>
      <point x="213" y="420"/>
      <point x="245" y="448"/>
      <point x="295" y="448" type="curve" smooth="yes"/>
      <point x="344" y="448"/>
      <point x="377" y="420"/>
      <point x="377" y="367" type="curve" smooth="yes"/>
      <point x="377" y="232" type="line" smooth="yes"/>
      <point x="377" y="178"/>
      <point x="344" y="150"/>
      <point x="295" y="150" type="curve" smooth="yes"/>
    </contour>
    <contour>
      <point x="295" y="609" type="move" name="top"/>
    </contour>
  </outline>
</glyph>
